<?xml version="1.0" encoding="UTF-8" standalone="no"?>
<svg
   version="1.1"
   viewBox="0 0 290.07613 189"
   id="svg10997"
   sodipodi:docname="Logo Schule Ettiswil 2025 Inkscape.svg"
   inkscape:version="1.1.1 (3bf5ae0d25, 2021-09-20)"
   width="290.07614"
   height="189"
   xmlns:inkscape="http://www.inkscape.org/namespaces/inkscape"
   xmlns:sodipodi="http://sodipodi.sourceforge.net/DTD/sodipodi-0.dtd"
   xmlns:xlink="http://www.w3.org/1999/xlink"
   xmlns="http://www.w3.org/2000/svg"
   xmlns:svg="http://www.w3.org/2000/svg">
  <defs
     id="defs11001">
    <color-profile
       name="Agfa-:-Swop-Standard"
       xlink:href="../../../WINDOWS/system32/spool/drivers/color/RSWOP.icm"
       id="color-profile61107" />
  </defs>
  <sodipodi:namedview
     id="namedview10999"
     pagecolor="#ffffff"
     bordercolor="#666666"
     borderopacity="1.0"
     inkscape:pageshadow="2"
     inkscape:pageopacity="0.0"
     inkscape:pagecheckerboard="true"
     showgrid="false"
     inkscape:zoom="3.3971056"
     inkscape:cx="125.1065"
     inkscape:cy="168.96737"
     inkscape:window-width="3840"
     inkscape:window-height="2054"
     inkscape:window-x="-11"
     inkscape:window-y="-11"
     inkscape:window-maximized="1"
     inkscape:current-layer="layer2"
     fit-margin-top="0"
     fit-margin-left="0"
     fit-margin-right="0"
     fit-margin-bottom="0" />
  <g
     inkscape:groupmode="layer"
     id="layer1"
     inkscape:label="Text"
     style="display:inline"
     transform="translate(6.5461355,67.418122)"
     sodipodi:insensitive="true" />
  <g
     inkscape:groupmode="layer"
     id="layer2"
     inkscape:label="Logo"
     transform="translate(6.5461355,67.418122)"
     style="display:inline"
     sodipodi:insensitive="true">
    <g
       id="g60903">
      <g
         aria-label="Schule
Ettiswil"
         id="text9065"
         style="font-size:48px;line-height:1.25;font-family:Aptos;-inkscape-font-specification:Aptos;display:inline;fill:#acc069">
        <g
           id="g60312"
           transform="translate(7.6535743,-84.189317)">
          <path
             d="m 127.84517,56.940578 q -3.375,0 -6.11719,-1.03125 -2.74219,-1.03125 -4.33594,-3.234375 -1.59375,-2.203125 -1.59375,-5.71875 h 4.21875 q 0.0234,2.507813 1.10157,3.9375 1.10156,1.429688 2.88281,2.015625 1.80469,0.585938 3.96094,0.585938 2.01562,0 3.65625,-0.585938 1.66406,-0.609375 2.64843,-1.804687 0.98438,-1.21875 0.98438,-3.09375 0,-1.664063 -0.77344,-2.71875 -0.77344,-1.054688 -2.55469,-1.828125 -1.78125,-0.796875 -4.82812,-1.570313 -3.5625,-0.9375 -5.85938,-2.039062 -2.29687,-1.125 -3.42187,-2.789063 -1.10156,-1.664062 -1.10156,-4.21875 0,-2.695312 1.26562,-4.523437 1.26563,-1.851563 3.60938,-2.8125 2.36718,-0.960938 5.64843,-0.960938 3.04688,0 5.57813,0.984375 2.53125,0.984375 4.03125,2.953125 1.52344,1.96875 1.52344,4.898438 h -4.24219 q 0.0469,-2.671875 -1.94531,-4.03125 -1.99219,-1.382813 -4.92188,-1.382813 -3,0 -4.71094,1.21875 -1.6875,1.195313 -1.6875,3.515625 0,1.382813 0.72657,2.320313 0.72656,0.914062 2.50781,1.664062 1.80469,0.75 4.96875,1.570313 3.65625,0.984375 5.92969,2.109375 2.27343,1.125 3.35156,2.882812 1.07812,1.757813 1.07812,4.617188 0,3.046875 -1.54687,5.0625 -1.52344,1.992187 -4.14844,3 -2.60156,1.007812 -5.88281,1.007812 z"
             style="fill:#000000"
             id="path59557" />
          <path
             d="m 153.62642,56.917141 q -3,0 -5.32031,-1.3125 -2.32032,-1.3125 -3.63282,-3.914063 -1.3125,-2.625 -1.3125,-6.515625 0,-3.890625 1.28907,-6.539062 1.28906,-2.648438 3.58593,-3.984375 2.32032,-1.335938 5.39063,-1.335938 2.57812,0 4.61719,0.867188 2.0625,0.867187 3.28125,2.625 1.24218,1.734375 1.33593,4.40625 h -3.86718 q -0.16407,-2.203125 -1.59375,-3.46875 -1.40625,-1.265625 -3.70313,-1.265625 -3.11719,0 -4.71094,2.296875 -1.59375,2.273437 -1.59375,6.398437 0,2.71875 0.70313,4.640625 0.70312,1.921875 2.10937,2.929688 1.40625,1.007812 3.49219,1.007812 2.34375,0 3.86719,-1.289062 1.52344,-1.289063 1.59375,-3.796875 h 3.84375 q -0.0469,2.742187 -1.3125,4.59375 -1.24219,1.828125 -3.35156,2.742187 -2.08594,0.914063 -4.71094,0.914063 z"
             style="fill:#000000"
             id="path59559" />
          <path
             d="M 168.11079,56.518703 V 24.971828 h 3.89063 v 12.234375 q 1.03125,-1.359375 2.88281,-2.53125 1.875,-1.195312 4.75781,-1.195312 3.58594,0 5.15625,2.179687 1.57032,2.15625 1.57032,6.140625 v 14.71875 h -3.89063 V 42.339016 q 0,-1.617188 -0.30469,-2.882813 -0.30468,-1.265625 -1.125,-1.96875 -0.79687,-0.726562 -2.36718,-0.726562 -2.39063,0 -4.03125,1.148437 -1.64063,1.125 -2.625,2.4375 v 16.171875 z"
             style="fill:#000000"
             id="path59561" />
          <path
             d="m 199.16548,56.753078 q -3.70312,0 -5.34375,-2.203125 -1.61719,-2.226562 -1.61719,-6.117187 V 33.690578 h 3.9375 v 14.203125 q 0,1.59375 0.30469,2.8125 0.32813,1.21875 1.19531,1.921875 0.86719,0.679688 2.48438,0.679688 2.34375,0 3.91406,-1.054688 1.57031,-1.054687 2.53125,-2.390625 V 33.690578 h 3.91406 v 22.828125 h -3.77343 l -0.0937,-3.515625 q -1.00782,1.335938 -2.85938,2.554688 -1.82812,1.195312 -4.59375,1.195312 z"
             style="fill:#000000"
             id="path59563" />
          <path
             d="m 223.30611,56.518703 q -2.76563,0 -4.24219,-0.867187 -1.47656,-0.890625 -2.03906,-2.53125 -0.53907,-1.664063 -0.53907,-3.984375 V 24.971828 h 3.91407 v 23.976563 q 0,2.132812 0.53906,3.257812 0.5625,1.125 2.625,1.125 h 1.05469 v 3.1875 z"
             style="fill:#000000"
             id="path59565" />
          <path
             d="m 237.74361,56.940578 q -3.5625,0 -5.88282,-1.546875 -2.32031,-1.570312 -3.46875,-4.242187 -1.125,-2.695313 -1.125,-6.046875 0,-3.492188 1.10157,-6.140625 1.10156,-2.671875 3.32812,-4.171875 2.25,-1.5 5.625,-1.5 4.52344,0 7.07813,2.8125 2.55468,2.8125 2.55468,8.085937 0,0.351563 -0.0234,0.84375 0,0.46875 -0.0469,0.679688 h -15.67969 q 0.0234,2.226562 0.67969,4.101562 0.65625,1.851563 2.08594,2.976563 1.45312,1.125 3.77344,1.125 2.50781,0 3.89062,-1.21875 1.40625,-1.242188 1.47656,-3.5625 h 3.86719 q -0.0703,2.414062 -1.21875,4.171875 -1.125,1.734375 -3.16406,2.695312 -2.03906,0.9375 -4.85156,0.9375 z m -6.51563,-14.085937 h 11.85938 q -0.0703,-3.1875 -1.57032,-4.875 -1.5,-1.6875 -4.19531,-1.6875 -2.74219,0 -4.28906,1.6875 -1.52344,1.664062 -1.80469,4.875 z"
             style="fill:#000000"
             id="path59567" />
          <path
             d="M 118.28267,116.5187 V 84.971828 h 21.16406 v 5.460938 h -14.57812 v 7.335937 h 13.21875 v 5.273437 h -13.21875 v 8.01563 h 14.57812 v 5.46093 z"
             style="font-weight:bold;-inkscape-font-specification:'Aptos Bold'"
             id="path59569" />
          <path
             d="m 155.12642,116.5187 q -3.46875,0 -5.39063,-0.82031 -1.89843,-0.84375 -2.64843,-2.57812 -0.75,-1.75782 -0.75,-4.57032 V 98.424953 h -3.79688 v -4.78125 h 3.79688 v -5.390625 h 6.21093 v 5.390625 h 4.99219 v 4.78125 h -4.99219 v 9.749997 q 0,1.80469 0.49219,2.67188 0.51563,0.86719 2.29688,0.86719 h 2.20312 v 4.80468 z"
             style="font-weight:bold;-inkscape-font-specification:'Aptos Bold'"
             id="path59571" />
          <path
             d="m 172.18892,116.5187 q -3.46875,0 -5.39063,-0.82031 -1.89843,-0.84375 -2.64843,-2.57812 -0.75,-1.75782 -0.75,-4.57032 V 98.424953 h -3.79688 v -4.78125 h 3.79688 v -5.390625 h 6.21093 v 5.390625 h 4.99219 v 4.78125 h -4.99219 v 9.749997 q 0,1.80469 0.49219,2.67188 0.51563,0.86719 2.29688,0.86719 h 2.20312 v 4.80468 z"
             style="font-weight:bold;-inkscape-font-specification:'Aptos Bold'"
             id="path59573" />
          <path
             d="M 179.47798,116.5187 V 93.643703 h 6.21094 V 116.5187 Z m 3.11719,-25.874997 q -1.71094,0 -2.625,-0.867187 -0.89063,-0.867188 -0.89063,-2.15625 0,-1.3125 0.89063,-2.15625 0.91406,-0.867188 2.625,-0.867188 1.71094,0 2.60156,0.867188 0.91406,0.84375 0.91406,2.15625 0,1.289062 -0.91406,2.15625 -0.89062,0.867187 -2.60156,0.867187 z"
             style="font-weight:bold;-inkscape-font-specification:'Aptos Bold'"
             id="path59575" />
          <path
             d="m 201.53267,116.94058 q -1.89844,0 -3.72656,-0.35156 -1.82813,-0.35157 -3.30469,-1.19532 -1.47656,-0.86718 -2.34375,-2.34375 -0.86719,-1.47656 -0.86719,-3.67968 h 5.76563 q 0,1.92187 1.33593,2.67187 1.35938,0.75 3.16407,0.75 1.78125,0 2.76562,-0.5625 0.98438,-0.58594 0.98438,-1.94531 0,-1.28906 -1.17188,-1.92188 -1.14844,-0.63281 -4.05469,-1.28906 -2.4375,-0.58594 -4.35937,-1.40625 -1.89844,-0.84375 -2.97656,-2.22656 -1.07813,-1.40625 -1.07813,-3.679689 0,-1.78125 0.82031,-3.023438 0.82032,-1.242187 2.17969,-1.992187 1.38281,-0.773438 3.09375,-1.125 1.73438,-0.351563 3.53906,-0.351563 1.75782,0 3.44532,0.351563 1.6875,0.351562 3.04687,1.195312 1.35938,0.820313 2.17969,2.226563 0.82031,1.40625 0.82031,3.515629 h -5.76562 q 0,-1.757817 -1.125,-2.437504 -1.10157,-0.679688 -2.60157,-0.679688 -1.61718,0 -2.55468,0.46875 -0.91407,0.46875 -0.91407,1.546875 0,0.632817 0.58594,1.124997 0.58594,0.46875 1.875,0.89063 1.28906,0.39844 3.39844,0.86719 2.22656,0.51562 3.98437,1.33593 1.75782,0.82032 2.78907,2.20313 1.03125,1.38281 1.03125,3.58594 0,2.0625 -0.84375,3.49218 -0.82032,1.42969 -2.22657,2.32032 -1.38281,0.86718 -3.1875,1.26562 -1.78125,0.39844 -3.70312,0.39844 z"
             style="font-weight:bold;-inkscape-font-specification:'Aptos Bold'"
             id="path59577" />
          <path
             d="m 220.23579,116.5187 -7.19531,-22.874997 h 6.30469 l 4.40625,16.148437 4.40625,-16.148437 h 6.51562 l 4.5,16.124997 4.33594,-16.124997 h 5.88281 l -7.19531,22.874997 h -6.35156 l -4.61719,-16.45312 -4.66406,16.45312 z"
             style="font-weight:bold;-inkscape-font-specification:'Aptos Bold'"
             id="path59579" />
          <path
             d="M 252.81392,116.5187 V 93.643703 h 6.21094 V 116.5187 Z m 3.11719,-25.874997 q -1.71094,0 -2.625,-0.867187 -0.89063,-0.867188 -0.89063,-2.15625 0,-1.3125 0.89063,-2.15625 0.91406,-0.867188 2.625,-0.867188 1.71093,0 2.60156,0.867188 0.91406,0.84375 0.91406,2.15625 0,1.289062 -0.91406,2.15625 -0.89063,0.867187 -2.60156,0.867187 z"
             style="font-weight:bold;-inkscape-font-specification:'Aptos Bold'"
             id="path59581" />
          <path
             d="m 274.25923,116.5187 q -3.49219,0 -5.39062,-0.82031 -1.89844,-0.84375 -2.64844,-2.57812 -0.75,-1.75782 -0.75,-4.57032 V 84.971828 h 6.1875 v 23.203122 q 0,1.80469 0.49219,2.64844 0.49218,0.84375 2.29687,0.84375 h 1.42969 v 4.85156 z"
             style="font-weight:bold;-inkscape-font-specification:'Aptos Bold'"
             id="path59583" />
        </g>
      </g>
      <g
         stroke-width="2"
         fill="none"
         stroke-linecap="butt"
         id="g10933"
         transform="translate(-6.5461355,-67.418122)">
        <path
           stroke="#8e8e8d"
           vector-effect="non-scaling-stroke"
           d="M 109.42,3.34 A 0.53,0.53 0 0 0 108.89,2.81 H 30.03 A 0.53,0.53 0 0 0 29.5,3.34 v 182.58 a 0.53,0.53 0 0 0 0.53,0.53 h 78.86 a 0.53,0.53 0 0 0 0.53,-0.53 V 3.34"
           id="path10843" />
        <path
           stroke="#8e8e8d"
           vector-effect="non-scaling-stroke"
           d="m 18.08,17.82 -8.8,0.13 q -0.99,0.02 -1.01,1.02 l -0.01,0.48 a 0.95,0.94 0.9 0 0 0.94,0.96 l 11.31,0.15 A 0.58,0.58 0 0 0 21.1,20.02 Q 21.56,13.84 20.86,8.33 20.82,7.98 20.48,7.86 19.75,7.6 19.15,8.3 a 1.14,1.14 0 0 0 -0.28,0.72 l -0.15,8.15 q -0.01,0.64 -0.64,0.65"
           id="path10845" />
        <path
           stroke="#8e8e8d"
           vector-effect="non-scaling-stroke"
           d="m 21.2286,34.3387 a 0.59,0.59 0 0 0 -0.591,-0.589 l -11.76,0.0206 a 0.59,0.59 0 0 0 -0.589,0.591 l 0.0028,1.6 a 0.59,0.59 0 0 0 0.591,0.589 l 11.76,-0.0206 a 0.59,0.59 0 0 0 0.589,-0.591 l -0.0028,-1.6"
           id="path10847" />
        <path
           stroke="#8e8e8d"
           vector-effect="non-scaling-stroke"
           d="m 13.01,58.24 q -0.86,-0.35 0,-0.68 l 7.47,-2.92 q 0.55,-0.21 0.69,-0.79 0.15,-0.6 -0.04,-1.17 A 0.9,0.85 89.4 0 0 20.61,52.14 L 8.71,47.55 Q 8.33,47.4 8.31,47.81 l -0.06,1.54 q -0.03,0.68 0.61,0.91 l 7.13,2.54 q 0.89,0.32 0.03,0.7 -3.3,1.45 -6.86,2.74 -0.52,0.19 -0.76,0.67 c -0.48,0.94 -0.12,1.93 0.89,2.29 q 3.82,1.37 6.76,2.66 0.77,0.33 -0.01,0.63 -3.53,1.39 -7.04,2.59 -0.74,0.26 -0.74,1.05 0,0.03 0,1.61 0,0.81 0.75,0.52 l 9.93,-3.88 q 4.81,-1.88 0.01,-3.79 l -5.94,-2.35"
           id="path10849" />
        <path
           stroke="#8e8e8d"
           vector-effect="non-scaling-stroke"
           d="m 18.75,82.01 -0.02,7.24 a 1.91,1.87 -28.7 0 1 -0.32,1.05 q -0.16,0.24 -0.41,0.39 -0.51,0.3 -0.56,0.88 -0.07,0.75 0.41,1.3 0.26,0.3 0.66,0.29 2.51,-0.1 2.61,-2.72 0.19,-5.03 0.01,-9.27 -0.11,-2.47 -2.58,-2.46 l -2.67,0.02 q -2.61,0.02 -2.62,2.64 v 8.19 q 0,0.57 -0.57,0.54 L 11.24,90.02 Q 10.51,89.98 10.5,89.24 l -0.02,-6.96 q 0,-0.51 0.46,-0.74 0.66,-0.32 0.75,-1.13 a 1.32,1.32 0 0 0 -1.57,-1.45 q -1.77,0.35 -1.81,2.29 -0.1,4.5 -0.02,8.88 0.05,2.39 2.44,2.39 l 2.54,-0.01 q 2.4,0 2.41,-2.4 l 0.03,-8.07 q 0,-0.75 0.75,-0.76 l 1.55,-0.01 q 0.74,-0.01 0.74,0.74"
           id="path10851" />
        <path
           stroke="#8e8e8d"
           vector-effect="non-scaling-stroke"
           d="m 21.2063,106.635 a 0.82,0.82 0 0 0 -0.8257,-0.8143 l -11.2597,0.0786 a 0.82,0.82 0 0 0 -0.8143,0.8257 l 0.0071,1.02 a 0.82,0.82 0 0 0 0.8257,0.8143 l 11.2597,-0.0786 a 0.82,0.82 0 0 0 0.8143,-0.8257 l -0.0071,-1.02"
           id="path10853" />
        <path
           stroke="#8e8e8d"
           vector-effect="non-scaling-stroke"
           d="m 10.53,127.96 a 0.45,0.45 0 0 1 0.45,-0.45 l 9.79,0.11 a 0.45,0.45 0 0 0 0.46,-0.45 l 0.02,-1.97 a 0.45,0.45 0 0 0 -0.45,-0.46 l -9.82,0.01 a 0.45,0.45 0 0 1 -0.45,-0.44 l -0.08,-5.27 a 0.45,0.45 0 0 0 -0.41,-0.44 l -1.23,-0.14 a 0.45,0.45 0 0 0 -0.5,0.45 l -0.06,14.38 a 0.45,0.45 0 0 0 0.47,0.45 l 1.34,-0.07 a 0.45,0.45 0 0 0 0.43,-0.45 l 0.04,-5.26"
           id="path10855" />
        <path
           stroke="#8e8e8d"
           vector-effect="non-scaling-stroke"
           d="M 10.53,150.24 A 0.47,0.47 0 0 1 11,149.77 h 9.73 a 0.47,0.47 0 0 0 0.47,-0.46 l 0.05,-2.08 a 0.47,0.47 0 0 0 -0.48,-0.48 l -9.76,0.09 a 0.47,0.47 0 0 1 -0.47,-0.47 l -0.04,-5.04 a 0.47,0.47 0 0 0 -0.43,-0.47 l -1.3,-0.11 a 0.47,0.47 0 0 0 -0.51,0.47 l -0.01,14.07 a 0.47,0.47 0 0 0 0.48,0.47 l 1.33,-0.01 a 0.47,0.47 0 0 0 0.46,-0.47 l 0.01,-5.04"
           id="path10857" />
        <path
           stroke="#8e8e8d"
           vector-effect="non-scaling-stroke"
           d="m 13.24,174.71 a 0.44,0.44 0 0 1 -0.42,0.43 l -1.86,0.1 A 0.44,0.44 0 0 1 10.5,174.8 l -0.03,-9.51 a 0.44,0.44 0 0 0 -0.4,-0.44 l -1.33,-0.12 a 0.44,0.44 0 0 0 -0.48,0.44 v 12.43 a 0.44,0.44 0 0 0 0.44,0.44 l 12.05,0.01 a 0.44,0.44 0 0 0 0.44,-0.44 l -0.05,-12.44 a 0.44,0.44 0 0 0 -0.43,-0.43 l -1.53,-0.02 a 0.44,0.44 0 0 0 -0.44,0.44 l 0.01,9.64 a 0.44,0.44 0 0 1 -0.45,0.44 l -2.39,-0.08 a 0.44,0.44 0 0 1 -0.43,-0.44 l -0.01,-5.31 a 0.44,0.44 0 0 0 -0.4,-0.43 l -1.2,-0.1 a 0.44,0.44 0 0 0 -0.47,0.42 l -0.16,5.41"
           id="path10859" />
        <path
           stroke="#ffe2a1"
           vector-effect="non-scaling-stroke"
           d="M 65.09,71.26 62.9,71.04"
           id="path10861" />
        <path
           stroke="#8e8e8d"
           vector-effect="non-scaling-stroke"
           d="m 62.9,71.04 q -8.96,-1.21 -14.81,3.8 -7.44,6.39 -5.98,17.21"
           id="path10863" />
        <path
           stroke="#ffe2a1"
           vector-effect="non-scaling-stroke"
           d="m 42.11,92.05 0.6,2.88"
           id="path10865" />
        <path
           stroke="#8e8e8d"
           vector-effect="non-scaling-stroke"
           d="m 42.71,94.93 q 3.36,1.65 5.02,4.23 c 0.8,1.25 0.41,2.4 0.92,3.72 0.77,1.97 -0.24,6.09 -1.25,7.92 q -1.17,2.11 -3.08,3.06 c -2.57,1.28 -5.74,3.02 -5.98,6.27 -0.32,4.42 -0.19,8.94 1.63,13.01 q 3.1,6.93 7.26,10.97 3.77,3.65 10.44,5.82 0.87,0.28 1.3,1.08 a 1.32,1.32 0 0 0 0.71,0.61 q 3.03,1.1 6.33,1.38 0.5,0.04 0.51,0.54 0.22,9.98 1.55,19.93 0.01,0.1 0.1,0.09 l 0.29,-0.01 q 0.19,0 0.2,-0.2 l 0.69,-18.86 q 0.03,-0.86 0.9,-0.86 4.59,0.03 9.72,-1.63 c 2.79,-0.9 4.73,-3.08 7.22,-4.52 4.58,-2.64 9.11,-7.67 11.05,-12.22 q 5.08,-11.91 2.06,-26.5 -1.3,-6.22 -3.78,-11.75 a 1.23,1.13 69.4 0 0 -1.4,-0.71 q -0.14,0.04 -0.4,0.44"
           id="path10867" />
        <path
           stroke="#d6e0b4"
           vector-effect="non-scaling-stroke"
           d="M 94.72,96.74 Q 94.31,96.86 93.89,96.4"
           id="path10869" />
        <path
           stroke="#929185"
           vector-effect="non-scaling-stroke"
           d="m 93.89,96.4 q 0.47,-3.35 -1.83,-6.9 -2.77,-4.27 -5.53,-8.54 -0.56,-0.87 -1.56,-0.92"
           id="path10871" />
        <path
           stroke="#d6e0b4"
           vector-effect="non-scaling-stroke"
           d="M 84.97,80.04 Q 84.34,80 84.21,79.47"
           id="path10873" />
        <path
           stroke="#929185"
           vector-effect="non-scaling-stroke"
           d="m 84.21,79.47 q 0.25,-0.41 0.28,-0.8 0.02,-0.32 -0.16,-0.59 -2.64,-4.05 -5.12,-8.18 c -1.5,-2.5 -1.86,-5.36 -3.29,-7.82 Q 74.44,59.53 73.64,56.65 C 72.6,52.89 70.94,49.03 70.52,45.28 70.19,42.37 69.56,39.57 69.47,36.68 69.35,32.67 68.31,28.95 68.27,24.83 Q 68.19,17.95 68.11,11.31 68.09,9.94 67.57,8.67 q -0.4,-0.98 -0.39,0.07 0.05,18.61 -0.93,36.64 -0.23,4.08 -0.59,7.91 -0.34,3.56 -0.16,7.91 0.21,5.02 -0.41,10.06"
           id="path10875" />
        <path
           stroke="#69713a"
           vector-effect="non-scaling-stroke"
           d="M 84.21,79.47 Q 81.09,74.36 77.58,69.44 74.2,64.69 70.82,53.19"
           id="path10877" />
        <path
           stroke="#5e4a17"
           vector-effect="non-scaling-stroke"
           d="m 70.82,53.19 -1.93,-6.61 q -0.25,-0.89 -0.63,-0.04 -0.33,0.74 0.02,1.5 c 0.94,2.08 0.53,5.23 -0.39,7 q -0.23,0.43 -0.13,0.91 0.34,1.73 0.41,3.55 0.06,1.31 1.14,2.22"
           id="path10879" />
        <path
           stroke="#69713a"
           vector-effect="non-scaling-stroke"
           d="m 69.31,61.72 q 0.29,2.4 0.14,4.86 -0.18,3.2 -0.1,4.86 0.56,10.65 -0.02,21.31 -0.13,2.36 0.44,5.67"
           id="path10881" />
        <path
           stroke="#212013"
           vector-effect="non-scaling-stroke"
           d="m 69.77,98.42 q -1.02,-0.35 -1.66,-0.14 -0.62,0.2 -0.73,0.89 -0.23,1.5 0.32,2.56 0.21,0.4 0.11,0.83 l -0.43,2.06"
           id="path10883" />
        <path
           stroke="#927427"
           vector-effect="non-scaling-stroke"
           d="m 67.38,104.62 q -0.48,-1.57 -0.72,-1.48 a 2.18,1.77 73.4 0 0 -1,2.42 q 0.42,1.76 0.24,3.28 c -0.56,4.57 -0.55,9.4 -0.97,14.12 q -0.03,0.39 -0.39,0.22 -0.17,-0.07 -0.19,-0.26 -0.75,-6.08 -0.1,-11.96 0.31,-2.76 0.27,-5.34 -0.05,-2.88 -0.07,-5.68 c -0.01,-1.74 0.49,-3.3 0.27,-5.03 q -0.15,-1.12 0.12,-2.29 c 0.34,-1.54 -0.01,-3.34 0.02,-4.97 q 0.16,-8.21 0.23,-16.39"
           id="path10885" />
        <path
           stroke="#5a471f"
           vector-effect="non-scaling-stroke"
           d="m 45.41,138.66 c 0.45,1.75 1.99,4.58 4.18,3.88"
           id="path10887" />
        <path
           stroke="#5a471f"
           vector-effect="non-scaling-stroke"
           d="m 67.24,128.23 q 0.58,-1.21 -0.02,-2.09 -0.26,-0.39 -0.11,-0.83 l 0.39,-1.13"
           id="path10889" />
        <path
           stroke="#69713a"
           vector-effect="non-scaling-stroke"
           d="m 84.97,80.04 q -0.16,0.23 -0.03,0.44 3.87,6.1 7.67,12.25 0.74,1.21 0.66,3.89 -0.01,0.42 0.35,0.2 0.19,-0.11 0.27,-0.42"
           id="path10891" />
        <path
           stroke="#656f42"
           vector-effect="non-scaling-stroke"
           d="m 94.72,96.74 q 1.87,2.62 3.04,7.26 1.81,7.21 1.88,12.47 0.03,2.9 -0.61,6.53 -0.65,3.65 -1.47,6.48 -1.14,3.9 -3.59,7.83 c -3.46,5.55 -10.12,9.84 -15.7,11.74 q -2.92,1 -8.29,0.89 -0.51,-0.01 -0.58,-0.52 -0.52,-3.74 -0.4,-7.42 0.55,-16.09 0.53,-27.75 -0.01,-8.07 0.24,-15.83"
           id="path10893" />
        <path
           stroke="#8e712f"
           vector-effect="non-scaling-stroke"
           d="m 67.38,104.62 q 0.32,4.42 -0.33,8.95 c -0.25,1.76 0.38,3.06 0.28,4.77 -0.12,2.05 0.55,3.82 0.17,5.84"
           id="path10895" />
        <path
           stroke="#cb9b32"
           vector-effect="non-scaling-stroke"
           d="m 67.5,124.18 q -1.32,0.67 -1.39,1.82 -0.04,0.76 0.53,0.87 0.41,0.08 0.47,0.5 l 0.13,0.86"
           id="path10897" />
        <path
           stroke="#8e712f"
           vector-effect="non-scaling-stroke"
           d="m 67.24,128.23 q -0.61,10.17 0.18,20.44 0.04,0.53 -0.45,0.74 -1.42,0.58 -2.98,0.13 c -4.72,-1.36 -10.86,-3.33 -14.4,-7"
           id="path10899" />
        <path
           stroke="#cb9b32"
           vector-effect="non-scaling-stroke"
           d="m 49.59,142.54 q -1.5,-2.61 -4.18,-3.88"
           id="path10901" />
        <path
           stroke="#8e712f"
           vector-effect="non-scaling-stroke"
           d="m 45.41,138.66 q -1.06,-1.72 -2.28,-3.43 c -3.68,-5.14 -4.48,-11.41 -3.37,-17.69 a 1.35,1.34 1.2 0 1 1.15,-1.1 c 6.38,-0.85 9.95,-6.79 9.41,-12.99 q -0.57,-6.4 -7.61,-8.52"
           id="path10903" />
        <path
           stroke="#a29946"
           vector-effect="non-scaling-stroke"
           d="m 70.82,53.19 q -0.36,-0.14 -0.39,-0.17 a 0.51,0.5 16.5 0 0 -0.82,0.44 q 0.39,4.26 -0.3,8.26"
           id="path10905" />
        <path
           stroke="#8e712f"
           vector-effect="non-scaling-stroke"
           d="m 62.9,71.04 q -1.4,1.08 -2.4,1.07 -8.33,-0.13 -13.35,5.88 -1.66,2 -3.11,5.03 -1.03,2.17 -1.37,4.49 -0.32,2.21 -0.56,4.54"
           id="path10907" />
        <path
           stroke="#8e8e8d"
           vector-effect="non-scaling-stroke"
           d="M 56.94,17.98 Q 56.59,16.47 56.41,15.05 56.39,14.86 56.2,14.88 L 55.93,14.9 A 0.08,0.08 0 0 0 55.85,15 q 0.54,2.6 -0.27,4.68 -0.32,0.82 0.55,0.75 4.41,-0.33 8.58,0.03 a 0.88,0.86 -79 0 0 0.89,-0.61 l 0.09,-0.29 a 0.41,0.41 0 0 0 -0.38,-0.53 l -7.52,-0.34 a 0.92,0.91 84.5 0 1 -0.85,-0.71"
           id="path10909" />
        <path
           stroke="#8e8e8d"
           vector-effect="non-scaling-stroke"
           d="m 55.7348,27.9844 a 1.93,1.17 97.3 0 0 1.4057,-1.7657 1.93,1.17 97.3 0 0 -0.9153,-2.0631 1.93,1.17 97.3 0 0 -1.4057,1.7657 1.93,1.17 97.3 0 0 0.9153,2.0631"
           id="path10911" />
        <path
           stroke="#8e8e8d"
           vector-effect="non-scaling-stroke"
           d="m 64.8703,25.4613 a 0.72,0.72 0 0 0 -0.7061,-0.7337 l -3.8993,-0.0749 a 0.72,0.72 0 0 0 -0.7336,0.7061 l -0.0016,0.0799 a 0.72,0.72 0 0 0 0.7061,0.7337 l 3.8993,0.0749 a 0.72,0.72 0 0 0 0.7336,-0.7061 l 0.0016,-0.0799"
           id="path10913" />
        <path
           stroke="#8e8e8d"
           vector-effect="non-scaling-stroke"
           d="m 63.8462,32.5303 a 2.97,0.85 2.9 0 0 -2.9232,-0.9992 2.97,0.85 2.9 0 0 -3.0092,0.6986 2.97,0.85 2.9 0 0 2.9232,0.9992 2.97,0.85 2.9 0 0 3.0092,-0.6986"
           id="path10915" />
        <path
           stroke="#8e8e8d"
           vector-effect="non-scaling-stroke"
           d="m 56.3297,37.7249 a 2.21,1.1 93.9 0 0 1.2478,-2.1301 2.21,1.1 93.9 0 0 -0.9472,-2.2797 2.21,1.1 93.9 0 0 -1.2478,2.1301 2.21,1.1 93.9 0 0 0.9472,2.2797"
           id="path10917" />
        <path
           stroke="#cbb891"
           vector-effect="non-scaling-stroke"
           d="m 57.4906,151.7002 a 1.67,0.4 21.8 0 0 -1.4021,-0.9916 1.67,0.4 21.8 0 0 -1.6991,-0.2488 1.67,0.4 21.8 0 0 1.4021,0.9916 1.67,0.4 21.8 0 0 1.6991,0.2488"
           id="path10919" />
        <path
           stroke="#5e4a17"
           vector-effect="non-scaling-stroke"
           d="m 67.3663,69.9992 a 1.71,0.43 91.8 0 0 0.4835,-1.6957 1.71,0.43 91.8 0 0 -0.3761,-1.7227 1.71,0.43 91.8 0 0 -0.4835,1.6957 1.71,0.43 91.8 0 0 0.3761,1.7227"
           id="path10921" />
        <path
           stroke="#5e4a17"
           vector-effect="non-scaling-stroke"
           d="m 66.8858,86.5094 a 3.68,0.89 91 0 0 0.9541,-3.6639 3.68,0.89 91 0 0 -0.8257,-3.6949 3.68,0.89 91 0 0 -0.9541,3.6639 3.68,0.89 91 0 0 0.8257,3.6949"
           id="path10923" />
        <path
           stroke="#69713a"
           vector-effect="non-scaling-stroke"
           d="m 72.79,97.55 0.75,0.75 a 0.25,0.25 0 0 0 0.36,-0.01 l 2.55,-2.57 a 8.02,0.67 -45.2 0 0 5.18,-6.16 L 81.47,89.4 a 8.02,0.67 -45.2 0 0 -6.12,5.22 l -2.56,2.57 a 0.25,0.25 0 0 0 0,0.36"
           id="path10925" />
        <path
           stroke="#656f42"
           vector-effect="non-scaling-stroke"
           d="m 88.29,104.49 c -5.63,3.07 -11.19,8.16 -15.8,12.63 a 0.29,0.28 -53.7 0 0 0.07,0.46 l 0.29,0.14 a 0.96,0.96 0 0 0 1.05,-0.11 q 7.9,-6.36 14.71,-12.67 1.64,-1.52 -0.32,-0.45"
           id="path10927" />
        <path
           stroke="#69713a"
           vector-effect="non-scaling-stroke"
           d="m 85.57,125.59 q -6.66,3.65 -12.37,9.1 a 0.31,0.31 0 0 0 0.16,0.53 l 0.73,0.13 a 0.39,0.38 32.1 0 0 0.29,-0.06 q 6.76,-4.66 11.65,-9.06 2.54,-2.28 -0.46,-0.64"
           id="path10929" />
        <path
           stroke="#8e712f"
           vector-effect="non-scaling-stroke"
           d="m 54.29,106.19 c -0.29,1.58 0.34,2.84 0.16,4.43 -0.37,3.33 -0.29,8.53 -4.89,8.41 q -0.8,-0.02 -0.22,0.52 c 2.51,2.35 4.9,-1.21 5.61,-3.34 q 1.59,-4.83 0.62,-9.88 -0.33,-1.76 0.18,-3.64 0.17,-0.62 0.81,-0.57 l 0.97,0.07 q 0.68,0.06 0.08,-0.27 c -1.18,-0.62 -2.51,0.02 -2.76,1.32 q -0.3,1.5 -0.56,2.95"
           id="path10931" />
      </g>
      <path
         fill="#1d1d1b"
         d="M -6.5461355,-67.418122 H 105.45386 V 121.58188 H -6.5461355 Z m 109.4199955,3.34 a 0.53,0.53 0 0 0 -0.53,-0.53 H 23.483865 a 0.53,0.53 0 0 0 -0.53,0.53 V 118.50188 a 0.53,0.53 0 0 0 0.53,0.53 h 78.859995 a 0.53,0.53 0 0 0 0.53,-0.53 z m -91.339996,14.48 -8.7999995,0.13 q -0.99,0.02 -1.01,1.02 l -0.01,0.48 a 0.95,0.94 0.9 0 0 0.94,0.96 l 11.3099995,0.15 a 0.58,0.58 0 0 0 0.590001,-0.54 q 0.459999,-6.18 -0.240001,-11.69 -0.04,-0.35 -0.379999,-0.47 -0.73,-0.26 -1.330001,0.44 a 1.14,1.14 0 0 0 -0.28,0.72 l -0.15,8.15 q -0.01,0.64 -0.64,0.65 z m 3.148601,16.5187 a 0.59,0.59 0 0 0 -0.591001,-0.589 l -11.7599995,0.0206 a 0.59,0.59 0 0 0 -0.589,0.591 l 0.0028,1.6 a 0.59,0.59 0 0 0 0.591,0.589 l 11.7599995,-0.0206 a 0.59,0.59 0 0 0 0.589,-0.591 z m -8.2186005,23.9013 q -0.86,-0.35 0,-0.68 l 7.4700005,-2.92 q 0.55,-0.21 0.69,-0.79 0.15,-0.6 -0.04,-1.17 a 0.9,0.85 89.4 0 0 -0.520001,-0.54 l -11.8999995,-4.59 q -0.38,-0.15 -0.4,0.26 l -0.06,1.54 q -0.03,0.68 0.61,0.91 l 7.13,2.54 q 0.8899995,0.32 0.03,0.7 -3.3,1.45 -6.86,2.74 -0.52,0.19 -0.76,0.67 c -0.48,0.94 -0.12,1.93 0.89,2.29 q 3.82,1.37 6.76,2.66 0.7700005,0.33 -0.01,0.63 -3.53,1.39 -7.04,2.59 -0.74,0.26 -0.74,1.05 0,0.03 0,1.61 0,0.81 0.75,0.52 l 9.9299995,-3.88 q 4.81,-1.88 0.01,-3.79 z m 5.7400005,23.77 -0.02,7.24 a 1.87,1.91 61.3 0 1 -0.32,1.05 q -0.16,0.24 -0.41,0.39 -0.510001,0.3 -0.56,0.88 -0.07,0.75 0.41,1.3 0.26,0.3 0.66,0.29 2.51,-0.1 2.61,-2.72 0.19,-5.03 0.01,-9.27 -0.11,-2.47 -2.58,-2.46 l -2.6700005,0.02 q -2.61,0.02 -2.62,2.64 v 8.19 q 0,0.57 -0.57,0.54 l -1.45,-0.08 q -0.73,-0.04 -0.74,-0.78 l -0.02,-6.96 q 0,-0.51 0.46,-0.74 0.66,-0.32 0.75,-1.13 a 1.32,1.32 0 0 0 -1.57,-1.45 q -1.77,0.35 -1.81,2.29 -0.1,4.5 -0.02,8.88 0.05,2.39 2.44,2.39 l 2.54,-0.01 q 2.4,0 2.41,-2.4 l 0.03,-8.07 q 0,-0.75 0.75,-0.76 l 1.5500005,-0.01 q 0.74,-0.01 0.74,0.74 z m 2.456299,24.625 a 0.82,0.82 0 0 0 -0.8257,-0.8143 l -11.2596995,0.0786 a 0.82,0.82 0 0 0 -0.8143,0.8257 l 0.0071,1.02 a 0.82,0.82 0 0 0 0.8257,0.8143 l 11.2596995,-0.0786 a 0.82,0.82 0 0 0 0.8143,-0.8257 z m -10.6762995,21.325 a 0.45,0.45 0 0 1 0.45,-0.45 l 9.7899995,0.11 a 0.45,0.45 0 0 0 0.46,-0.45 l 0.02,-1.97 a 0.45,0.45 0 0 0 -0.45,-0.46 l -9.8199995,0.01 a 0.45,0.45 0 0 1 -0.45,-0.44 l -0.08,-5.27 a 0.45,0.45 0 0 0 -0.41,-0.44 l -1.23,-0.14 a 0.45,0.45 0 0 0 -0.5,0.45 l -0.06,14.38 a 0.45,0.45 0 0 0 0.47,0.45 l 1.34,-0.07 a 0.45,0.45 0 0 0 0.43,-0.45 z m 0,22.28 a 0.47,0.47 0 0 1 0.47,-0.47 h 9.7300005 a 0.47,0.47 0 0 0 0.469999,-0.46 l 0.05,-2.08 a 0.47,0.47 0 0 0 -0.480001,-0.48 l -9.7599995,0.09 a 0.47,0.47 0 0 1 -0.47,-0.47 l -0.04,-5.04 a 0.47,0.47 0 0 0 -0.43,-0.47 l -1.3,-0.11 a 0.47,0.47 0 0 0 -0.51,0.47 l -0.01,14.07 a 0.47,0.47 0 0 0 0.48,0.47 l 1.33,-0.01 a 0.47,0.47 0 0 0 0.46,-0.47 z m 2.71,24.470002 a 0.44,0.44 0 0 1 -0.42,0.43 l -1.86,0.1 a 0.44,0.44 0 0 1 -0.46,-0.44 l -0.03,-9.510002 a 0.44,0.44 0 0 0 -0.4,-0.44 l -1.33,-0.12 a 0.44,0.44 0 0 0 -0.48,0.44 v 12.430002 a 0.44,0.44 0 0 0 0.44,0.44 l 12.0500005,0.01 a 0.44,0.44 0 0 0 0.44,-0.44 l -0.05,-12.440002 a 0.44,0.44 0 0 0 -0.43,-0.43 l -1.53,-0.02 a 0.44,0.44 0 0 0 -0.440001,0.44 l 0.01,9.640002 a 0.44,0.44 0 0 1 -0.45,0.44 l -2.3900005,-0.08 a 0.44,0.44 0 0 1 -0.43,-0.44 l -0.01,-5.31 a 0.44,0.44 0 0 0 -0.4,-0.43 l -1.2,-0.1 a 0.44,0.44 0 0 0 -0.47,0.42 z"
         id="path10935" />
      <path
         fill="#ffffff"
         d="m 102.87386,118.50188 a 0.53,0.53 0 0 1 -0.53,0.53 H 23.483865 a 0.53,0.53 0 0 1 -0.53,-0.53 V -64.078122 a 0.53,0.53 0 0 1 0.53,-0.53 h 78.859995 a 0.53,0.53 0 0 1 0.53,0.53 z M 58.543865,3.841878 l -2.190001,-0.22 q -8.96,-1.21 -14.81,3.8 -7.44,6.39 -5.98,17.21 l 0.600001,2.88 q 3.36,1.65 5.02,4.23 c 0.8,1.25 0.41,2.4 0.92,3.72 0.77,1.97 -0.24,6.09 -1.25,7.92 q -1.17,2.11 -3.08,3.06 c -2.57,1.28 -5.74,3.02 -5.98,6.27 -0.32,4.42 -0.19,8.94 1.63,13.01 q 3.1,6.93 7.26,10.97 3.77,3.65 10.44,5.82 0.869999,0.28 1.299999,1.08 a 1.32,1.32 0 0 0 0.710001,0.61 q 3.03,1.1 6.33,1.38 0.5,0.04 0.51,0.54 0.22,9.98 1.55,19.930002 0.01,0.1 0.1,0.09 l 0.29,-0.01 q 0.19,0 0.2,-0.2 l 0.69,-18.860002 q 0.03,-0.86 0.9,-0.86 4.59,0.03 9.72,-1.63 c 2.79,-0.9 4.73,-3.08 7.22,-4.52 4.58,-2.64 9.11,-7.67 11.05,-12.22 q 5.08,-11.91 2.06,-26.5 -1.3,-6.22 -3.78,-11.75 a 1.23,1.13 69.4 0 0 -1.400001,-0.71 q -0.14,0.04 -0.4,0.44 -0.41,0.12 -0.83,-0.34 0.47,-3.35 -1.83,-6.9 -2.77,-4.27 -5.53,-8.54 -0.56,-0.87 -1.56,-0.92 -0.63,-0.04 -0.76,-0.57 0.25,-0.41 0.28,-0.8 0.02,-0.32 -0.16,-0.59 -2.64,-4.05 -5.12,-8.18 c -1.5,-2.5 -1.86,-5.36 -3.29,-7.82 q -1.48,-2.55 -2.28,-5.43 c -1.04,-3.76 -2.7,-7.62 -3.12,-11.37 -0.33,-2.91 -0.959999,-5.71 -1.05,-8.6 -0.12,-4.01 -1.159999,-7.73 -1.2,-11.85 q -0.08,-6.88 -0.16,-13.52 -0.02,-1.37 -0.54,-2.64 -0.4,-0.98 -0.39,0.07 0.05,18.61 -0.93,36.64 -0.23,4.08 -0.59,7.91 -0.34,3.56 -0.16,7.91 0.21,5.02 -0.409999,10.06 z m -8.150001,-53.28 q -0.349999,-1.51 -0.53,-2.93 -0.02,-0.19 -0.209999,-0.17 l -0.27,0.02 a 0.08,0.08 0 0 0 -0.08,0.1 q 0.54,2.6 -0.270001,4.68 -0.32,0.82 0.55,0.75 4.41,-0.33 8.58,0.03 a 0.86,0.88 11 0 0 0.89,-0.61 l 0.09,-0.29 a 0.41,0.41 0 0 0 -0.379999,-0.53 l -7.52,-0.34 a 0.92,0.91 84.5 0 1 -0.850001,-0.71 z m -1.205199,10.0044 a 1.17,1.93 7.3 0 0 1.4057,-1.7657 1.17,1.93 7.3 0 0 -0.9153,-2.0631 1.17,1.93 7.3 0 0 -1.405701,1.7657 1.17,1.93 7.3 0 0 0.915301,2.0631 z m 9.1355,-2.5231 a 0.72,0.72 0 0 0 -0.706101,-0.7337 l -3.8993,-0.0749 a 0.72,0.72 0 0 0 -0.7336,0.7061 l -0.0016,0.0799 a 0.72,0.72 0 0 0 0.7061,0.7337 l 3.8993,0.0749 a 0.72,0.72 0 0 0 0.7336,-0.7061 z m -1.0241,7.069 a 2.97,0.85 2.9 0 0 -2.9232,-0.9992 2.97,0.85 2.9 0 0 -3.0092,0.6986 2.97,0.85 2.9 0 0 2.9232,0.9992 2.97,0.85 2.9 0 0 3.0092,-0.6986 z m -7.5165,5.1946 a 1.1,2.21 3.9 0 0 1.2478,-2.1301 1.1,2.21 3.9 0 0 -0.947201,-2.2797 1.1,2.21 3.9 0 0 -1.247799,2.1301 1.1,2.21 3.9 0 0 0.9472,2.2797 z m 1.1609,113.9753 a 1.67,0.4 21.8 0 0 -1.4021,-0.9916 1.67,0.4 21.8 0 0 -1.6991,-0.2488 1.67,0.4 21.8 0 0 1.402099,0.9916 1.67,0.4 21.8 0 0 1.699101,0.2488 z"
         id="path10937" />
      <path
         fill="#ffffff"
         d="m 12.173864,-50.248122 0.150001,-8.15 a 1.14,1.14 0 0 1 0.279999,-0.72 q 0.600001,-0.7 1.33,-0.44 0.34,0.12 0.38,0.47 0.7,5.51 0.24,11.69 a 0.58,0.58 0 0 1 -0.59,0.54 l -11.3099995,-0.15 a 0.95,0.94 0.9 0 1 -0.94,-0.96 l 0.01,-0.48 q 0.02,-1 1.01,-1.02 l 8.7999995,-0.13 q 0.63,-0.01 0.64,-0.65 z"
         id="path10939" />
      <path
         fill="#25220b"
         d="m 77.663864,12.051878 q -3.12,-5.11 -6.63,-10.03 -3.38,-4.75 -6.76,-16.25 l -1.93,-6.61 q -0.25,-0.89 -0.63,-0.04 -0.33,0.74 0.02,1.5 c 0.94,2.08 0.53,5.23 -0.39,7 q -0.23,0.43 -0.13,0.91 0.34,1.73 0.41,3.55 0.06,1.31 1.14,2.22 0.29,2.4 0.14,4.86 -0.18,3.2 -0.1,4.86 0.56,10.65 -0.02,21.31 -0.129999,2.36 0.44,5.67 -1.019999,-0.35 -1.66,-0.14 -0.62,0.2 -0.73,0.89 -0.23,1.5 0.32,2.56 0.21,0.4 0.11,0.83 l -0.43,2.06 q -0.48,-1.57 -0.72,-1.48 a 2.18,1.77 73.4 0 0 -1,2.42 q 0.42,1.76 0.24,3.28 c -0.56,4.57 -0.55,9.4 -0.97,14.12 q -0.03,0.39 -0.39,0.22 -0.17,-0.07 -0.19,-0.26 -0.75,-6.08 -0.1,-11.96 0.31,-2.76 0.27,-5.34 -0.05,-2.88 -0.07,-5.68 c -0.01,-1.74 0.49,-3.3 0.27,-5.03 q -0.15,-1.12 0.12,-2.29 c 0.34,-1.54 -0.01,-3.34 0.02,-4.97 q 0.16,-8.21 0.23,-16.39 0.62,-5.04 0.41,-10.06 -0.18,-4.35 0.16,-7.91 0.36,-3.83 0.59,-7.91 0.98,-18.03 0.93,-36.64 -0.01,-1.05 0.39,-0.07 0.52,1.27 0.54,2.64 0.08,6.64 0.16,13.52 c 0.04,4.12 1.08,7.84 1.2,11.85 0.09,2.89 0.72,5.69 1.05,8.6 0.42,3.75 2.08,7.61 3.12,11.37 q 0.8,2.88 2.28,5.43 c 1.430001,2.46 1.790001,5.32 3.290001,7.82 q 2.48,4.13 5.12,8.18 0.18,0.27 0.16,0.59 -0.03,0.39 -0.280001,0.8 z m -16.8437,-9.4708 a 0.43,1.71 1.8 0 0 0.483501,-1.6957 0.43,1.71 1.8 0 0 -0.3761,-1.7227 0.43,1.71 1.8 0 0 -0.4835,1.6957 0.43,1.71 1.8 0 0 0.376099,1.7227 z m -0.4805,16.5102 a 0.89,3.68 1 0 0 0.9541,-3.6639 0.89,3.68 1 0 0 -0.8257,-3.6949 0.89,3.68 1 0 0 -0.9541,3.6639 0.89,3.68 1 0 0 0.8257,3.6949 z"
         id="path10941" />
      <path
         fill="#1d1d1b"
         d="m 51.243864,-48.728122 7.520001,0.34 a 0.41,0.41 0 0 1 0.379999,0.53 l -0.09,0.29 a 0.86,0.88 11 0 1 -0.89,0.61 q -4.17,-0.36 -8.579999,-0.03 -0.870001,0.07 -0.550001,-0.75 0.810001,-2.08 0.270001,-4.68 a 0.08,0.08 0 0 1 0.08,-0.1 l 0.27,-0.02 q 0.19,-0.02 0.21,0.17 0.18,1.42 0.53,2.93 a 0.92,0.91 84.5 0 0 0.849999,0.71 z"
         id="path10943" />
      <ellipse
         fill="#1d1d1b"
         cx="-47.294266"
         cy="-43.779293"
         transform="rotate(97.3)"
         rx="1.9299999"
         ry="1.17"
         id="ellipse10945" />
      <rect
         fill="#1d1d1b"
         x="52.167927"
         y="-43.788799"
         transform="rotate(1.1)"
         width="5.3400002"
         height="1.52"
         rx="0.72000003"
         id="rect10947" />
      <ellipse
         fill="#1d1d1b"
         cx="52.4916"
         cy="-37.742161"
         transform="rotate(2.9)"
         rx="2.97"
         ry="0.85000002"
         id="ellipse10949" />
      <ellipse
         fill="#1d1d1b"
         cx="-35.22052"
         cy="-47.648674"
         transform="rotate(93.9)"
         rx="2.21"
         ry="1.1"
         id="ellipse10951" />
      <rect
         fill="#ffffff"
         x="1.8001702"
         y="-33.643738"
         transform="rotate(-0.1)"
         width="12.94"
         height="2.78"
         rx="0.58999997"
         id="rect10953" />
      <path
         fill="#977122"
         d="m 64.273864,-14.228122 q -0.36,-0.14 -0.39,-0.17 a 0.51,0.5 16.5 0 0 -0.82,0.44 q 0.390001,4.26 -0.299999,8.26 -1.08,-0.91 -1.14,-2.22 -0.07,-1.82 -0.41,-3.55 -0.1,-0.48 0.13,-0.91 c 0.92,-1.77 1.329999,-4.92 0.39,-7 q -0.35,-0.76 -0.02,-1.5 0.38,-0.85 0.63,0.04 z"
         id="path10955" />
      <path
         fill="#ffffff"
         d="m 6.4638645,-9.178122 5.9399995,2.35 q 4.800001,1.91 -0.01,3.79 l -9.9299995,3.88 q -0.75,0.29 -0.75,-0.52 0,-1.58 0,-1.61 0,-0.79 0.74,-1.05 3.51,-1.2 7.04,-2.59 0.7800005,-0.3 0.01,-0.63 -2.94,-1.29 -6.76,-2.66 c -1.01,-0.36 -1.37,-1.35 -0.89,-2.29 q 0.24,-0.48 0.76,-0.67 3.56,-1.29 6.86,-2.74 0.8599995,-0.38 -0.03,-0.7 l -7.13,-2.54 q -0.64,-0.23 -0.61,-0.91 l 0.06,-1.54 q 0.02,-0.41 0.4,-0.26 l 11.8999995,4.59 a 0.9,0.85 89.4 0 1 0.52,0.54 q 0.190001,0.57 0.04,1.17 -0.14,0.58 -0.69,0.79 l -7.4699995,2.92 q -0.86,0.33 0,0.68 z"
         id="path10957" />
      <path
         fill="#acc069"
         d="m 64.273864,-14.228122 q 3.38,11.5 6.76,16.25 3.51,4.92 6.63,10.03 0.13,0.53 0.76,0.57 -0.16,0.23 -0.03,0.44 3.87,6.1 7.67,12.25 0.74,1.21 0.66,3.89 -0.01,0.42 0.35,0.2 0.19,-0.11 0.27,-0.42 0.42,0.46 0.83,0.34 1.87,2.62 3.04,7.26 1.81,7.21 1.88,12.47 0.03,2.9 -0.61,6.53 -0.65,3.65 -1.47,6.48 -1.14,3.9 -3.59,7.83 c -3.46,5.55 -10.12,9.84 -15.7,11.74 q -2.92,1 -8.29,0.89 -0.51,-0.01 -0.58,-0.52 -0.52,-3.74 -0.4,-7.42 0.55,-16.09 0.53,-27.75 -0.01,-8.07 0.24,-15.83 -0.57,-3.31 -0.44,-5.67 0.58,-10.66 0.02,-21.31 -0.08,-1.66 0.1,-4.86 0.15,-2.46 -0.14,-4.86 0.69,-4 0.3,-8.26 a 0.51,0.5 16.5 0 1 0.82,-0.44 q 0.03,0.03 0.39,0.17 z m 1.97,44.36 0.75,0.75 a 0.25,0.25 0 0 0 0.36,-0.01 l 2.55,-2.57 a 0.67,8.02 44.8 0 0 5.18,-6.16 l -0.16,-0.16 a 0.67,8.02 44.8 0 0 -6.12,5.22 l -2.56,2.57 a 0.25,0.25 0 0 0 0,0.36 z m 15.5,6.94 c -5.63,3.07 -11.19,8.16 -15.8,12.63 a 0.28,0.29 36.3 0 0 0.07,0.46 l 0.29,0.14 a 0.96,0.96 0 0 0 1.05,-0.11 q 7.9,-6.36 14.71,-12.67 1.64,-1.52 -0.32,-0.45 z m -2.72,21.1 q -6.66,3.65 -12.37,9.1 a 0.31,0.31 0 0 0 0.16,0.53 l 0.73,0.13 a 0.39,0.38 32.1 0 0 0.29,-0.06 q 6.76,-4.66 11.65,-9.06 2.540001,-2.28 -0.46,-0.64 z"
         id="path10959" />
      <ellipse
         fill="#977122"
         cx="-1.0406458"
         cy="-60.871216"
         transform="rotate(91.8)"
         rx="1.71"
         ry="0.43000001"
         id="ellipse10961" />
      <path
         fill="#1d1d1b"
         d="m 56.353864,3.621878 q -1.399999,1.08 -2.399999,1.07 -8.33,-0.13 -13.350001,5.88 -1.659999,2 -3.11,5.03 -1.03,2.17 -1.369999,4.49 -0.32,2.21 -0.560001,4.54 -1.46,-10.82 5.980001,-17.21 5.85,-5.01 14.809999,-3.8 z"
         id="path10963" />
      <path
         fill="#fec542"
         d="m 56.353864,3.621878 2.190001,0.22 q -0.07,8.18 -0.230001,16.39 c -0.03,1.63 0.32,3.43 -0.02,4.97 q -0.27,1.17 -0.120001,2.29 c 0.22,1.73 -0.28,3.29 -0.269999,5.03 q 0.02,2.8 0.07,5.68 0.04,2.58 -0.269999,5.34 -0.65,5.88 0.1,11.96 0.02,0.19 0.19,0.26 0.36,0.17 0.39,-0.22 c 0.42,-4.72 0.41,-9.55 0.97,-14.12 q 0.18,-1.52 -0.24,-3.28 a 2.18,1.77 73.4 0 1 1,-2.42 q 0.24,-0.09 0.72,1.48 0.32,4.42 -0.33,8.95 c -0.25,1.76 0.38,3.06 0.28,4.77 -0.12,2.05 0.55,3.82 0.170001,5.84 q -1.32,0.67 -1.390001,1.82 -0.04,0.76 0.530001,0.87 0.409999,0.08 0.469999,0.5 l 0.13,0.86 q -0.61,10.17 0.180001,20.44 0.04,0.53 -0.450001,0.74 -1.42,0.58 -2.979999,0.13 c -4.72,-1.36 -10.86,-3.33 -14.4,-7 q -1.5,-2.61 -4.18,-3.88 -1.06,-1.72 -2.28,-3.43 c -3.68,-5.14 -4.48,-11.41 -3.37,-17.69 a 1.35,1.34 1.2 0 1 1.15,-1.1 c 6.38,-0.85 9.949999,-6.79 9.41,-12.99 q -0.57,-6.4 -7.61,-8.52 l -0.6,-2.88 q 0.24,-2.33 0.56,-4.54 0.34,-2.32 1.37,-4.49 1.45,-3.03 3.11,-5.03 5.02,-6.01 13.35,-5.88 1,0.01 2.399998,-1.07 z m -8.61,35.15 c -0.289999,1.58 0.340001,2.84 0.16,4.43 -0.37,3.33 -0.29,8.53 -4.89,8.41 q -0.8,-0.02 -0.22,0.52 c 2.51,2.35 4.9,-1.21 5.61,-3.34 q 1.59,-4.83 0.62,-9.88 -0.33,-1.76 0.18,-3.64 0.17,-0.62 0.81,-0.57 l 0.97,0.07 q 0.68,0.06 0.08,-0.27 c -1.18,-0.62 -2.51,0.02 -2.76,1.32 q -0.3,1.5 -0.56,2.95 z"
         id="path10965" />
      <path
         fill="#ffffff"
         d="m 12.203865,14.591878 q 0,-0.75 -0.74,-0.74 l -1.5500005,0.01 q -0.75,0.01 -0.75,0.76 l -0.03,8.07 q -0.01,2.4 -2.41,2.4 l -2.54,0.01 q -2.39,0 -2.44,-2.39 -0.08,-4.38 0.02,-8.88 0.04,-1.94 1.81,-2.29 a 1.32,1.32 0 0 1 1.57,1.45 q -0.09,0.81 -0.75,1.13 -0.46,0.23 -0.46,0.74 l 0.02,6.96 q 0.01,0.74 0.74,0.78 l 1.45,0.08 q 0.57,0.03 0.57,-0.54 v -8.19 q 0.01,-2.62 2.62,-2.64 l 2.6699995,-0.02 q 2.47,-0.01 2.58,2.46 0.18,4.24 -0.01,9.27 -0.1,2.62 -2.61,2.72 -0.4,0.01 -0.66,-0.29 -0.48,-0.55 -0.41,-1.3 0.05,-0.58 0.56,-0.88 0.25,-0.15 0.41,-0.39 a 1.87,1.91 61.3 0 0 0.32,-1.05 z"
         id="path10967" />
      <ellipse
         fill="#977122"
         cx="14.355338"
         cy="-60.663639"
         transform="rotate(91)"
         rx="3.6800001"
         ry="0.88999999"
         id="ellipse10969" />
      <path
         fill="#25220b"
         d="m 78.423864,12.621878 q 1,0.05 1.56,0.92 2.76,4.27 5.53,8.54 2.3,3.55 1.83,6.9 -0.08,0.31 -0.27,0.42 -0.36,0.22 -0.349999,-0.2 0.08,-2.68 -0.66,-3.89 -3.8,-6.15 -7.67,-12.25 -0.13,-0.21 0.03,-0.44 z"
         id="path10971" />
      <path
         fill="#25220b"
         d="m 66.243864,30.131878 a 0.25,0.25 0 0 1 0,-0.36 l 2.560001,-2.57 a 0.67,8.02 44.8 0 1 6.12,-5.22 l 0.16,0.16 a 0.67,8.02 44.8 0 1 -5.18,6.16 l -2.55,2.57 a 0.25,0.25 0 0 1 -0.36,0.01 z"
         id="path10973" />
      <path
         fill="#1d1d1b"
         d="m 36.163865,27.511878 q 7.04,2.12 7.61,8.52 c 0.539999,6.2 -3.030001,12.14 -9.410001,12.99 a 1.35,1.34 1.2 0 0 -1.15,1.1 c -1.11,6.28 -0.31,12.55 3.37,17.69 q 1.22,1.71 2.28,3.43 c 0.45,1.75 1.99,4.58 4.18,3.88 3.54,3.67 9.68,5.64 14.4,7 q 1.56,0.45 2.98,-0.13 0.49,-0.21 0.450001,-0.74 -0.790001,-10.27 -0.180001,-20.44 0.58,-1.21 -0.02,-2.09 -0.26,-0.39 -0.11,-0.83 l 0.390001,-1.13 c 0.379999,-2.02 -0.290001,-3.79 -0.170001,-5.84 0.1,-1.71 -0.53,-3.01 -0.28,-4.77 q 0.650001,-4.53 0.33,-8.95 l 0.430001,-2.06 q 0.1,-0.43 -0.11,-0.83 -0.55,-1.06 -0.32,-2.56 0.11,-0.69 0.73,-0.89 0.64,-0.21 1.66,0.14 -0.25,7.76 -0.24,15.83 0.02,11.66 -0.53,27.75 -0.12,3.68 0.4,7.42 0.07,0.51 0.58,0.52 5.37,0.11 8.29,-0.89 c 5.58,-1.9 12.239999,-6.19 15.7,-11.74 q 2.45,-3.93 3.59,-7.83 0.82,-2.83 1.47,-6.48 0.64,-3.63 0.61,-6.53 -0.07,-5.26 -1.88,-12.47 -1.17,-4.64 -3.04,-7.26 0.26,-0.4 0.4,-0.44 a 1.23,1.13 69.4 0 1 1.4,0.71 q 2.48,5.53 3.78,11.75 3.02,14.59 -2.06,26.5 c -1.94,4.55 -6.47,9.58 -11.05,12.22 -2.49,1.44 -4.43,3.62 -7.22,4.52 q -5.13,1.66 -9.72,1.63 -0.87,0 -0.9,0.86 l -0.69,18.860002 q -0.01,0.2 -0.2,0.2 l -0.29,0.01 q -0.09,0.01 -0.1,-0.09 -1.33,-9.950002 -1.55,-19.930002 -0.01,-0.5 -0.51,-0.54 -3.3,-0.28 -6.33,-1.38 a 1.32,1.32 0 0 1 -0.71,-0.61 q -0.43,-0.8 -1.3,-1.08 -6.67,-2.17 -10.44,-5.82 -4.16,-4.04 -7.26,-10.97 c -1.82,-4.07 -1.95,-8.59 -1.63,-13.01 0.24,-3.25 3.41,-4.99 5.98,-6.27 q 1.91,-0.95 3.08,-3.06 c 1.01,-1.83 2.02,-5.95 1.25,-7.92 -0.51,-1.32 -0.12,-2.47 -0.92,-3.72 q -1.66,-2.58 -5.02,-4.23 z"
         id="path10975" />
      <path
         fill="#1d1d1b"
         d="m 47.743864,38.771878 q 0.26,-1.45 0.560001,-2.95 c 0.25,-1.3 1.58,-1.94 2.759999,-1.32 q 0.600001,0.33 -0.08,0.27 l -0.97,-0.07 q -0.64,-0.05 -0.81,0.57 -0.51,1.88 -0.18,3.64 0.969999,5.05 -0.62,9.88 c -0.71,2.13 -3.1,5.69 -5.61,3.34 q -0.58,-0.54 0.22,-0.52 c 4.6,0.12 4.519999,-5.08 4.89,-8.41 0.18,-1.59 -0.45,-2.85 -0.16,-4.43 z"
         id="path10977" />
      <path
         fill="#1d1d1b"
         d="m 65.943864,49.701878 c 4.61,-4.47 10.17,-9.56 15.8,-12.63 q 1.96,-1.07 0.32,0.45 -6.81,6.31 -14.71,12.67 a 0.96,0.96 0 0 1 -1.05,0.11 l -0.29,-0.14 a 0.28,0.29 36.3 0 1 -0.07,-0.46 z"
         id="path10979" />
      <rect
         fill="#ffffff"
         x="1.4860066"
         y="38.498249"
         transform="rotate(-0.4)"
         width="12.9"
         height="2.6600001"
         rx="0.81999999"
         id="rect10981" />
      <path
         fill="#ffffff"
         d="m 3.9838645,60.541878 -0.04,5.26 a 0.45,0.45 0 0 1 -0.43,0.45 l -1.34,0.07 a 0.45,0.45 0 0 1 -0.47,-0.45 l 0.06,-14.38 a 0.45,0.45 0 0 1 0.5,-0.45 l 1.23,0.14 a 0.45,0.45 0 0 1 0.41,0.44 l 0.08,5.27 a 0.45,0.45 0 0 0 0.45,0.44 l 9.8200005,-0.01 a 0.45,0.45 0 0 1 0.45,0.46 l -0.02,1.97 a 0.45,0.45 0 0 1 -0.460001,0.45 l -9.7899995,-0.11 a 0.45,0.45 0 0 0 -0.45,0.45 z"
         id="path10983" />
      <path
         fill="#977122"
         d="m 60.953865,56.761878 -0.390001,1.13 q -0.15,0.44 0.11,0.83 0.6,0.88 0.02,2.09 l -0.13,-0.86 q -0.06,-0.42 -0.469999,-0.5 -0.57,-0.11 -0.530001,-0.87 0.07,-1.15 1.390001,-1.82 z"
         id="path10985" />
      <path
         fill="#25220b"
         d="m 79.023864,58.171878 q 3,-1.64 0.46,0.64 -4.89,4.4 -11.65,9.06 a 0.39,0.38 32.1 0 1 -0.29,0.06 l -0.73,-0.13 a 0.31,0.31 0 0 1 -0.16,-0.53 q 5.71,-5.45 12.37,-9.1 z"
         id="path10987" />
      <path
         fill="#977122"
         d="m 38.863864,71.241878 q 2.68,1.27 4.18,3.88 c -2.19,0.7 -3.73,-2.13 -4.18,-3.88 z"
         id="path10989" />
      <path
         fill="#ffffff"
         d="m 3.9838645,82.821878 -0.01,5.04 a 0.47,0.47 0 0 1 -0.46,0.47 l -1.33,0.01 a 0.47,0.47 0 0 1 -0.48,-0.47 l 0.01,-14.07 a 0.47,0.47 0 0 1 0.51,-0.47 l 1.3,0.11 a 0.47,0.47 0 0 1 0.43,0.47 l 0.04,5.04 a 0.47,0.47 0 0 0 0.47,0.47 l 9.7599995,-0.09 a 0.47,0.47 0 0 1 0.48,0.48 l -0.05,2.08 a 0.47,0.47 0 0 1 -0.47,0.46 H 4.4538645 a 0.47,0.47 0 0 0 -0.47,0.47 z"
         id="path10991" />
      <ellipse
         fill="#977122"
         cx="76.930832"
         cy="59.335579"
         transform="rotate(21.8)"
         rx="1.67"
         ry="0.40000001"
         id="ellipse10993" />
      <path
         fill="#ffffff"
         d="m 6.6938645,107.29188 0.16,-5.41 a 0.44,0.44 0 0 1 0.47,-0.42 l 1.2,0.1 a 0.44,0.44 0 0 1 0.4,0.43 l 0.01,5.31 a 0.44,0.44 0 0 0 0.43,0.44 l 2.3900005,0.08 a 0.44,0.44 0 0 0 0.45,-0.44 l -0.01,-9.640002 a 0.44,0.44 0 0 1 0.440001,-0.44 l 1.53,0.02 a 0.44,0.44 0 0 1 0.43,0.43 l 0.05,12.440002 a 0.44,0.44 0 0 1 -0.44,0.44 l -12.0500005,-0.01 a 0.44,0.44 0 0 1 -0.44,-0.44 V 97.751878 a 0.44,0.44 0 0 1 0.48,-0.44 l 1.33,0.12 a 0.44,0.44 0 0 1 0.4,0.44 l 0.03,9.510002 a 0.44,0.44 0 0 0 0.46,0.44 l 1.86,-0.1 a 0.44,0.44 0 0 0 0.42,-0.43 z"
         id="path10995" />
    </g>
  </g>
</svg>
