<?xml version="1.0" encoding="UTF-8"?>
<svg width="290.08" height="189" version="1.1" viewBox="0 0 290.08 189" xmlns="http://www.w3.org/2000/svg" xmlns:xlink="http://www.w3.org/1999/xlink">
 <g transform="translate(6.5461 67.418)">
  <g fill="#acc069" aria-label="Schule Ettiswil">
   <g transform="translate(7.6536 -84.189)">
    <g fill="#000">
     <path d="m127.85 56.941q-3.375 0-6.1172-1.0312t-4.3359-3.2344-1.5938-5.7188h4.2188q0.0234 2.5078 1.1016 3.9375 1.1016 1.4297 2.8828 2.0156 1.8047 0.58594 3.9609 0.58594 2.0156 0 3.6562-0.58594 1.6641-0.60938 2.6484-1.8047 0.98438-1.2188 0.98438-3.0938 0-1.6641-0.77344-2.7188-0.77344-1.0547-2.5547-1.8281-1.7812-0.79688-4.8281-1.5703-3.5625-0.9375-5.8594-2.0391-2.2969-1.125-3.4219-2.7891-1.1016-1.6641-1.1016-4.2188 0-2.6953 1.2656-4.5234 1.2656-1.8516 3.6094-2.8125 2.3672-0.96094 5.6484-0.96094 3.0469 0 5.5781 0.98438t4.0312 2.9531q1.5234 1.9688 1.5234 4.8984h-4.2422q0.0469-2.6719-1.9453-4.0312-1.9922-1.3828-4.9219-1.3828-3 0-4.7109 1.2188-1.6875 1.1953-1.6875 3.5156 0 1.3828 0.72657 2.3203 0.72656 0.91406 2.5078 1.6641 1.8047 0.75 4.9688 1.5703 3.6562 0.98438 5.9297 2.1094 2.2734 1.125 3.3516 2.8828 1.0781 1.7578 1.0781 4.6172 0 3.0469-1.5469 5.0625-1.5234 1.9922-4.1484 3-2.6016 1.0078-5.8828 1.0078z"/>
     <path d="m153.63 56.917q-3 0-5.3203-1.3125-2.3203-1.3125-3.6328-3.9141-1.3125-2.625-1.3125-6.5156t1.2891-6.5391q1.2891-2.6484 3.5859-3.9844 2.3203-1.3359 5.3906-1.3359 2.5781 0 4.6172 0.86719 2.0625 0.86719 3.2812 2.625 1.2422 1.7344 1.3359 4.4062h-3.8672q-0.16407-2.2031-1.5938-3.4688-1.4062-1.2656-3.7031-1.2656-3.1172 0-4.7109 2.2969-1.5938 2.2734-1.5938 6.3984 0 2.7188 0.70313 4.6406 0.70312 1.9219 2.1094 2.9297 1.4062 1.0078 3.4922 1.0078 2.3438 0 3.8672-1.2891 1.5234-1.2891 1.5938-3.7969h3.8438q-0.0469 2.7422-1.3125 4.5938-1.2422 1.8281-3.3516 2.7422-2.0859 0.91406-4.7109 0.91406z"/>
     <path d="m168.11 56.519v-31.547h3.8906v12.234q1.0312-1.3594 2.8828-2.5312 1.875-1.1953 4.7578-1.1953 3.5859 0 5.1562 2.1797 1.5703 2.1562 1.5703 6.1406v14.719h-3.8906v-14.18q0-1.6172-0.30469-2.8828-0.30468-1.2656-1.125-1.9688-0.79687-0.72656-2.3672-0.72656-2.3906 0-4.0312 1.1484-1.6406 1.125-2.625 2.4375v16.172z"/>
     <path d="m199.17 56.753q-3.7031 0-5.3438-2.2031-1.6172-2.2266-1.6172-6.1172v-14.742h3.9375v14.203q0 1.5938 0.30469 2.8125 0.32813 1.2188 1.1953 1.9219 0.86719 0.67969 2.4844 0.67969 2.3438 0 3.9141-1.0547 1.5703-1.0547 2.5312-2.3906v-16.172h3.9141v22.828h-3.7734l-0.0937-3.5156q-1.0078 1.3359-2.8594 2.5547-1.8281 1.1953-4.5938 1.1953z"/>
     <path d="m223.31 56.519q-2.7656 0-4.2422-0.86719-1.4766-0.89062-2.0391-2.5312-0.53907-1.6641-0.53907-3.9844v-24.164h3.9141v23.977q0 2.1328 0.53906 3.2578 0.5625 1.125 2.625 1.125h1.0547v3.1875z"/>
     <path d="m237.74 56.941q-3.5625 0-5.8828-1.5469-2.3203-1.5703-3.4688-4.2422-1.125-2.6953-1.125-6.0469 0-3.4922 1.1016-6.1406 1.1016-2.6719 3.3281-4.1719 2.25-1.5 5.625-1.5 4.5234 0 7.0781 2.8125 2.5547 2.8125 2.5547 8.0859 0 0.35156-0.0234 0.84375 0 0.46875-0.0469 0.67969h-15.68q0.0234 2.2266 0.67969 4.1016 0.65625 1.8516 2.0859 2.9766 1.4531 1.125 3.7734 1.125 2.5078 0 3.8906-1.2188 1.4062-1.2422 1.4766-3.5625h3.8672q-0.0703 2.4141-1.2188 4.1719-1.125 1.7344-3.1641 2.6953-2.0391 0.9375-4.8516 0.9375zm-6.5156-14.086h11.859q-0.0703-3.1875-1.5703-4.875-1.5-1.6875-4.1953-1.6875-2.7422 0-4.2891 1.6875-1.5234 1.6641-1.8047 4.875z"/>
    </g>
    <path d="m118.28 116.52v-31.547h21.164v5.4609h-14.578v7.3359h13.219v5.2734h-13.219v8.0156h14.578v5.4609z"/>
    <path d="m155.13 116.52q-3.4688 0-5.3906-0.82031-1.8984-0.84375-2.6484-2.5781-0.75-1.7578-0.75-4.5703v-10.125h-3.7969v-4.7812h3.7969v-5.3906h6.2109v5.3906h4.9922v4.7812h-4.9922v9.75q0 1.8047 0.49219 2.6719 0.51563 0.86719 2.2969 0.86719h2.2031v4.8047z"/>
    <path d="m172.19 116.52q-3.4688 0-5.3906-0.82031-1.8984-0.84375-2.6484-2.5781-0.75-1.7578-0.75-4.5703v-10.125h-3.7969v-4.7812h3.7969v-5.3906h6.2109v5.3906h4.9922v4.7812h-4.9922v9.75q0 1.8047 0.49219 2.6719 0.51563 0.86719 2.2969 0.86719h2.2031v4.8047z"/>
    <path d="m179.48 116.52v-22.875h6.2109v22.875zm3.1172-25.875q-1.7109 0-2.625-0.86719-0.89063-0.86719-0.89063-2.1562 0-1.3125 0.89063-2.1562 0.91406-0.86719 2.625-0.86719t2.6016 0.86719q0.91406 0.84375 0.91406 2.1562 0 1.2891-0.91406 2.1562-0.89062 0.86719-2.6016 0.86719z"/>
    <path d="m201.53 116.94q-1.8984 0-3.7266-0.35156-1.8281-0.35157-3.3047-1.1953-1.4766-0.86718-2.3438-2.3438-0.86719-1.4766-0.86719-3.6797h5.7656q0 1.9219 1.3359 2.6719 1.3594 0.75 3.1641 0.75 1.7812 0 2.7656-0.5625 0.98438-0.58594 0.98438-1.9453 0-1.2891-1.1719-1.9219-1.1484-0.63281-4.0547-1.2891-2.4375-0.58594-4.3594-1.4062-1.8984-0.84375-2.9766-2.2266-1.0781-1.4062-1.0781-3.6797 0-1.7812 0.82031-3.0234 0.82032-1.2422 2.1797-1.9922 1.3828-0.77344 3.0938-1.125 1.7344-0.35156 3.5391-0.35156 1.7578 0 3.4453 0.35156 1.6875 0.35156 3.0469 1.1953 1.3594 0.82031 2.1797 2.2266t0.82031 3.5156h-5.7656q0-1.7578-1.125-2.4375-1.1016-0.67969-2.6016-0.67969-1.6172 0-2.5547 0.46875-0.91407 0.46875-0.91407 1.5469 0 0.63282 0.58594 1.125 0.58594 0.46875 1.875 0.89063 1.2891 0.39844 3.3984 0.86719 2.2266 0.51562 3.9844 1.3359 1.7578 0.82032 2.7891 2.2031t1.0312 3.5859q0 2.0625-0.84375 3.4922-0.82032 1.4297-2.2266 2.3203-1.3828 0.86718-3.1875 1.2656-1.7812 0.39844-3.7031 0.39844z"/>
    <path d="m220.24 116.52-7.1953-22.875h6.3047l4.4062 16.148 4.4062-16.148h6.5156l4.5 16.125 4.3359-16.125h5.8828l-7.1953 22.875h-6.3516l-4.6172-16.453-4.6641 16.453z"/>
    <path d="m252.81 116.52v-22.875h6.2109v22.875zm3.1172-25.875q-1.7109 0-2.625-0.86719-0.89063-0.86719-0.89063-2.1562 0-1.3125 0.89063-2.1562 0.91406-0.86719 2.625-0.86719 1.7109 0 2.6016 0.86719 0.91406 0.84375 0.91406 2.1562 0 1.2891-0.91406 2.1562-0.89063 0.86719-2.6016 0.86719z"/>
    <path d="m274.26 116.52q-3.4922 0-5.3906-0.82031-1.8984-0.84375-2.6484-2.5781-0.75-1.7578-0.75-4.5703v-23.578h6.1875v23.203q0 1.8047 0.49219 2.6484 0.49218 0.84375 2.2969 0.84375h1.4297v4.8516z"/>
   </g>
  </g>
  <g transform="translate(-6.5461 -67.418)" fill="none" stroke-width="2">
   <g stroke="#8e8e8d">
    <path d="m109.42 3.34a0.53 0.53 0 0 0-0.53-0.53h-78.86a0.53 0.53 0 0 0-0.53 0.53v182.58a0.53 0.53 0 0 0 0.53 0.53h78.86a0.53 0.53 0 0 0 0.53-0.53v-182.58" vector-effect="non-scaling-stroke"/>
    <path d="m18.08 17.82-8.8 0.13q-0.99 0.02-1.01 1.02l-0.01 0.48a0.95 0.94 0.9 0 0 0.94 0.96l11.31 0.15a0.58 0.58 0 0 0 0.59-0.54q0.46-6.18-0.24-11.69-0.04-0.35-0.38-0.47-0.73-0.26-1.33 0.44a1.14 1.14 0 0 0-0.28 0.72l-0.15 8.15q-0.01 0.64-0.64 0.65" vector-effect="non-scaling-stroke"/>
    <path d="m21.229 34.339a0.59 0.59 0 0 0-0.591-0.589l-11.76 0.0206a0.59 0.59 0 0 0-0.589 0.591l0.0028 1.6a0.59 0.59 0 0 0 0.591 0.589l11.76-0.0206a0.59 0.59 0 0 0 0.589-0.591l-0.0028-1.6" vector-effect="non-scaling-stroke"/>
    <path d="m13.01 58.24q-0.86-0.35 0-0.68l7.47-2.92q0.55-0.21 0.69-0.79 0.15-0.6-0.04-1.17a0.9 0.85 89.4 0 0-0.52-0.54l-11.9-4.59q-0.38-0.15-0.4 0.26l-0.06 1.54q-0.03 0.68 0.61 0.91l7.13 2.54q0.89 0.32 0.03 0.7-3.3 1.45-6.86 2.74-0.52 0.19-0.76 0.67c-0.48 0.94-0.12 1.93 0.89 2.29q3.82 1.37 6.76 2.66 0.77 0.33-0.01 0.63-3.53 1.39-7.04 2.59-0.74 0.26-0.74 1.05 0 0.03 0 1.61 0 0.81 0.75 0.52l9.93-3.88q4.81-1.88 0.01-3.79l-5.94-2.35" vector-effect="non-scaling-stroke"/>
    <path d="m18.75 82.01-0.02 7.24a1.91 1.87-28.7 0 1-0.32 1.05q-0.16 0.24-0.41 0.39-0.51 0.3-0.56 0.88-0.07 0.75 0.41 1.3 0.26 0.3 0.66 0.29 2.51-0.1 2.61-2.72 0.19-5.03 0.01-9.27-0.11-2.47-2.58-2.46l-2.67 0.02q-2.61 0.02-2.62 2.64v8.19q0 0.57-0.57 0.54l-1.45-0.08q-0.73-0.04-0.74-0.78l-0.02-6.96q0-0.51 0.46-0.74 0.66-0.32 0.75-1.13a1.32 1.32 0 0 0-1.57-1.45q-1.77 0.35-1.81 2.29-0.1 4.5-0.02 8.88 0.05 2.39 2.44 2.39l2.54-0.01q2.4 0 2.41-2.4l0.03-8.07q0-0.75 0.75-0.76l1.55-0.01q0.74-0.01 0.74 0.74" vector-effect="non-scaling-stroke"/>
    <path d="m21.206 106.64a0.82 0.82 0 0 0-0.8257-0.8143l-11.26 0.0786a0.82 0.82 0 0 0-0.8143 0.8257l0.0071 1.02a0.82 0.82 0 0 0 0.8257 0.8143l11.26-0.0786a0.82 0.82 0 0 0 0.8143-0.8257l-0.0071-1.02" vector-effect="non-scaling-stroke"/>
    <path d="m10.53 127.96a0.45 0.45 0 0 1 0.45-0.45l9.79 0.11a0.45 0.45 0 0 0 0.46-0.45l0.02-1.97a0.45 0.45 0 0 0-0.45-0.46l-9.82 0.01a0.45 0.45 0 0 1-0.45-0.44l-0.08-5.27a0.45 0.45 0 0 0-0.41-0.44l-1.23-0.14a0.45 0.45 0 0 0-0.5 0.45l-0.06 14.38a0.45 0.45 0 0 0 0.47 0.45l1.34-0.07a0.45 0.45 0 0 0 0.43-0.45l0.04-5.26" vector-effect="non-scaling-stroke"/>
    <path d="m10.53 150.24a0.47 0.47 0 0 1 0.47-0.47h9.73a0.47 0.47 0 0 0 0.47-0.46l0.05-2.08a0.47 0.47 0 0 0-0.48-0.48l-9.76 0.09a0.47 0.47 0 0 1-0.47-0.47l-0.04-5.04a0.47 0.47 0 0 0-0.43-0.47l-1.3-0.11a0.47 0.47 0 0 0-0.51 0.47l-0.01 14.07a0.47 0.47 0 0 0 0.48 0.47l1.33-0.01a0.47 0.47 0 0 0 0.46-0.47l0.01-5.04" vector-effect="non-scaling-stroke"/>
    <path d="m13.24 174.71a0.44 0.44 0 0 1-0.42 0.43l-1.86 0.1a0.44 0.44 0 0 1-0.46-0.44l-0.03-9.51a0.44 0.44 0 0 0-0.4-0.44l-1.33-0.12a0.44 0.44 0 0 0-0.48 0.44v12.43a0.44 0.44 0 0 0 0.44 0.44l12.05 0.01a0.44 0.44 0 0 0 0.44-0.44l-0.05-12.44a0.44 0.44 0 0 0-0.43-0.43l-1.53-0.02a0.44 0.44 0 0 0-0.44 0.44l0.01 9.64a0.44 0.44 0 0 1-0.45 0.44l-2.39-0.08a0.44 0.44 0 0 1-0.43-0.44l-0.01-5.31a0.44 0.44 0 0 0-0.4-0.43l-1.2-0.1a0.44 0.44 0 0 0-0.47 0.42l-0.16 5.41" vector-effect="non-scaling-stroke"/>
   </g>
   <path d="m65.09 71.26-2.19-0.22" stroke="#ffe2a1" vector-effect="non-scaling-stroke"/>
   <path d="m62.9 71.04q-8.96-1.21-14.81 3.8-7.44 6.39-5.98 17.21" stroke="#8e8e8d" vector-effect="non-scaling-stroke"/>
   <path d="m42.11 92.05 0.6 2.88" stroke="#ffe2a1" vector-effect="non-scaling-stroke"/>
   <path d="m42.71 94.93q3.36 1.65 5.02 4.23c0.8 1.25 0.41 2.4 0.92 3.72 0.77 1.97-0.24 6.09-1.25 7.92q-1.17 2.11-3.08 3.06c-2.57 1.28-5.74 3.02-5.98 6.27-0.32 4.42-0.19 8.94 1.63 13.01q3.1 6.93 7.26 10.97 3.77 3.65 10.44 5.82 0.87 0.28 1.3 1.08a1.32 1.32 0 0 0 0.71 0.61q3.03 1.1 6.33 1.38 0.5 0.04 0.51 0.54 0.22 9.98 1.55 19.93 0.01 0.1 0.1 0.09l0.29-0.01q0.19 0 0.2-0.2l0.69-18.86q0.03-0.86 0.9-0.86 4.59 0.03 9.72-1.63c2.79-0.9 4.73-3.08 7.22-4.52 4.58-2.64 9.11-7.67 11.05-12.22q5.08-11.91 2.06-26.5-1.3-6.22-3.78-11.75a1.23 1.13 69.4 0 0-1.4-0.71q-0.14 0.04-0.4 0.44" stroke="#8e8e8d" vector-effect="non-scaling-stroke"/>
   <path d="m94.72 96.74q-0.41 0.12-0.83-0.34" stroke="#d6e0b4" vector-effect="non-scaling-stroke"/>
   <path d="m93.89 96.4q0.47-3.35-1.83-6.9-2.77-4.27-5.53-8.54-0.56-0.87-1.56-0.92" stroke="#929185" vector-effect="non-scaling-stroke"/>
   <path d="m84.97 80.04q-0.63-0.04-0.76-0.57" stroke="#d6e0b4" vector-effect="non-scaling-stroke"/>
   <path d="m84.21 79.47q0.25-0.41 0.28-0.8 0.02-0.32-0.16-0.59-2.64-4.05-5.12-8.18c-1.5-2.5-1.86-5.36-3.29-7.82q-1.48-2.55-2.28-5.43c-1.04-3.76-2.7-7.62-3.12-11.37-0.33-2.91-0.96-5.71-1.05-8.6-0.12-4.01-1.16-7.73-1.2-11.85q-0.08-6.88-0.16-13.52-0.02-1.37-0.54-2.64-0.4-0.98-0.39 0.07 0.05 18.61-0.93 36.64-0.23 4.08-0.59 7.91-0.34 3.56-0.16 7.91 0.21 5.02-0.41 10.06" stroke="#929185" vector-effect="non-scaling-stroke"/>
   <path d="m84.21 79.47q-3.12-5.11-6.63-10.03-3.38-4.75-6.76-16.25" stroke="#69713a" vector-effect="non-scaling-stroke"/>
   <path d="m70.82 53.19-1.93-6.61q-0.25-0.89-0.63-0.04-0.33 0.74 0.02 1.5c0.94 2.08 0.53 5.23-0.39 7q-0.23 0.43-0.13 0.91 0.34 1.73 0.41 3.55 0.06 1.31 1.14 2.22" stroke="#5e4a17" vector-effect="non-scaling-stroke"/>
   <path d="m69.31 61.72q0.29 2.4 0.14 4.86-0.18 3.2-0.1 4.86 0.56 10.65-0.02 21.31-0.13 2.36 0.44 5.67" stroke="#69713a" vector-effect="non-scaling-stroke"/>
   <path d="m69.77 98.42q-1.02-0.35-1.66-0.14-0.62 0.2-0.73 0.89-0.23 1.5 0.32 2.56 0.21 0.4 0.11 0.83l-0.43 2.06" stroke="#212013" vector-effect="non-scaling-stroke"/>
   <path d="m67.38 104.62q-0.48-1.57-0.72-1.48a2.18 1.77 73.4 0 0-1 2.42q0.42 1.76 0.24 3.28c-0.56 4.57-0.55 9.4-0.97 14.12q-0.03 0.39-0.39 0.22-0.17-0.07-0.19-0.26-0.75-6.08-0.1-11.96 0.31-2.76 0.27-5.34-0.05-2.88-0.07-5.68c-0.01-1.74 0.49-3.3 0.27-5.03q-0.15-1.12 0.12-2.29c0.34-1.54-0.01-3.34 0.02-4.97q0.16-8.21 0.23-16.39" stroke="#927427" vector-effect="non-scaling-stroke"/>
   <path d="m45.41 138.66c0.45 1.75 1.99 4.58 4.18 3.88" stroke="#5a471f" vector-effect="non-scaling-stroke"/>
   <path d="m67.24 128.23q0.58-1.21-0.02-2.09-0.26-0.39-0.11-0.83l0.39-1.13" stroke="#5a471f" vector-effect="non-scaling-stroke"/>
   <path d="m84.97 80.04q-0.16 0.23-0.03 0.44 3.87 6.1 7.67 12.25 0.74 1.21 0.66 3.89-0.01 0.42 0.35 0.2 0.19-0.11 0.27-0.42" stroke="#69713a" vector-effect="non-scaling-stroke"/>
   <path d="m94.72 96.74q1.87 2.62 3.04 7.26 1.81 7.21 1.88 12.47 0.03 2.9-0.61 6.53-0.65 3.65-1.47 6.48-1.14 3.9-3.59 7.83c-3.46 5.55-10.12 9.84-15.7 11.74q-2.92 1-8.29 0.89-0.51-0.01-0.58-0.52-0.52-3.74-0.4-7.42 0.55-16.09 0.53-27.75-0.01-8.07 0.24-15.83" stroke="#656f42" vector-effect="non-scaling-stroke"/>
   <path d="m67.38 104.62q0.32 4.42-0.33 8.95c-0.25 1.76 0.38 3.06 0.28 4.77-0.12 2.05 0.55 3.82 0.17 5.84" stroke="#8e712f" vector-effect="non-scaling-stroke"/>
   <path d="m67.5 124.18q-1.32 0.67-1.39 1.82-0.04 0.76 0.53 0.87 0.41 0.08 0.47 0.5l0.13 0.86" stroke="#cb9b32" vector-effect="non-scaling-stroke"/>
   <path d="m67.24 128.23q-0.61 10.17 0.18 20.44 0.04 0.53-0.45 0.74-1.42 0.58-2.98 0.13c-4.72-1.36-10.86-3.33-14.4-7" stroke="#8e712f" vector-effect="non-scaling-stroke"/>
   <path d="m49.59 142.54q-1.5-2.61-4.18-3.88" stroke="#cb9b32" vector-effect="non-scaling-stroke"/>
   <path d="m45.41 138.66q-1.06-1.72-2.28-3.43c-3.68-5.14-4.48-11.41-3.37-17.69a1.35 1.34 1.2 0 1 1.15-1.1c6.38-0.85 9.95-6.79 9.41-12.99q-0.57-6.4-7.61-8.52" stroke="#8e712f" vector-effect="non-scaling-stroke"/>
   <path d="m70.82 53.19q-0.36-0.14-0.39-0.17a0.51 0.5 16.5 0 0-0.82 0.44q0.39 4.26-0.3 8.26" stroke="#a29946" vector-effect="non-scaling-stroke"/>
   <path d="m62.9 71.04q-1.4 1.08-2.4 1.07-8.33-0.13-13.35 5.88-1.66 2-3.11 5.03-1.03 2.17-1.37 4.49-0.32 2.21-0.56 4.54" stroke="#8e712f" vector-effect="non-scaling-stroke"/>
   <g stroke="#8e8e8d">
    <path d="m56.94 17.98q-0.35-1.51-0.53-2.93-0.02-0.19-0.21-0.17l-0.27 0.02a0.08 0.08 0 0 0-0.08 0.1q0.54 2.6-0.27 4.68-0.32 0.82 0.55 0.75 4.41-0.33 8.58 0.03a0.88 0.86-79 0 0 0.89-0.61l0.09-0.29a0.41 0.41 0 0 0-0.38-0.53l-7.52-0.34a0.92 0.91 84.5 0 1-0.85-0.71" vector-effect="non-scaling-stroke"/>
    <path d="m55.735 27.984a1.93 1.17 97.3 0 0 1.4057-1.7657 1.93 1.17 97.3 0 0-0.9153-2.0631 1.93 1.17 97.3 0 0-1.4057 1.7657 1.93 1.17 97.3 0 0 0.9153 2.0631" vector-effect="non-scaling-stroke"/>
    <path d="m64.87 25.461a0.72 0.72 0 0 0-0.7061-0.7337l-3.8993-0.0749a0.72 0.72 0 0 0-0.7336 0.7061l-0.0016 0.0799a0.72 0.72 0 0 0 0.7061 0.7337l3.8993 0.0749a0.72 0.72 0 0 0 0.7336-0.7061l0.0016-0.0799" vector-effect="non-scaling-stroke"/>
    <path d="m63.846 32.53a2.97 0.85 2.9 0 0-2.9232-0.9992 2.97 0.85 2.9 0 0-3.0092 0.6986 2.97 0.85 2.9 0 0 2.9232 0.9992 2.97 0.85 2.9 0 0 3.0092-0.6986" vector-effect="non-scaling-stroke"/>
    <path d="m56.33 37.725a2.21 1.1 93.9 0 0 1.2478-2.1301 2.21 1.1 93.9 0 0-0.9472-2.2797 2.21 1.1 93.9 0 0-1.2478 2.1301 2.21 1.1 93.9 0 0 0.9472 2.2797" vector-effect="non-scaling-stroke"/>
   </g>
   <path d="m57.491 151.7a1.67 0.4 21.8 0 0-1.4021-0.9916 1.67 0.4 21.8 0 0-1.6991-0.2488 1.67 0.4 21.8 0 0 1.4021 0.9916 1.67 0.4 21.8 0 0 1.6991 0.2488" stroke="#cbb891" vector-effect="non-scaling-stroke"/>
   <path d="m67.366 69.999a1.71 0.43 91.8 0 0 0.4835-1.6957 1.71 0.43 91.8 0 0-0.3761-1.7227 1.71 0.43 91.8 0 0-0.4835 1.6957 1.71 0.43 91.8 0 0 0.3761 1.7227" stroke="#5e4a17" vector-effect="non-scaling-stroke"/>
   <path d="m66.886 86.509a3.68 0.89 91 0 0 0.9541-3.6639 3.68 0.89 91 0 0-0.8257-3.6949 3.68 0.89 91 0 0-0.9541 3.6639 3.68 0.89 91 0 0 0.8257 3.6949" stroke="#5e4a17" vector-effect="non-scaling-stroke"/>
   <path d="m72.79 97.55 0.75 0.75a0.25 0.25 0 0 0 0.36-0.01l2.55-2.57a8.02 0.67-45.2 0 0 5.18-6.16l-0.16-0.16a8.02 0.67-45.2 0 0-6.12 5.22l-2.56 2.57a0.25 0.25 0 0 0 0 0.36" stroke="#69713a" vector-effect="non-scaling-stroke"/>
   <path d="m88.29 104.49c-5.63 3.07-11.19 8.16-15.8 12.63a0.29 0.28-53.7 0 0 0.07 0.46l0.29 0.14a0.96 0.96 0 0 0 1.05-0.11q7.9-6.36 14.71-12.67 1.64-1.52-0.32-0.45" stroke="#656f42" vector-effect="non-scaling-stroke"/>
   <path d="m85.57 125.59q-6.66 3.65-12.37 9.1a0.31 0.31 0 0 0 0.16 0.53l0.73 0.13a0.39 0.38 32.1 0 0 0.29-0.06q6.76-4.66 11.65-9.06 2.54-2.28-0.46-0.64" stroke="#69713a" vector-effect="non-scaling-stroke"/>
   <path d="m54.29 106.19c-0.29 1.58 0.34 2.84 0.16 4.43-0.37 3.33-0.29 8.53-4.89 8.41q-0.8-0.02-0.22 0.52c2.51 2.35 4.9-1.21 5.61-3.34q1.59-4.83 0.62-9.88-0.33-1.76 0.18-3.64 0.17-0.62 0.81-0.57l0.97 0.07q0.68 0.06 0.08-0.27c-1.18-0.62-2.51 0.02-2.76 1.32q-0.3 1.5-0.56 2.95" stroke="#8e712f" vector-effect="non-scaling-stroke"/>
  </g>
  <path d="m-6.5461-67.418h112v189h-112zm109.42 3.34a0.53 0.53 0 0 0-0.53-0.53h-78.86a0.53 0.53 0 0 0-0.53 0.53v182.58a0.53 0.53 0 0 0 0.53 0.53h78.86a0.53 0.53 0 0 0 0.53-0.53zm-91.34 14.48-8.8 0.13q-0.99 0.02-1.01 1.02l-0.01 0.48a0.95 0.94 0.9 0 0 0.94 0.96l11.31 0.15a0.58 0.58 0 0 0 0.59-0.54q0.46-6.18-0.24-11.69-0.04-0.35-0.38-0.47-0.73-0.26-1.33 0.44a1.14 1.14 0 0 0-0.28 0.72l-0.15 8.15q-0.01 0.64-0.64 0.65zm3.1486 16.519a0.59 0.59 0 0 0-0.591-0.589l-11.76 0.0206a0.59 0.59 0 0 0-0.589 0.591l0.0028 1.6a0.59 0.59 0 0 0 0.591 0.589l11.76-0.0206a0.59 0.59 0 0 0 0.589-0.591zm-8.2186 23.901q-0.86-0.35 0-0.68l7.47-2.92q0.55-0.21 0.69-0.79 0.15-0.6-0.04-1.17a0.9 0.85 89.4 0 0-0.52-0.54l-11.9-4.59q-0.38-0.15-0.4 0.26l-0.06 1.54q-0.03 0.68 0.61 0.91l7.13 2.54q0.89 0.32 0.03 0.7-3.3 1.45-6.86 2.74-0.52 0.19-0.76 0.67c-0.48 0.94-0.12 1.93 0.89 2.29q3.82 1.37 6.76 2.66 0.77 0.33-0.01 0.63-3.53 1.39-7.04 2.59-0.74 0.26-0.74 1.05 0 0.03 0 1.61 0 0.81 0.75 0.52l9.93-3.88q4.81-1.88 0.01-3.79zm5.74 23.77-0.02 7.24a1.87 1.91 61.3 0 1-0.32 1.05q-0.16 0.24-0.41 0.39-0.51 0.3-0.56 0.88-0.07 0.75 0.41 1.3 0.26 0.3 0.66 0.29 2.51-0.1 2.61-2.72 0.19-5.03 0.01-9.27-0.11-2.47-2.58-2.46l-2.67 0.02q-2.61 0.02-2.62 2.64v8.19q0 0.57-0.57 0.54l-1.45-0.08q-0.73-0.04-0.74-0.78l-0.02-6.96q0-0.51 0.46-0.74 0.66-0.32 0.75-1.13a1.32 1.32 0 0 0-1.57-1.45q-1.77 0.35-1.81 2.29-0.1 4.5-0.02 8.88 0.05 2.39 2.44 2.39l2.54-0.01q2.4 0 2.41-2.4l0.03-8.07q0-0.75 0.75-0.76l1.55-0.01q0.74-0.01 0.74 0.74zm2.4563 24.625a0.82 0.82 0 0 0-0.8257-0.8143l-11.26 0.0786a0.82 0.82 0 0 0-0.8143 0.8257l0.0071 1.02a0.82 0.82 0 0 0 0.8257 0.8143l11.26-0.0786a0.82 0.82 0 0 0 0.8143-0.8257zm-10.676 21.325a0.45 0.45 0 0 1 0.45-0.45l9.79 0.11a0.45 0.45 0 0 0 0.46-0.45l0.02-1.97a0.45 0.45 0 0 0-0.45-0.46l-9.82 0.01a0.45 0.45 0 0 1-0.45-0.44l-0.08-5.27a0.45 0.45 0 0 0-0.41-0.44l-1.23-0.14a0.45 0.45 0 0 0-0.5 0.45l-0.06 14.38a0.45 0.45 0 0 0 0.47 0.45l1.34-0.07a0.45 0.45 0 0 0 0.43-0.45zm0 22.28a0.47 0.47 0 0 1 0.47-0.47h9.73a0.47 0.47 0 0 0 0.47-0.46l0.05-2.08a0.47 0.47 0 0 0-0.48-0.48l-9.76 0.09a0.47 0.47 0 0 1-0.47-0.47l-0.04-5.04a0.47 0.47 0 0 0-0.43-0.47l-1.3-0.11a0.47 0.47 0 0 0-0.51 0.47l-0.01 14.07a0.47 0.47 0 0 0 0.48 0.47l1.33-0.01a0.47 0.47 0 0 0 0.46-0.47zm2.71 24.47a0.44 0.44 0 0 1-0.42 0.43l-1.86 0.1a0.44 0.44 0 0 1-0.46-0.44l-0.03-9.51a0.44 0.44 0 0 0-0.4-0.44l-1.33-0.12a0.44 0.44 0 0 0-0.48 0.44v12.43a0.44 0.44 0 0 0 0.44 0.44l12.05 0.01a0.44 0.44 0 0 0 0.44-0.44l-0.05-12.44a0.44 0.44 0 0 0-0.43-0.43l-1.53-0.02a0.44 0.44 0 0 0-0.44 0.44l0.01 9.64a0.44 0.44 0 0 1-0.45 0.44l-2.39-0.08a0.44 0.44 0 0 1-0.43-0.44l-0.01-5.31a0.44 0.44 0 0 0-0.4-0.43l-1.2-0.1a0.44 0.44 0 0 0-0.47 0.42z" fill="#1d1d1b"/>
  <path d="m102.87 118.5a0.53 0.53 0 0 1-0.53 0.53h-78.86a0.53 0.53 0 0 1-0.53-0.53v-182.58a0.53 0.53 0 0 1 0.53-0.53h78.86a0.53 0.53 0 0 1 0.53 0.53zm-44.33-114.66-2.19-0.22q-8.96-1.21-14.81 3.8-7.44 6.39-5.98 17.21l0.6 2.88q3.36 1.65 5.02 4.23c0.8 1.25 0.41 2.4 0.92 3.72 0.77 1.97-0.24 6.09-1.25 7.92q-1.17 2.11-3.08 3.06c-2.57 1.28-5.74 3.02-5.98 6.27-0.32 4.42-0.19 8.94 1.63 13.01q3.1 6.93 7.26 10.97 3.77 3.65 10.44 5.82 0.87 0.28 1.3 1.08a1.32 1.32 0 0 0 0.71 0.61q3.03 1.1 6.33 1.38 0.5 0.04 0.51 0.54 0.22 9.98 1.55 19.93 0.01 0.1 0.1 0.09l0.29-0.01q0.19 0 0.2-0.2l0.69-18.86q0.03-0.86 0.9-0.86 4.59 0.03 9.72-1.63c2.79-0.9 4.73-3.08 7.22-4.52 4.58-2.64 9.11-7.67 11.05-12.22q5.08-11.91 2.06-26.5-1.3-6.22-3.78-11.75a1.23 1.13 69.4 0 0-1.4-0.71q-0.14 0.04-0.4 0.44-0.41 0.12-0.83-0.34 0.47-3.35-1.83-6.9-2.77-4.27-5.53-8.54-0.56-0.87-1.56-0.92-0.63-0.04-0.76-0.57 0.25-0.41 0.28-0.8 0.02-0.32-0.16-0.59-2.64-4.05-5.12-8.18c-1.5-2.5-1.86-5.36-3.29-7.82q-1.48-2.55-2.28-5.43c-1.04-3.76-2.7-7.62-3.12-11.37-0.33-2.91-0.96-5.71-1.05-8.6-0.12-4.01-1.16-7.73-1.2-11.85q-0.08-6.88-0.16-13.52-0.02-1.37-0.54-2.64-0.4-0.98-0.39 0.07 0.05 18.61-0.93 36.64-0.23 4.08-0.59 7.91-0.34 3.56-0.16 7.91 0.21 5.02-0.41 10.06zm-8.15-53.28q-0.35-1.51-0.53-2.93-0.02-0.19-0.21-0.17l-0.27 0.02a0.08 0.08 0 0 0-0.08 0.1q0.54 2.6-0.27 4.68-0.32 0.82 0.55 0.75 4.41-0.33 8.58 0.03a0.86 0.88 11 0 0 0.89-0.61l0.09-0.29a0.41 0.41 0 0 0-0.38-0.53l-7.52-0.34a0.92 0.91 84.5 0 1-0.85-0.71zm-1.2052 10.004a1.17 1.93 7.3 0 0 1.4057-1.7657 1.17 1.93 7.3 0 0-0.9153-2.0631 1.17 1.93 7.3 0 0-1.4057 1.7657 1.17 1.93 7.3 0 0 0.9153 2.0631zm9.1355-2.5231a0.72 0.72 0 0 0-0.7061-0.7337l-3.8993-0.0749a0.72 0.72 0 0 0-0.7336 0.7061l-0.0016 0.0799a0.72 0.72 0 0 0 0.7061 0.7337l3.8993 0.0749a0.72 0.72 0 0 0 0.7336-0.7061zm-1.0241 7.069a2.97 0.85 2.9 0 0-2.9232-0.9992 2.97 0.85 2.9 0 0-3.0092 0.6986 2.97 0.85 2.9 0 0 2.9232 0.9992 2.97 0.85 2.9 0 0 3.0092-0.6986zm-7.5165 5.1946a1.1 2.21 3.9 0 0 1.2478-2.1301 1.1 2.21 3.9 0 0-0.9472-2.2797 1.1 2.21 3.9 0 0-1.2478 2.1301 1.1 2.21 3.9 0 0 0.9472 2.2797zm1.1609 113.98a1.67 0.4 21.8 0 0-1.4021-0.9916 1.67 0.4 21.8 0 0-1.6991-0.2488 1.67 0.4 21.8 0 0 1.4021 0.9916 1.67 0.4 21.8 0 0 1.6991 0.2488z" fill="#fff"/>
  <path d="m12.174-50.248 0.15-8.15a1.14 1.14 0 0 1 0.28-0.72q0.6-0.7 1.33-0.44 0.34 0.12 0.38 0.47 0.7 5.51 0.24 11.69a0.58 0.58 0 0 1-0.59 0.54l-11.31-0.15a0.95 0.94 0.9 0 1-0.94-0.96l0.01-0.48q0.02-1 1.01-1.02l8.8-0.13q0.63-0.01 0.64-0.65z" fill="#fff"/>
  <path d="m77.664 12.052q-3.12-5.11-6.63-10.03-3.38-4.75-6.76-16.25l-1.93-6.61q-0.25-0.89-0.63-0.04-0.33 0.74 0.02 1.5c0.94 2.08 0.53 5.23-0.39 7q-0.23 0.43-0.13 0.91 0.34 1.73 0.41 3.55 0.06 1.31 1.14 2.22 0.29 2.4 0.14 4.86-0.18 3.2-0.1 4.86 0.56 10.65-0.02 21.31-0.13 2.36 0.44 5.67-1.02-0.35-1.66-0.14-0.62 0.2-0.73 0.89-0.23 1.5 0.32 2.56 0.21 0.4 0.11 0.83l-0.43 2.06q-0.48-1.57-0.72-1.48a2.18 1.77 73.4 0 0-1 2.42q0.42 1.76 0.24 3.28c-0.56 4.57-0.55 9.4-0.97 14.12q-0.03 0.39-0.39 0.22-0.17-0.07-0.19-0.26-0.75-6.08-0.1-11.96 0.31-2.76 0.27-5.34-0.05-2.88-0.07-5.68c-0.01-1.74 0.49-3.3 0.27-5.03q-0.15-1.12 0.12-2.29c0.34-1.54-0.01-3.34 0.02-4.97q0.16-8.21 0.23-16.39 0.62-5.04 0.41-10.06-0.18-4.35 0.16-7.91 0.36-3.83 0.59-7.91 0.98-18.03 0.93-36.64-0.01-1.05 0.39-0.07 0.52 1.27 0.54 2.64 0.08 6.64 0.16 13.52c0.04 4.12 1.08 7.84 1.2 11.85 0.09 2.89 0.72 5.69 1.05 8.6 0.42 3.75 2.08 7.61 3.12 11.37q0.8 2.88 2.28 5.43c1.43 2.46 1.79 5.32 3.29 7.82q2.48 4.13 5.12 8.18 0.18 0.27 0.16 0.59-0.03 0.39-0.28 0.8zm-16.844-9.4708a0.43 1.71 1.8 0 0 0.4835-1.6957 0.43 1.71 1.8 0 0-0.3761-1.7227 0.43 1.71 1.8 0 0-0.4835 1.6957 0.43 1.71 1.8 0 0 0.3761 1.7227zm-0.4805 16.51a0.89 3.68 1 0 0 0.9541-3.6639 0.89 3.68 1 0 0-0.8257-3.6949 0.89 3.68 1 0 0-0.9541 3.6639 0.89 3.68 1 0 0 0.8257 3.6949z" fill="#25220b"/>
  <g fill="#1d1d1b">
   <path d="m51.244-48.728 7.52 0.34a0.41 0.41 0 0 1 0.38 0.53l-0.09 0.29a0.86 0.88 11 0 1-0.89 0.61q-4.17-0.36-8.58-0.03-0.87 0.07-0.55-0.75 0.81-2.08 0.27-4.68a0.08 0.08 0 0 1 0.08-0.1l0.27-0.02q0.19-0.02 0.21 0.17 0.18 1.42 0.53 2.93a0.92 0.91 84.5 0 0 0.85 0.71z"/>
   <ellipse transform="rotate(97.3)" cx="-47.294" cy="-43.779" rx="1.93" ry="1.17"/>
   <rect transform="rotate(1.1)" x="52.168" y="-43.789" width="5.34" height="1.52" rx=".72"/>
   <ellipse transform="rotate(2.9)" cx="52.492" cy="-37.742" rx="2.97" ry=".85"/>
   <ellipse transform="rotate(93.9)" cx="-35.221" cy="-47.649" rx="2.21" ry="1.1"/>
  </g>
  <rect transform="rotate(-.1)" x="1.8002" y="-33.644" width="12.94" height="2.78" rx=".59" fill="#fff"/>
  <path d="m64.274-14.228q-0.36-0.14-0.39-0.17a0.51 0.5 16.5 0 0-0.82 0.44q0.39 4.26-0.3 8.26-1.08-0.91-1.14-2.22-0.07-1.82-0.41-3.55-0.1-0.48 0.13-0.91c0.92-1.77 1.33-4.92 0.39-7q-0.35-0.76-0.02-1.5 0.38-0.85 0.63 0.04z" fill="#977122"/>
  <path d="m6.4639-9.1781 5.94 2.35q4.8 1.91-0.01 3.79l-9.93 3.88q-0.75 0.29-0.75-0.52 0-1.58 0-1.61 0-0.79 0.74-1.05 3.51-1.2 7.04-2.59 0.78-0.3 0.01-0.63-2.94-1.29-6.76-2.66c-1.01-0.36-1.37-1.35-0.89-2.29q0.24-0.48 0.76-0.67 3.56-1.29 6.86-2.74 0.86-0.38-0.03-0.7l-7.13-2.54q-0.64-0.23-0.61-0.91l0.06-1.54q0.02-0.41 0.4-0.26l11.9 4.59a0.9 0.85 89.4 0 1 0.52 0.54q0.19 0.57 0.04 1.17-0.14 0.58-0.69 0.79l-7.47 2.92q-0.86 0.33 0 0.68z" fill="#fff"/>
  <path d="m64.274-14.228q3.38 11.5 6.76 16.25 3.51 4.92 6.63 10.03 0.13 0.53 0.76 0.57-0.16 0.23-0.03 0.44 3.87 6.1 7.67 12.25 0.74 1.21 0.66 3.89-0.01 0.42 0.35 0.2 0.19-0.11 0.27-0.42 0.42 0.46 0.83 0.34 1.87 2.62 3.04 7.26 1.81 7.21 1.88 12.47 0.03 2.9-0.61 6.53-0.65 3.65-1.47 6.48-1.14 3.9-3.59 7.83c-3.46 5.55-10.12 9.84-15.7 11.74q-2.92 1-8.29 0.89-0.51-0.01-0.58-0.52-0.52-3.74-0.4-7.42 0.55-16.09 0.53-27.75-0.01-8.07 0.24-15.83-0.57-3.31-0.44-5.67 0.58-10.66 0.02-21.31-0.08-1.66 0.1-4.86 0.15-2.46-0.14-4.86 0.69-4 0.3-8.26a0.51 0.5 16.5 0 1 0.82-0.44q0.03 0.03 0.39 0.17zm1.97 44.36 0.75 0.75a0.25 0.25 0 0 0 0.36-0.01l2.55-2.57a0.67 8.02 44.8 0 0 5.18-6.16l-0.16-0.16a0.67 8.02 44.8 0 0-6.12 5.22l-2.56 2.57a0.25 0.25 0 0 0 0 0.36zm15.5 6.94c-5.63 3.07-11.19 8.16-15.8 12.63a0.28 0.29 36.3 0 0 0.07 0.46l0.29 0.14a0.96 0.96 0 0 0 1.05-0.11q7.9-6.36 14.71-12.67 1.64-1.52-0.32-0.45zm-2.72 21.1q-6.66 3.65-12.37 9.1a0.31 0.31 0 0 0 0.16 0.53l0.73 0.13a0.39 0.38 32.1 0 0 0.29-0.06q6.76-4.66 11.65-9.06 2.54-2.28-0.46-0.64z" fill="#acc069"/>
  <ellipse transform="rotate(91.8)" cx="-1.0406" cy="-60.871" rx="1.71" ry=".43" fill="#977122"/>
  <path d="m56.354 3.6219q-1.4 1.08-2.4 1.07-8.33-0.13-13.35 5.88-1.66 2-3.11 5.03-1.03 2.17-1.37 4.49-0.32 2.21-0.56 4.54-1.46-10.82 5.98-17.21 5.85-5.01 14.81-3.8z" fill="#1d1d1b"/>
  <path d="m56.354 3.6219 2.19 0.22q-0.07 8.18-0.23 16.39c-0.03 1.63 0.32 3.43-0.02 4.97q-0.27 1.17-0.12 2.29c0.22 1.73-0.28 3.29-0.27 5.03q0.02 2.8 0.07 5.68 0.04 2.58-0.27 5.34-0.65 5.88 0.1 11.96 0.02 0.19 0.19 0.26 0.36 0.17 0.39-0.22c0.42-4.72 0.41-9.55 0.97-14.12q0.18-1.52-0.24-3.28a2.18 1.77 73.4 0 1 1-2.42q0.24-0.09 0.72 1.48 0.32 4.42-0.33 8.95c-0.25 1.76 0.38 3.06 0.28 4.77-0.12 2.05 0.55 3.82 0.17 5.84q-1.32 0.67-1.39 1.82-0.04 0.76 0.53 0.87 0.41 0.08 0.47 0.5l0.13 0.86q-0.61 10.17 0.18 20.44 0.04 0.53-0.45 0.74-1.42 0.58-2.98 0.13c-4.72-1.36-10.86-3.33-14.4-7q-1.5-2.61-4.18-3.88-1.06-1.72-2.28-3.43c-3.68-5.14-4.48-11.41-3.37-17.69a1.35 1.34 1.2 0 1 1.15-1.1c6.38-0.85 9.95-6.79 9.41-12.99q-0.57-6.4-7.61-8.52l-0.6-2.88q0.24-2.33 0.56-4.54 0.34-2.32 1.37-4.49 1.45-3.03 3.11-5.03 5.02-6.01 13.35-5.88 1 0.01 2.4-1.07zm-8.61 35.15c-0.29 1.58 0.34 2.84 0.16 4.43-0.37 3.33-0.29 8.53-4.89 8.41q-0.8-0.02-0.22 0.52c2.51 2.35 4.9-1.21 5.61-3.34q1.59-4.83 0.62-9.88-0.33-1.76 0.18-3.64 0.17-0.62 0.81-0.57l0.97 0.07q0.68 0.06 0.08-0.27c-1.18-0.62-2.51 0.02-2.76 1.32q-0.3 1.5-0.56 2.95z" fill="#fec542"/>
  <path d="m12.204 14.592q0-0.75-0.74-0.74l-1.55 0.01q-0.75 0.01-0.75 0.76l-0.03 8.07q-0.01 2.4-2.41 2.4l-2.54 0.01q-2.39 0-2.44-2.39-0.08-4.38 0.02-8.88 0.04-1.94 1.81-2.29a1.32 1.32 0 0 1 1.57 1.45q-0.09 0.81-0.75 1.13-0.46 0.23-0.46 0.74l0.02 6.96q0.01 0.74 0.74 0.78l1.45 0.08q0.57 0.03 0.57-0.54v-8.19q0.01-2.62 2.62-2.64l2.67-0.02q2.47-0.01 2.58 2.46 0.18 4.24-0.01 9.27-0.1 2.62-2.61 2.72-0.4 0.01-0.66-0.29-0.48-0.55-0.41-1.3 0.05-0.58 0.56-0.88 0.25-0.15 0.41-0.39a1.87 1.91 61.3 0 0 0.32-1.05z" fill="#fff"/>
  <ellipse transform="rotate(91)" cx="14.355" cy="-60.664" rx="3.68" ry=".89" fill="#977122"/>
  <path d="m78.424 12.622q1 0.05 1.56 0.92 2.76 4.27 5.53 8.54 2.3 3.55 1.83 6.9-0.08 0.31-0.27 0.42-0.36 0.22-0.35-0.2 0.08-2.68-0.66-3.89-3.8-6.15-7.67-12.25-0.13-0.21 0.03-0.44z" fill="#25220b"/>
  <path d="m66.244 30.132a0.25 0.25 0 0 1 0-0.36l2.56-2.57a0.67 8.02 44.8 0 1 6.12-5.22l0.16 0.16a0.67 8.02 44.8 0 1-5.18 6.16l-2.55 2.57a0.25 0.25 0 0 1-0.36 0.01z" fill="#25220b"/>
  <g fill="#1d1d1b">
   <path d="m36.164 27.512q7.04 2.12 7.61 8.52c0.54 6.2-3.03 12.14-9.41 12.99a1.35 1.34 1.2 0 0-1.15 1.1c-1.11 6.28-0.31 12.55 3.37 17.69q1.22 1.71 2.28 3.43c0.45 1.75 1.99 4.58 4.18 3.88 3.54 3.67 9.68 5.64 14.4 7q1.56 0.45 2.98-0.13 0.49-0.21 0.45-0.74-0.79-10.27-0.18-20.44 0.58-1.21-0.02-2.09-0.26-0.39-0.11-0.83l0.39-1.13c0.38-2.02-0.29-3.79-0.17-5.84 0.1-1.71-0.53-3.01-0.28-4.77q0.65-4.53 0.33-8.95l0.43-2.06q0.1-0.43-0.11-0.83-0.55-1.06-0.32-2.56 0.11-0.69 0.73-0.89 0.64-0.21 1.66 0.14-0.25 7.76-0.24 15.83 0.02 11.66-0.53 27.75-0.12 3.68 0.4 7.42 0.07 0.51 0.58 0.52 5.37 0.11 8.29-0.89c5.58-1.9 12.24-6.19 15.7-11.74q2.45-3.93 3.59-7.83 0.82-2.83 1.47-6.48 0.64-3.63 0.61-6.53-0.07-5.26-1.88-12.47-1.17-4.64-3.04-7.26 0.26-0.4 0.4-0.44a1.23 1.13 69.4 0 1 1.4 0.71q2.48 5.53 3.78 11.75 3.02 14.59-2.06 26.5c-1.94 4.55-6.47 9.58-11.05 12.22-2.49 1.44-4.43 3.62-7.22 4.52q-5.13 1.66-9.72 1.63-0.87 0-0.9 0.86l-0.69 18.86q-0.01 0.2-0.2 0.2l-0.29 0.01q-0.09 0.01-0.1-0.09-1.33-9.95-1.55-19.93-0.01-0.5-0.51-0.54-3.3-0.28-6.33-1.38a1.32 1.32 0 0 1-0.71-0.61q-0.43-0.8-1.3-1.08-6.67-2.17-10.44-5.82-4.16-4.04-7.26-10.97c-1.82-4.07-1.95-8.59-1.63-13.01 0.24-3.25 3.41-4.99 5.98-6.27q1.91-0.95 3.08-3.06c1.01-1.83 2.02-5.95 1.25-7.92-0.51-1.32-0.12-2.47-0.92-3.72q-1.66-2.58-5.02-4.23z"/>
   <path d="m47.744 38.772q0.26-1.45 0.56-2.95c0.25-1.3 1.58-1.94 2.76-1.32q0.6 0.33-0.08 0.27l-0.97-0.07q-0.64-0.05-0.81 0.57-0.51 1.88-0.18 3.64 0.97 5.05-0.62 9.88c-0.71 2.13-3.1 5.69-5.61 3.34q-0.58-0.54 0.22-0.52c4.6 0.12 4.52-5.08 4.89-8.41 0.18-1.59-0.45-2.85-0.16-4.43z"/>
   <path d="m65.944 49.702c4.61-4.47 10.17-9.56 15.8-12.63q1.96-1.07 0.32 0.45-6.81 6.31-14.71 12.67a0.96 0.96 0 0 1-1.05 0.11l-0.29-0.14a0.28 0.29 36.3 0 1-0.07-0.46z"/>
  </g>
  <rect transform="rotate(-.4)" x="1.486" y="38.498" width="12.9" height="2.66" rx=".82" fill="#fff"/>
  <path d="m3.9839 60.542-0.04 5.26a0.45 0.45 0 0 1-0.43 0.45l-1.34 0.07a0.45 0.45 0 0 1-0.47-0.45l0.06-14.38a0.45 0.45 0 0 1 0.5-0.45l1.23 0.14a0.45 0.45 0 0 1 0.41 0.44l0.08 5.27a0.45 0.45 0 0 0 0.45 0.44l9.82-0.01a0.45 0.45 0 0 1 0.45 0.46l-0.02 1.97a0.45 0.45 0 0 1-0.46 0.45l-9.79-0.11a0.45 0.45 0 0 0-0.45 0.45z" fill="#fff"/>
  <path d="m60.954 56.762-0.39 1.13q-0.15 0.44 0.11 0.83 0.6 0.88 0.02 2.09l-0.13-0.86q-0.06-0.42-0.47-0.5-0.57-0.11-0.53-0.87 0.07-1.15 1.39-1.82z" fill="#977122"/>
  <path d="m79.024 58.172q3-1.64 0.46 0.64-4.89 4.4-11.65 9.06a0.39 0.38 32.1 0 1-0.29 0.06l-0.73-0.13a0.31 0.31 0 0 1-0.16-0.53q5.71-5.45 12.37-9.1z" fill="#25220b"/>
  <path d="m38.864 71.242q2.68 1.27 4.18 3.88c-2.19 0.7-3.73-2.13-4.18-3.88z" fill="#977122"/>
  <path d="m3.9839 82.822-0.01 5.04a0.47 0.47 0 0 1-0.46 0.47l-1.33 0.01a0.47 0.47 0 0 1-0.48-0.47l0.01-14.07a0.47 0.47 0 0 1 0.51-0.47l1.3 0.11a0.47 0.47 0 0 1 0.43 0.47l0.04 5.04a0.47 0.47 0 0 0 0.47 0.47l9.76-0.09a0.47 0.47 0 0 1 0.48 0.48l-0.05 2.08a0.47 0.47 0 0 1-0.47 0.46h-9.73a0.47 0.47 0 0 0-0.47 0.47z" fill="#fff"/>
  <ellipse transform="rotate(21.8)" cx="76.931" cy="59.336" rx="1.67" ry=".4" fill="#977122"/>
  <path d="m6.6939 107.29 0.16-5.41a0.44 0.44 0 0 1 0.47-0.42l1.2 0.1a0.44 0.44 0 0 1 0.4 0.43l0.01 5.31a0.44 0.44 0 0 0 0.43 0.44l2.39 0.08a0.44 0.44 0 0 0 0.45-0.44l-0.01-9.64a0.44 0.44 0 0 1 0.44-0.44l1.53 0.02a0.44 0.44 0 0 1 0.43 0.43l0.05 12.44a0.44 0.44 0 0 1-0.44 0.44l-12.05-0.01a0.44 0.44 0 0 1-0.44-0.44v-12.43a0.44 0.44 0 0 1 0.48-0.44l1.33 0.12a0.44 0.44 0 0 1 0.4 0.44l0.03 9.51a0.44 0.44 0 0 0 0.46 0.44l1.86-0.1a0.44 0.44 0 0 0 0.42-0.43z" fill="#fff"/>
 </g>
</svg>
