<?xml version="1.0" encoding="UTF-8"?>
<!-- Created with Inkscape (http://www.inkscape.org/) -->
<svg width="53.085mm" height="16.43mm" version="1.1" viewBox="0 0 53.085 16.43" xmlns="http://www.w3.org/2000/svg">
 <g transform="translate(-24.981 -103.05)">
  <ellipse transform="matrix(.99997 -.0074727 0 1 0 0)" cx="49.885" cy="124.68" rx="30.043" ry="5.9503" fill="#F8F8F8" stroke-width=".28524"/>
  <path d="m30.002 108.11 29.961-3.388" fill="#F8F8F8" stroke-width=".26458"/>
  <path d="m24.226 115.74 3.1635 0.93884c1.5503 0.46009 9.4836-1.7892 13.123-2.3675s5.8303 1.9593 9.2864 2.5308c3.456 0.57147 11.333-3.2704 17.124-3.0206 4.0591 0.17508 18.273 0.38097 11.776 3.1431 6.497-2.7825 0.34015 0.20411 0.36737 0.10206 0.02721-0.10205 0.73474-1.1429 0.73474-1.1429l1.5307 1.7348-2.592-0.38778 0.08164 2.2246 0.18368 4.6942-55.126-0.53064z" fill="#f8f8f8" stroke-width=".26458"/>
 </g>
</svg>
