<?xml version="1.0" encoding="UTF-8" standalone="no"?>
<!DOCTYPE svg PUBLIC "-//W3C//DTD SVG 1.1//EN" "http://www.w3.org/Graphics/SVG/1.1/DTD/svg11.dtd">
<svg xmlns="http://www.w3.org/2000/svg" version="1.1" viewBox="0.00 0.00 210.00 310.00">
<g stroke-width="2.00" fill="none" stroke-linecap="butt">
<path stroke="#8d8e8f" vector-effect="non-scaling-stroke" d="
  M 207.23 3.18
  A 0.43 0.43 0.0 0 0 206.80 2.75
  L 3.16 2.75
  A 0.43 0.43 0.0 0 0 2.73 3.18
  L 2.73 306.82
  A 0.43 0.43 0.0 0 0 3.16 307.25
  L 206.80 307.25
  A 0.43 0.43 0.0 0 0 207.23 306.82
  L 207.23 3.18"
/>
<path stroke="#8d8e8f" vector-effect="non-scaling-stroke" d="
  M 56.60 302.09
  A 0.41 0.41 0.0 0 0 57.01 302.50
  L 201.43 302.50
  A 0.41 0.41 0.0 0 0 201.84 302.09
  L 201.88 7.91
  A 0.41 0.41 0.0 0 0 201.47 7.50
  L 57.06 7.49
  A 0.41 0.41 0.0 0 0 56.65 7.90
  L 56.60 302.09"
/>
<path stroke="#8d8e8f" vector-effect="non-scaling-stroke" d="
  M 37.61 16.28
  A 0.61 0.61 0.0 0 0 37.02 16.89
  L 37.00 31.18
  A 0.61 0.61 0.0 0 1 36.39 31.79
  L 18.27 31.78
  A 0.61 0.61 0.0 0 0 17.66 32.41
  L 17.75 35.90
  A 0.61 0.61 0.0 0 0 18.36 36.49
  L 40.83 36.50
  A 0.61 0.61 0.0 0 0 41.44 35.89
  L 41.29 16.78
  A 0.61 0.61 0.0 0 0 40.66 16.17
  L 37.61 16.28"
/>
<path stroke="#8d8e8f" vector-effect="non-scaling-stroke" d="
  M 41.4570 58.1493
  A 0.66 0.66 0.0 0 0 40.7958 57.4904
  L 18.3559 57.5296
  A 0.66 0.66 0.0 0 0 17.6970 58.1907
  L 17.7030 61.6107
  A 0.66 0.66 0.0 0 0 18.3642 62.2696
  L 40.8041 62.2304
  A 0.66 0.66 0.0 0 0 41.4630 61.5693
  L 41.4570 58.1493"
/>
<path stroke="#8d8e8f" vector-effect="non-scaling-stroke" d="
  M 26.54 94.93
  Q 33.16 93.03 38.11 91.05
  Q 45.45 88.10 37.95 85.59
  L 18.28 79.00
  Q 17.62 78.78 17.62 79.47
  L 17.59 82.32
  A 0.94 0.94 0.0 0 0 18.25 83.23
  L 31.81 87.45
  Q 33.89 88.10 31.83 88.80
  Q 25.66 90.88 18.96 93.12
  C 17.02 93.77 16.93 96.93 18.96 97.60
  Q 25.92 99.87 32.27 102.02
  Q 33.76 102.52 32.27 103.01
  L 18.69 107.42
  Q 17.74 107.73 17.69 108.73
  L 17.55 111.98
  A 0.53 0.52 81.9 0 0 18.24 112.50
  L 40.86 104.91
  A 0.95 0.95 0.0 0 0 41.49 104.14
  Q 41.64 103.03 41.40 101.95
  A 0.95 0.95 0.0 0 0 40.79 101.25
  L 26.50 96.25
  Q 24.44 95.53 26.54 94.93"
/>
<path stroke="#8d8e8f" vector-effect="non-scaling-stroke" d="
  M 36.27 148.11
  L 34.98 148.35
  A 0.77 0.76 -5.5 0 0 34.36 149.10
  Q 34.38 150.62 35.06 151.94
  Q 35.31 152.44 35.87 152.49
  Q 41.17 152.92 41.35 147.51
  Q 41.62 139.44 41.01 133.10
  C 40.52 128.02 32.78 129.36 29.49 129.77
  A 2.90 2.90 0.0 0 0 26.94 132.59
  L 26.67 146.27
  A 1.00 0.99 89.1 0 1 25.73 147.25
  L 22.40 147.42
  Q 21.45 147.47 21.45 146.51
  L 21.52 135.24
  Q 21.52 134.75 22.01 134.72
  L 23.04 134.64
  A 0.71 0.71 0.0 0 0 23.71 133.90
  L 23.60 131.54
  A 0.99 0.99 0.0 0 0 22.78 130.60
  Q 18.34 129.84 17.86 134.18
  Q 17.30 139.37 17.91 148.12
  C 18.20 152.32 24.01 151.71 27.19 151.39
  C 29.96 151.11 30.90 149.92 30.97 147.24
  Q 31.23 137.74 31.15 134.82
  Q 31.12 133.72 32.21 133.72
  L 35.84 133.72
  Q 36.96 133.72 36.96 134.84
  L 36.87 147.40
  A 0.73 0.72 -5.3 0 1 36.27 148.11"
/>
<path stroke="#8d8e8f" vector-effect="non-scaling-stroke" d="
  M 41.44 174.36
  A 0.85 0.85 0.0 0 0 40.59 173.51
  L 18.59 173.51
  A 0.85 0.85 0.0 0 0 17.74 174.36
  L 17.74 177.42
  A 0.85 0.85 0.0 0 0 18.59 178.27
  L 40.59 178.27
  A 0.85 0.85 0.0 0 0 41.44 177.42
  L 41.44 174.36"
/>
<path stroke="#8d8e8f" vector-effect="non-scaling-stroke" d="
  M 21.67 209.02
  A 0.81 0.81 0.0 0 1 22.48 208.25
  L 40.64 208.25
  A 0.81 0.81 0.0 0 0 41.45 207.45
  L 41.50 204.32
  A 0.81 0.81 0.0 0 0 40.69 203.50
  L 22.47 203.52
  A 0.81 0.81 0.0 0 1 21.66 202.73
  L 21.50 194.76
  A 0.81 0.81 0.0 0 0 20.66 193.97
  L 18.46 194.05
  A 0.81 0.81 0.0 0 0 17.68 194.87
  L 17.82 216.91
  A 0.81 0.81 0.0 0 0 18.63 217.72
  L 20.49 217.73
  A 0.81 0.81 0.0 0 0 21.31 216.96
  L 21.67 209.02"
/>
<path stroke="#8d8e8f" vector-effect="non-scaling-stroke" d="
  M 21.69 238.49
  L 21.45 230.69
  Q 21.42 229.47 20.19 229.40
  L 19.19 229.35
  Q 17.78 229.28 17.83 230.69
  C 18.05 237.69 17.50 244.54 18.04 251.61
  Q 18.15 253.12 19.67 253.18
  L 19.93 253.19
  A 1.23 1.23 0.0 0 0 21.20 252.02
  L 21.62 244.27
  A 0.61 0.61 0.0 0 1 22.23 243.69
  L 40.47 243.75
  Q 41.45 243.75 41.46 242.78
  L 41.49 240.01
  Q 41.50 239.01 40.51 239.01
  L 22.24 239.02
  Q 21.70 239.02 21.69 238.49"
/>
<path stroke="#8d8e8f" vector-effect="non-scaling-stroke" d="
  M 36.96 284.03
  A 0.78 0.78 0.0 0 1 36.19 284.80
  L 31.35 284.89
  A 0.78 0.78 0.0 0 1 30.56 284.13
  L 30.37 276.00
  A 0.78 0.78 0.0 0 0 29.59 275.24
  L 27.80 275.25
  A 0.78 0.78 0.0 0 0 27.02 276.00
  L 26.75 284.07
  A 0.78 0.78 0.0 0 1 26.00 284.82
  L 22.34 284.94
  A 0.78 0.78 0.0 0 1 21.54 284.17
  L 21.33 268.72
  A 0.78 0.78 0.0 0 0 20.51 267.95
  L 18.44 268.05
  A 0.78 0.78 0.0 0 0 17.70 268.82
  L 17.69 288.71
  A 0.78 0.78 0.0 0 0 18.47 289.49
  L 40.68 289.50
  A 0.78 0.78 0.0 0 0 41.46 288.71
  L 41.30 268.98
  A 0.78 0.78 0.0 0 0 40.48 268.21
  L 37.85 268.33
  A 0.78 0.78 0.0 0 0 37.10 269.11
  L 36.96 284.03"
/>
<path stroke="#f3e1a8" vector-effect="non-scaling-stroke" d="
  M 120.96 116.55
  Q 120.70 117.43 119.26 117.05"
/>
<path stroke="#8c8d8a" vector-effect="non-scaling-stroke" d="
  M 119.26 117.05
  Q 113.06 115.91 105.93 116.85
  Q 87.52 119.29 80.38 134.98
  C 78.09 140.01 77.51 148.22 79.94 153.06
  C 80.45 154.08 80.35 154.91 80.41 155.99
  A 0.74 0.74 0.0 0 0 80.95 156.66
  Q 87.76 158.53 90.78 164.47
  Q 90.98 164.86 90.79 165.16
  Q 90.45 165.70 90.15 165.14
  L 89.72 164.34
  Q 89.49 163.91 89.03 164.08
  L 88.75 164.19
  A 0.39 0.39 0.0 0 0 88.53 164.71
  C 89.49 167.03 90.84 169.45 90.88 171.94
  Q 90.97 178.39 86.74 182.89
  C 83.98 185.83 79.31 187.59 75.41 189.31
  A 0.84 0.84 0.0 0 0 74.93 190.19
  Q 74.98 190.54 75.29 190.66"
/>
<path stroke="#f3e1a8" vector-effect="non-scaling-stroke" d="
  M 75.29 190.66
  Q 75.11 191.64 74.33 191.77"
/>
<path stroke="#8c8d8a" vector-effect="non-scaling-stroke" d="
  M 74.33 191.77
  Q 73.91 191.23 73.43 191.15
  A 0.45 0.44 8.3 0 0 72.92 191.52
  C 71.65 200.95 71.80 209.57 76.10 218.25
  Q 77.43 220.91 78.90 223.50
  C 80.49 226.30 82.99 228.60 85.03 231.40
  Q 86.16 232.95 87.97 234.12
  Q 89.73 235.26 91.26 236.73
  C 92.48 237.91 95.06 237.34 96.26 239.81
  Q 96.49 240.28 97.00 240.38
  C 98.98 240.79 100.23 242.01 101.99 242.93
  C 104.39 244.17 107.18 243.96 109.85 245.40
  A 0.59 0.59 0.0 0 1 109.86 246.42
  L 109.42 246.68
  Q 108.51 247.21 107.64 246.62
  L 105.56 245.22
  Q 105.12 244.93 104.59 244.97
  Q 101.68 245.21 99.61 243.23
  A 0.66 0.65 -33.5 0 0 98.92 243.09
  Q 98.40 243.30 98.38 243.77
  A 0.55 0.55 0.0 0 0 98.72 244.31
  C 101.71 245.55 107.51 248.54 110.55 247.23
  Q 111.01 247.03 111.47 247.26
  C 114.98 249.03 119.19 248.86 123.05 249.57
  Q 123.62 249.68 123.65 250.25
  L 125.12 286.27
  Q 125.14 286.56 125.42 286.56
  L 125.71 286.57
  Q 125.87 286.57 125.88 286.41
  L 126.18 270.86
  Q 126.18 270.61 126.43 270.60
  L 126.69 270.59
  A 0.13 0.13 0.0 0 1 126.82 270.72
  Q 126.88 274.50 127.32 278.26
  C 128.08 284.75 127.41 291.05 127.68 297.51
  A 0.53 0.53 0.0 0 0 128.20 298.02
  L 128.47 298.02
  Q 128.73 298.02 128.71 297.77
  C 128.28 292.50 129.62 286.69 129.16 280.64
  C 128.43 270.90 129.26 260.91 129.49 251.03
  Q 129.50 250.30 130.23 250.32
  Q 140.11 250.48 149.88 247.26
  C 154.49 245.74 158.62 241.91 164.48 239.23
  Q 167.10 238.04 171.85 233.01
  C 173.77 230.97 176.12 227.37 179.02 224.99
  Q 179.37 224.71 179.52 224.28
  Q 180.45 221.66 182.17 219.50
  Q 182.33 219.30 182.49 219.50
  L 182.79 219.89
  Q 183.04 220.21 182.79 220.54
  L 174.81 230.77
  Q 174.34 231.37 174.99 230.97
  Q 178.78 228.59 180.54 224.48
  A 1.67 1.61 86.1 0 1 181.16 223.74
  C 184.18 221.76 182.97 219.30 183.63 216.86
  Q 186.27 207.19 186.73 204.25
  C 189.10 189.33 185.53 172.41 178.24 158.09
  Q 178.02 157.66 177.57 157.49
  Q 175.21 156.61 174.42 158.38"
/>
<path stroke="#d3ddb3" vector-effect="non-scaling-stroke" d="
  M 174.42 158.38
  Q 174.36 158.51 173.85 158.30"
/>
<path stroke="#8c8d8a" vector-effect="non-scaling-stroke" d="
  M 173.85 158.30
  Q 173.60 156.82 174.19 155.35
  Q 174.40 154.83 174.28 154.28
  L 173.37 150.25
  Q 173.24 149.67 172.89 149.20
  L 159.93 132.18
  Q 158.94 130.89 157.56 131.76
  L 156.52 132.41
  A 0.11 0.11 0.0 0 1 156.35 132.29
  Q 157.04 129.16 156.09 127.93
  Q 149.75 119.69 144.69 110.75
  Q 143.85 109.27 145.16 110.35
  Q 145.28 110.46 145.45 110.50
  Q 146.03 110.66 145.74 110.13
  Q 139.05 97.62 137.40 93.84
  Q 133.32 84.51 130.86 71.15
  C 129.68 64.73 129.33 57.35 128.63 50.41
  C 128.46 48.81 127.70 47.56 127.62 45.88
  Q 126.76 25.84 126.87 20.66
  Q 126.95 16.91 125.26 14.21
  Q 124.86 13.57 124.69 14.31
  C 124.24 16.34 124.76 18.81 124.76 20.24
  C 124.77 34.67 123.83 49.59 123.73 63.42
  Q 123.67 72.36 123.60 81.28
  Q 123.60 81.30 123.59 81.30
  L 123.29 81.32
  Q 123.04 81.34 123.02 81.09
  L 122.85 77.77
  Q 122.83 77.46 122.52 77.42
  L 122.15 77.39
  Q 121.95 77.37 121.94 77.57
  L 120.96 116.55"
/>
<path stroke="#606a3e" vector-effect="non-scaling-stroke" d="
  M 173.85 158.30
  Q 173.20 159.36 173.13 160.63
  Q 173.11 160.93 172.81 160.94
  L 172.28 160.96
  Q 171.98 160.97 172.02 160.67
  C 172.38 157.81 172.80 155.35 171.13 152.74
  C 169.14 149.63 167.30 146.59 165.04 143.59
  Q 160.41 137.44 159.12 134.90
  Q 158.13 132.96 156.53 133.47
  A 1.42 1.42 0.0 0 1 154.80 131.51
  C 155.44 130.14 155.32 129.08 154.24 127.92
  Q 143.85 116.82 137.07 103.19
  Q 135.44 99.90 130.69 87.08"
/>
<path stroke="#303423" vector-effect="non-scaling-stroke" d="
  M 130.69 87.08
  Q 130.09 84.90 129.19 81.53
  Q 129.08 81.12 128.75 81.02
  Q 128.24 80.85 128.22 81.39
  Q 128.01 86.35 127.14 94.00
  Q 126.66 98.25 128.62 102.21
  C 129.82 104.63 128.46 106.80 128.87 109.29
  Q 129.61 113.84 129.75 118.49"
/>
<path stroke="#606a3e" vector-effect="non-scaling-stroke" d="
  M 129.75 118.49
  Q 130.53 133.77 129.59 149.09
  C 129.48 150.89 130.06 152.77 129.96 154.69
  Q 129.81 157.53 129.90 158.83
  C 130.18 162.57 129.44 166.01 129.89 169.68
  C 130.72 176.57 129.82 182.71 129.81 189.50
  Q 129.78 199.58 129.77 209.66
  C 129.75 220.61 128.04 232.68 129.63 242.73
  A 1.49 1.48 81.5 0 0 131.30 243.97
  C 134.60 243.50 138.54 243.61 141.52 242.71
  C 143.32 242.16 145.16 242.43 146.80 241.82
  C 153.77 239.24 159.15 235.93 165.23 231.41
  C 167.76 229.53 169.34 227.24 171.40 224.88
  C 177.26 218.15 180.62 209.33 182.43 201.29
  Q 182.54 200.81 182.98 201.02
  Q 183.25 201.14 183.27 201.51
  Q 183.43 204.65 181.82 207.79
  Q 181.56 208.29 181.63 208.85
  Q 181.73 209.73 181.21 210.43
  Q 180.90 210.86 180.80 211.38
  C 180.10 215.30 177.64 218.11 176.44 221.67
  Q 176.04 222.86 176.74 221.81
  C 178.69 218.91 180.38 216.27 181.34 212.73
  Q 182.46 208.60 183.71 204.50
  C 184.11 203.20 183.49 201.30 183.86 199.53
  C 184.91 194.61 184.21 188.28 183.72 183.31
  C 182.88 174.85 180.43 167.24 176.71 159.82
  A 0.73 0.72 66.6 0 0 175.82 159.46
  Q 174.68 159.89 174.42 158.38"
/>
<path stroke="#806f33" vector-effect="non-scaling-stroke" d="
  M 74.33 191.77
  Q 74.94 192.73 74.92 193.26
  C 74.41 203.02 74.75 209.52 78.87 217.86
  C 79.53 219.19 80.64 220.22 81.46 221.53
  C 83.33 224.53 85.90 226.88 87.80 229.94
  Q 88.75 231.48 93.38 233.27
  Q 93.85 233.45 94.07 233.90
  Q 94.50 234.77 95.01 234.99
  Q 97.15 235.88 99.30 237.28
  Q 99.69 237.54 99.51 237.10
  C 98.70 235.15 96.54 235.13 95.15 234.16
  Q 91.54 231.66 88.03 229.01
  Q 87.67 228.74 87.57 228.30
  Q 87.45 227.75 87.01 227.24
  Q 84.97 224.87 84.14 223.89
  Q 81.16 220.40 79.66 216.08
  Q 79.56 215.78 79.85 215.65
  L 80.09 215.55
  Q 80.15 215.52 80.18 215.58
  Q 85.22 225.39 94.28 231.69
  Q 97.10 233.66 99.97 235.58
  C 102.33 237.16 105.06 237.60 107.67 238.93
  C 110.31 240.27 113.10 240.44 115.70 242.15
  Q 116.19 242.47 116.69 242.17
  L 117.26 241.84
  A 1.00 0.98 33.2 0 1 117.91 241.71
  L 123.64 242.58
  Q 124.12 242.65 124.21 242.18
  Q 124.68 239.62 124.59 238.00
  Q 123.25 215.69 124.10 193.36
  C 124.21 190.51 123.86 187.08 124.09 183.91
  Q 124.29 181.31 123.98 178.60
  C 123.67 175.90 124.20 172.74 123.62 170.21
  Q 123.05 167.68 122.59 170.24
  Q 122.47 170.88 122.53 172.75
  Q 122.87 184.15 121.89 195.50
  C 121.38 201.47 121.77 207.52 121.41 213.62
  Q 121.40 213.82 121.20 213.82
  L 120.90 213.81
  Q 120.83 213.81 120.83 213.74
  Q 120.78 210.61 119.62 202.31
  C 118.45 193.93 119.41 182.96 119.73 172.25
  Q 120.09 160.68 120.91 124.50
  Q 121.04 118.89 120.96 116.55"
/>
<path stroke="#77844d" vector-effect="non-scaling-stroke" d="
  M 130.69 87.08
  Q 129.72 91.48 130.08 99.19
  Q 130.27 103.26 129.75 118.49"
/>
<path stroke="#806f33" vector-effect="non-scaling-stroke" d="
  M 119.26 117.05
  Q 114.59 119.04 109.55 119.64
  Q 102.94 120.44 101.57 120.86
  C 93.22 123.41 88.36 128.73 84.54 136.68
  A 0.61 0.61 0.0 0 1 83.95 137.02
  Q 83.78 137.01 83.61 136.92
  Q 83.21 136.70 82.94 137.08
  C 79.74 141.71 79.78 149.61 80.92 154.74
  A 0.92 0.92 0.0 0 0 81.56 155.42
  C 86.21 156.68 90.74 158.70 93.14 163.10
  C 98.40 172.74 93.64 184.36 83.72 188.91
  C 81.09 190.12 78.22 190.03 75.29 190.66"
/>
<path stroke="#8d8e8f" vector-effect="non-scaling-stroke" d="
  M 103.73 33.49
  Q 103.25 33.31 102.93 32.94
  Q 102.49 32.44 102.28 33.07
  Q 102.19 33.31 102.21 33.58
  Q 102.23 33.95 102.59 34.37
  Q 103.59 35.58 104.74 36.63
  A 0.86 0.86 0.0 0 0 105.46 36.84
  Q 113.13 35.48 120.87 36.29
  A 1.68 1.68 0.0 0 0 122.46 35.53
  L 123.40 34.06
  Q 123.95 33.20 122.93 33.14
  L 108.59 32.37
  Q 108.04 32.34 107.76 31.86
  Q 106.22 29.25 105.63 26.29
  A 0.59 0.58 -9.5 0 0 104.96 25.82
  L 104.65 25.86
  A 0.37 0.36 85.4 0 0 104.35 26.22
  L 104.46 32.97
  Q 104.47 33.77 103.73 33.49"
/>
<path stroke="#8d8e8f" vector-effect="non-scaling-stroke" d="
  M 106.42 46.60
  L 107.94 46.81
  Q 108.65 46.90 108.22 46.33
  Q 107.04 44.75 107.58 42.72
  A 0.67 0.67 0.0 0 0 107.03 41.89
  L 103.86 41.39
  Q 103.18 41.29 102.86 41.88
  Q 101.71 43.98 101.75 46.41
  A 0.88 0.86 16.8 0 0 102.15 47.14
  L 104.72 48.80
  A 0.69 0.68 18.2 0 0 105.78 48.27
  L 105.84 47.08
  Q 105.87 46.53 106.42 46.60"
/>
<path stroke="#8d8e8f" vector-effect="non-scaling-stroke" d="
  M 112.52 44.97
  L 112.54 45.75
  A 0.70 0.70 0.0 0 0 113.54 46.37
  Q 116.26 45.06 119.23 45.69
  A 1.92 1.92 0.0 0 0 121.51 44.24
  L 121.59 43.87
  A 1.18 1.17 -76.6 0 0 120.74 42.47
  C 118.42 41.89 111.18 40.84 109.88 43.56
  Q 109.34 44.67 110.57 44.53
  L 111.85 44.38
  Q 112.51 44.30 112.52 44.97"
/>
<path stroke="#8d8e8f" vector-effect="non-scaling-stroke" d="
  M 110.13 56.28
  L 110.38 57.28
  Q 110.56 58.02 111.23 57.66
  Q 113.71 56.32 116.58 56.78
  Q 118.19 57.05 118.87 55.56
  L 119.02 55.22
  Q 119.70 53.73 118.08 53.56
  C 114.38 53.16 109.57 51.71 106.88 55.21
  Q 105.94 56.44 107.42 55.98
  Q 108.41 55.68 109.46 55.73
  Q 110.00 55.75 110.13 56.28"
/>
<path stroke="#8c8d8a" vector-effect="non-scaling-stroke" d="
  M 103.76 58.12
  L 102.16 57.99
  Q 101.37 57.92 101.77 58.60
  L 102.73 60.20
  Q 102.97 60.61 103.03 61.07
  Q 103.14 61.87 103.01 62.67
  A 0.72 0.72 0.0 0 0 103.71 63.50
  L 107.03 63.50
  Q 107.59 63.50 107.72 62.96
  L 108.72 58.98
  A 0.79 0.78 22.6 0 0 108.36 58.12
  Q 107.12 57.35 106.22 56.23
  A 1.03 1.03 0.0 0 0 104.38 56.87
  L 104.38 57.56
  Q 104.38 58.18 103.76 58.12"
/>
<path stroke="#8d8e8f" vector-effect="non-scaling-stroke" d="
  M 86.21 233.97
  A 0.02 0.02 0.0 0 0 86.18 233.98
  C 86.01 234.82 86.43 235.46 87.24 235.80
  Q 89.62 236.82 91.20 238.86
  A 1.03 1.02 -17.3 0 0 91.93 239.24
  Q 92.92 239.30 93.78 239.81
  A 0.29 0.29 0.0 0 0 94.19 239.67
  L 94.29 239.41
  A 0.23 0.22 30.0 0 0 94.21 239.13
  L 86.21 233.97"
/>
<path stroke="#606a3e" vector-effect="non-scaling-stroke" d="
  M 125.42 132.64
  Q 125.47 132.52 125.56 132.43
  Q 125.62 132.37 125.57 132.32
  Q 125.54 132.29 125.52 132.26
  Q 125.43 132.17 125.40 132.26
  Q 124.28 136.29 124.64 140.49
  Q 124.64 140.49 124.76 140.49
  L 124.76 140.49
  Q 124.89 140.48 124.89 140.36
  Q 124.89 139.24 124.89 138.11
  C 124.88 136.33 125.62 134.84 125.40 132.88
  Q 125.38 132.73 125.42 132.64"
/>
<path stroke="#303423" vector-effect="non-scaling-stroke" d="
  M 122.9467 166.7385
  A 1.31 0.51 97.6 0 0 123.6255 165.5075
  A 1.31 0.51 97.6 0 0 123.2933 164.1415
  A 1.31 0.51 97.6 0 0 122.6145 165.3725
  A 1.31 0.51 97.6 0 0 122.9467 166.7385"
/>
<path stroke="#606a3e" vector-effect="non-scaling-stroke" d="
  M 125.09 167.21
  Q 124.95 167.67 125.12 168.14
  A 0.29 0.29 0.0 0 0 125.65 168.17
  Q 126.03 167.43 125.55 167.06
  Q 125.22 166.80 125.09 167.21"
/>
<path stroke="#606a3e" vector-effect="non-scaling-stroke" d="
  M 125.3199 173.7293
  A 1.69 0.45 91.7 0 0 125.8198 172.0533
  A 1.69 0.45 91.7 0 0 125.4201 170.3507
  A 1.69 0.45 91.7 0 0 124.9202 172.0267
  A 1.69 0.45 91.7 0 0 125.3199 173.7293"
/>
<path stroke="#606a3e" vector-effect="non-scaling-stroke" d="
  M 129.12 175.87
  L 128.54 175.86
  A 0.16 0.16 0.0 0 0 128.37 176.01
  L 128.37 176.13
  A 6.72 0.42 -88.9 0 0 128.66 182.86
  L 128.72 182.86
  A 6.72 0.42 -88.9 0 0 129.27 176.15
  L 129.27 176.03
  A 0.16 0.16 0.0 0 0 129.12 175.87"
/>
<path stroke="#606a3e" vector-effect="non-scaling-stroke" d="
  M 126.48 191.53
  Q 126.57 191.95 126.79 191.59
  C 127.38 190.63 126.71 188.97 126.65 187.97
  A 0.06 0.06 0.0 0 0 126.53 187.96
  Q 126.09 189.79 126.48 191.53"
/>
<path stroke="#606a3e" vector-effect="non-scaling-stroke" d="
  M 126.0845 204.0294
  A 5.66 0.66 93.5 0 0 127.0888 198.4203
  A 5.66 0.66 93.5 0 0 126.7755 192.7306
  A 5.66 0.66 93.5 0 0 125.7712 198.3397
  A 5.66 0.66 93.5 0 0 126.0845 204.0294"
/>
<path stroke="#606a3e" vector-effect="non-scaling-stroke" d="
  M 126.43 217.25
  C 126.92 219.94 125.69 223.56 126.51 226.23
  Q 126.85 227.33 126.89 226.18
  Q 127.11 218.84 127.07 211.50
  Q 127.06 210.51 126.58 209.63
  A 1.02 0.99 -49.1 0 1 126.53 208.73
  Q 127.20 207.11 127.08 205.30
  Q 126.98 203.91 126.24 205.09
  C 124.80 207.40 125.95 210.09 125.96 212.27
  Q 125.97 214.79 126.43 217.25"
/>
<path stroke="#606a3e" vector-effect="non-scaling-stroke" d="
  M 174.16 224.65
  L 175.47 223.30
  Q 175.87 222.89 175.34 223.10
  Q 174.34 223.50 173.93 224.49
  Q 173.65 225.18 174.16 224.65"
/>
<path stroke="#606a3e" vector-effect="non-scaling-stroke" d="
  M 168.6529 230.2605
  A 3.35 0.35 135.2 0 0 171.2766 228.1483
  A 3.35 0.35 135.2 0 0 173.4071 225.5395
  A 3.35 0.35 135.2 0 0 170.7834 227.6517
  A 3.35 0.35 135.2 0 0 168.6529 230.2605"
/>
<path stroke="#606a3e" vector-effect="non-scaling-stroke" d="
  M 166.6184 232.3050
  A 1.47 0.38 -38.0 0 0 165.2260 232.9106
  A 1.47 0.38 -38.0 0 0 164.3016 234.1150
  A 1.47 0.38 -38.0 0 0 165.6940 233.5094
  A 1.47 0.38 -38.0 0 0 166.6184 232.3050"
/>
<path stroke="#606a3e" vector-effect="non-scaling-stroke" d="
  M 106.4322 240.0097
  A 2.55 0.33 20.9 0 0 104.1677 238.7917
  A 2.55 0.33 20.9 0 0 101.6678 238.1903
  A 2.55 0.33 20.9 0 0 103.9323 239.4083
  A 2.55 0.33 20.9 0 0 106.4322 240.0097"
/>
<path stroke="#606a3e" vector-effect="non-scaling-stroke" d="
  M 125.96 241.75
  Q 125.79 241.91 125.91 242.13
  Q 126.12 242.53 126.45 242.23
  Q 127.03 241.70 126.54 240.82
  Q 126.35 240.47 126.17 240.82
  Q 126.06 241.01 126.12 241.25
  Q 126.20 241.55 125.96 241.75"
/>
<path stroke="#606a3e" vector-effect="non-scaling-stroke" d="
  M 117.99 243.58
  Q 119.98 244.04 122.04 243.93
  A 0.31 0.31 0.0 0 0 122.33 243.62
  L 122.32 243.33
  Q 122.31 243.11 122.09 243.11
  L 118.04 243.15
  Q 116.14 243.16 117.99 243.58"
/>
<path stroke="#606a3e" vector-effect="non-scaling-stroke" d="
  M 148.81 151.12
  A 0.36 0.35 -66.5 0 1 148.57 150.50
  L 152.38 147.11
  Q 153.85 145.81 151.94 146.26
  C 145.51 147.79 139.26 154.53 134.80 159.53
  Q 133.86 160.58 135.25 160.76
  L 136.36 160.90
  A 3.30 3.29 -63.6 0 0 139.11 159.97
  Q 143.66 155.44 149.22 152.24
  A 0.51 0.51 0.0 0 0 149.42 151.55
  Q 149.20 151.12 148.81 151.12"
/>
<path stroke="#606a3e" vector-effect="non-scaling-stroke" d="
  M 158.38 177.13
  A 1.13 1.13 0.0 0 1 158.75 175.74
  L 166.07 170.56
  A 0.41 0.41 0.0 0 0 165.99 169.84
  Q 165.52 169.65 164.97 169.90
  C 153.10 175.14 142.93 183.94 133.04 192.02
  Q 132.22 192.69 133.27 192.81
  C 135.81 193.11 137.72 192.29 139.85 190.66
  Q 148.25 184.19 157.42 178.96
  Q 158.84 178.15 158.38 177.13"
/>
<path stroke="#606a3e" vector-effect="non-scaling-stroke" d="
  M 135.18 220.63
  C 136.83 220.74 138.13 221.23 139.55 220.26
  Q 148.38 214.25 154.27 211.29
  Q 155.75 210.55 155.73 209.13
  Q 155.72 208.51 156.23 208.18
  L 162.02 204.37
  A 0.30 0.30 0.0 0 0 162.13 204.00
  L 162.02 203.74
  Q 161.92 203.52 161.69 203.58
  C 152.12 206.07 142.39 213.70 134.80 219.97
  A 0.35 0.34 42.3 0 0 134.83 220.52
  Q 134.98 220.62 135.18 220.63"
/>
<path stroke="#978942" vector-effect="non-scaling-stroke" d="
  M 100.47 177.56
  Q 100.31 179.10 100.92 180.23"
/>
<path stroke="#806f33" vector-effect="non-scaling-stroke" d="
  M 100.92 180.23
  Q 101.71 187.67 97.46 193.05
  A 2.48 2.47 -54.0 0 1 94.14 193.58
  Q 93.02 192.83 91.71 193.13
  Q 91.21 193.24 90.87 192.86
  Q 90.56 192.52 90.11 192.37
  A 0.31 0.31 0.0 0 0 89.75 192.82
  C 91.73 196.27 95.48 197.99 99.09 195.47
  C 103.57 192.35 105.18 186.29 105.29 181.08
  C 105.36 177.95 104.36 173.05 104.62 168.76
  A 1.65 1.65 0.0 0 1 106.91 167.34
  Q 108.00 167.80 108.51 167.84
  Q 111.27 168.02 108.82 166.72
  C 106.02 165.22 102.51 166.18 102.14 169.76
  Q 101.97 171.44 102.00 173.16
  Q 102.00 173.89 101.44 173.43
  Q 101.04 173.12 100.62 172.32
  A 0.27 0.27 0.0 0 0 100.12 172.40
  Q 99.69 175.02 100.47 177.56"
/>
<path stroke="#303423" vector-effect="non-scaling-stroke" d="
  M 100.92 180.23
  Q 102.04 179.37 101.37 177.75
  Q 101.19 177.31 100.47 177.56"
/>
<path stroke="#c7bf5c" vector-effect="non-scaling-stroke" d="
  M 77.0580 206.7605
  A 0.42 0.42 0.0 0 0 76.5406 206.4690
  L 76.4442 206.4959
  A 0.42 0.42 0.0 0 0 76.1527 207.0133
  L 77.4220 211.5595
  A 0.42 0.42 0.0 0 0 77.9394 211.8510
  L 78.0358 211.8241
  A 0.42 0.42 0.0 0 0 78.3273 211.3067
  L 77.0580 206.7605"
/>
</g>
<path fill="#ffffff" d="
  M 0.00 0.00
  L 210.00 0.00
  L 210.00 310.00
  L 0.00 310.00
  L 0.00 0.00
  Z
  M 207.23 3.18
  A 0.43 0.43 0.0 0 0 206.80 2.75
  L 3.16 2.75
  A 0.43 0.43 0.0 0 0 2.73 3.18
  L 2.73 306.82
  A 0.43 0.43 0.0 0 0 3.16 307.25
  L 206.80 307.25
  A 0.43 0.43 0.0 0 0 207.23 306.82
  L 207.23 3.18
  Z"
/>
<path fill="#1b1c1e" d="
  M 207.23 306.82
  A 0.43 0.43 0.0 0 1 206.80 307.25
  L 3.16 307.25
  A 0.43 0.43 0.0 0 1 2.73 306.82
  L 2.73 3.18
  A 0.43 0.43 0.0 0 1 3.16 2.75
  L 206.80 2.75
  A 0.43 0.43 0.0 0 1 207.23 3.18
  L 207.23 306.82
  Z
  M 56.60 302.09
  A 0.41 0.41 0.0 0 0 57.01 302.50
  L 201.43 302.50
  A 0.41 0.41 0.0 0 0 201.84 302.09
  L 201.88 7.91
  A 0.41 0.41 0.0 0 0 201.47 7.50
  L 57.06 7.49
  A 0.41 0.41 0.0 0 0 56.65 7.90
  L 56.60 302.09
  Z
  M 37.61 16.28
  A 0.61 0.61 0.0 0 0 37.02 16.89
  L 37.00 31.18
  A 0.61 0.61 0.0 0 1 36.39 31.79
  L 18.27 31.78
  A 0.61 0.61 0.0 0 0 17.66 32.41
  L 17.75 35.90
  A 0.61 0.61 0.0 0 0 18.36 36.49
  L 40.83 36.50
  A 0.61 0.61 0.0 0 0 41.44 35.89
  L 41.29 16.78
  A 0.61 0.61 0.0 0 0 40.66 16.17
  L 37.61 16.28
  Z
  M 41.4570 58.1493
  A 0.66 0.66 0.0 0 0 40.7958 57.4904
  L 18.3559 57.5296
  A 0.66 0.66 0.0 0 0 17.6970 58.1907
  L 17.7030 61.6107
  A 0.66 0.66 0.0 0 0 18.3642 62.2696
  L 40.8041 62.2304
  A 0.66 0.66 0.0 0 0 41.4630 61.5693
  L 41.4570 58.1493
  Z
  M 26.54 94.93
  Q 33.16 93.03 38.11 91.05
  Q 45.45 88.10 37.95 85.59
  L 18.28 79.00
  Q 17.62 78.78 17.62 79.47
  L 17.59 82.32
  A 0.94 0.94 0.0 0 0 18.25 83.23
  L 31.81 87.45
  Q 33.89 88.10 31.83 88.80
  Q 25.66 90.88 18.96 93.12
  C 17.02 93.77 16.93 96.93 18.96 97.60
  Q 25.92 99.87 32.27 102.02
  Q 33.76 102.52 32.27 103.01
  L 18.69 107.42
  Q 17.74 107.73 17.69 108.73
  L 17.55 111.98
  A 0.53 0.52 81.9 0 0 18.24 112.50
  L 40.86 104.91
  A 0.95 0.95 0.0 0 0 41.49 104.14
  Q 41.64 103.03 41.40 101.95
  A 0.95 0.95 0.0 0 0 40.79 101.25
  L 26.50 96.25
  Q 24.44 95.53 26.54 94.93
  Z
  M 36.27 148.11
  L 34.98 148.35
  A 0.77 0.76 -5.5 0 0 34.36 149.10
  Q 34.38 150.62 35.06 151.94
  Q 35.31 152.44 35.87 152.49
  Q 41.17 152.92 41.35 147.51
  Q 41.62 139.44 41.01 133.10
  C 40.52 128.02 32.78 129.36 29.49 129.77
  A 2.90 2.90 0.0 0 0 26.94 132.59
  L 26.67 146.27
  A 1.00 0.99 89.1 0 1 25.73 147.25
  L 22.40 147.42
  Q 21.45 147.47 21.45 146.51
  L 21.52 135.24
  Q 21.52 134.75 22.01 134.72
  L 23.04 134.64
  A 0.71 0.71 0.0 0 0 23.71 133.90
  L 23.60 131.54
  A 0.99 0.99 0.0 0 0 22.78 130.60
  Q 18.34 129.84 17.86 134.18
  Q 17.30 139.37 17.91 148.12
  C 18.20 152.32 24.01 151.71 27.19 151.39
  C 29.96 151.11 30.90 149.92 30.97 147.24
  Q 31.23 137.74 31.15 134.82
  Q 31.12 133.72 32.21 133.72
  L 35.84 133.72
  Q 36.96 133.72 36.96 134.84
  L 36.87 147.40
  A 0.73 0.72 -5.3 0 1 36.27 148.11
  Z
  M 41.44 174.36
  A 0.85 0.85 0.0 0 0 40.59 173.51
  L 18.59 173.51
  A 0.85 0.85 0.0 0 0 17.74 174.36
  L 17.74 177.42
  A 0.85 0.85 0.0 0 0 18.59 178.27
  L 40.59 178.27
  A 0.85 0.85 0.0 0 0 41.44 177.42
  L 41.44 174.36
  Z
  M 21.67 209.02
  A 0.81 0.81 0.0 0 1 22.48 208.25
  L 40.64 208.25
  A 0.81 0.81 0.0 0 0 41.45 207.45
  L 41.50 204.32
  A 0.81 0.81 0.0 0 0 40.69 203.50
  L 22.47 203.52
  A 0.81 0.81 0.0 0 1 21.66 202.73
  L 21.50 194.76
  A 0.81 0.81 0.0 0 0 20.66 193.97
  L 18.46 194.05
  A 0.81 0.81 0.0 0 0 17.68 194.87
  L 17.82 216.91
  A 0.81 0.81 0.0 0 0 18.63 217.72
  L 20.49 217.73
  A 0.81 0.81 0.0 0 0 21.31 216.96
  L 21.67 209.02
  Z
  M 21.69 238.49
  L 21.45 230.69
  Q 21.42 229.47 20.19 229.40
  L 19.19 229.35
  Q 17.78 229.28 17.83 230.69
  C 18.05 237.69 17.50 244.54 18.04 251.61
  Q 18.15 253.12 19.67 253.18
  L 19.93 253.19
  A 1.23 1.23 0.0 0 0 21.20 252.02
  L 21.62 244.27
  A 0.61 0.61 0.0 0 1 22.23 243.69
  L 40.47 243.75
  Q 41.45 243.75 41.46 242.78
  L 41.49 240.01
  Q 41.50 239.01 40.51 239.01
  L 22.24 239.02
  Q 21.70 239.02 21.69 238.49
  Z
  M 36.96 284.03
  A 0.78 0.78 0.0 0 1 36.19 284.80
  L 31.35 284.89
  A 0.78 0.78 0.0 0 1 30.56 284.13
  L 30.37 276.00
  A 0.78 0.78 0.0 0 0 29.59 275.24
  L 27.80 275.25
  A 0.78 0.78 0.0 0 0 27.02 276.00
  L 26.75 284.07
  A 0.78 0.78 0.0 0 1 26.00 284.82
  L 22.34 284.94
  A 0.78 0.78 0.0 0 1 21.54 284.17
  L 21.33 268.72
  A 0.78 0.78 0.0 0 0 20.51 267.95
  L 18.44 268.05
  A 0.78 0.78 0.0 0 0 17.70 268.82
  L 17.69 288.71
  A 0.78 0.78 0.0 0 0 18.47 289.49
  L 40.68 289.50
  A 0.78 0.78 0.0 0 0 41.46 288.71
  L 41.30 268.98
  A 0.78 0.78 0.0 0 0 40.48 268.21
  L 37.85 268.33
  A 0.78 0.78 0.0 0 0 37.10 269.11
  L 36.96 284.03
  Z"
/>
<path fill="#ffffff" d="
  M 56.60 302.09
  L 56.65 7.90
  A 0.41 0.41 0.0 0 1 57.06 7.49
  L 201.47 7.50
  A 0.41 0.41 0.0 0 1 201.88 7.91
  L 201.84 302.09
  A 0.41 0.41 0.0 0 1 201.43 302.50
  L 57.01 302.50
  A 0.41 0.41 0.0 0 1 56.60 302.09
  Z
  M 120.96 116.55
  Q 120.70 117.43 119.26 117.05
  Q 113.06 115.91 105.93 116.85
  Q 87.52 119.29 80.38 134.98
  C 78.09 140.01 77.51 148.22 79.94 153.06
  C 80.45 154.08 80.35 154.91 80.41 155.99
  A 0.74 0.74 0.0 0 0 80.95 156.66
  Q 87.76 158.53 90.78 164.47
  Q 90.98 164.86 90.79 165.16
  Q 90.45 165.70 90.15 165.14
  L 89.72 164.34
  Q 89.49 163.91 89.03 164.08
  L 88.75 164.19
  A 0.39 0.39 0.0 0 0 88.53 164.71
  C 89.49 167.03 90.84 169.45 90.88 171.94
  Q 90.97 178.39 86.74 182.89
  C 83.98 185.83 79.31 187.59 75.41 189.31
  A 0.84 0.84 0.0 0 0 74.93 190.19
  Q 74.98 190.54 75.29 190.66
  Q 75.11 191.64 74.33 191.77
  Q 73.91 191.23 73.43 191.15
  A 0.45 0.44 8.3 0 0 72.92 191.52
  C 71.65 200.95 71.80 209.57 76.10 218.25
  Q 77.43 220.91 78.90 223.50
  C 80.49 226.30 82.99 228.60 85.03 231.40
  Q 86.16 232.95 87.97 234.12
  Q 89.73 235.26 91.26 236.73
  C 92.48 237.91 95.06 237.34 96.26 239.81
  Q 96.49 240.28 97.00 240.38
  C 98.98 240.79 100.23 242.01 101.99 242.93
  C 104.39 244.17 107.18 243.96 109.85 245.40
  A 0.59 0.59 0.0 0 1 109.86 246.42
  L 109.42 246.68
  Q 108.51 247.21 107.64 246.62
  L 105.56 245.22
  Q 105.12 244.93 104.59 244.97
  Q 101.68 245.21 99.61 243.23
  A 0.66 0.65 -33.5 0 0 98.92 243.09
  Q 98.40 243.30 98.38 243.77
  A 0.55 0.55 0.0 0 0 98.72 244.31
  C 101.71 245.55 107.51 248.54 110.55 247.23
  Q 111.01 247.03 111.47 247.26
  C 114.98 249.03 119.19 248.86 123.05 249.57
  Q 123.62 249.68 123.65 250.25
  L 125.12 286.27
  Q 125.14 286.56 125.42 286.56
  L 125.71 286.57
  Q 125.87 286.57 125.88 286.41
  L 126.18 270.86
  Q 126.18 270.61 126.43 270.60
  L 126.69 270.59
  A 0.13 0.13 0.0 0 1 126.82 270.72
  Q 126.88 274.50 127.32 278.26
  C 128.08 284.75 127.41 291.05 127.68 297.51
  A 0.53 0.53 0.0 0 0 128.20 298.02
  L 128.47 298.02
  Q 128.73 298.02 128.71 297.77
  C 128.28 292.50 129.62 286.69 129.16 280.64
  C 128.43 270.90 129.26 260.91 129.49 251.03
  Q 129.50 250.30 130.23 250.32
  Q 140.11 250.48 149.88 247.26
  C 154.49 245.74 158.62 241.91 164.48 239.23
  Q 167.10 238.04 171.85 233.01
  C 173.77 230.97 176.12 227.37 179.02 224.99
  Q 179.37 224.71 179.52 224.28
  Q 180.45 221.66 182.17 219.50
  Q 182.33 219.30 182.49 219.50
  L 182.79 219.89
  Q 183.04 220.21 182.79 220.54
  L 174.81 230.77
  Q 174.34 231.37 174.99 230.97
  Q 178.78 228.59 180.54 224.48
  A 1.67 1.61 86.1 0 1 181.16 223.74
  C 184.18 221.76 182.97 219.30 183.63 216.86
  Q 186.27 207.19 186.73 204.25
  C 189.10 189.33 185.53 172.41 178.24 158.09
  Q 178.02 157.66 177.57 157.49
  Q 175.21 156.61 174.42 158.38
  Q 174.36 158.51 173.85 158.30
  Q 173.60 156.82 174.19 155.35
  Q 174.40 154.83 174.28 154.28
  L 173.37 150.25
  Q 173.24 149.67 172.89 149.20
  L 159.93 132.18
  Q 158.94 130.89 157.56 131.76
  L 156.52 132.41
  A 0.11 0.11 0.0 0 1 156.35 132.29
  Q 157.04 129.16 156.09 127.93
  Q 149.75 119.69 144.69 110.75
  Q 143.85 109.27 145.16 110.35
  Q 145.28 110.46 145.45 110.50
  Q 146.03 110.66 145.74 110.13
  Q 139.05 97.62 137.40 93.84
  Q 133.32 84.51 130.86 71.15
  C 129.68 64.73 129.33 57.35 128.63 50.41
  C 128.46 48.81 127.70 47.56 127.62 45.88
  Q 126.76 25.84 126.87 20.66
  Q 126.95 16.91 125.26 14.21
  Q 124.86 13.57 124.69 14.31
  C 124.24 16.34 124.76 18.81 124.76 20.24
  C 124.77 34.67 123.83 49.59 123.73 63.42
  Q 123.67 72.36 123.60 81.28
  Q 123.60 81.30 123.59 81.30
  L 123.29 81.32
  Q 123.04 81.34 123.02 81.09
  L 122.85 77.77
  Q 122.83 77.46 122.52 77.42
  L 122.15 77.39
  Q 121.95 77.37 121.94 77.57
  L 120.96 116.55
  Z
  M 103.73 33.49
  Q 103.25 33.31 102.93 32.94
  Q 102.49 32.44 102.28 33.07
  Q 102.19 33.31 102.21 33.58
  Q 102.23 33.95 102.59 34.37
  Q 103.59 35.58 104.74 36.63
  A 0.86 0.86 0.0 0 0 105.46 36.84
  Q 113.13 35.48 120.87 36.29
  A 1.68 1.68 0.0 0 0 122.46 35.53
  L 123.40 34.06
  Q 123.95 33.20 122.93 33.14
  L 108.59 32.37
  Q 108.04 32.34 107.76 31.86
  Q 106.22 29.25 105.63 26.29
  A 0.59 0.58 -9.5 0 0 104.96 25.82
  L 104.65 25.86
  A 0.37 0.36 85.4 0 0 104.35 26.22
  L 104.46 32.97
  Q 104.47 33.77 103.73 33.49
  Z
  M 106.42 46.60
  L 107.94 46.81
  Q 108.65 46.90 108.22 46.33
  Q 107.04 44.75 107.58 42.72
  A 0.67 0.67 0.0 0 0 107.03 41.89
  L 103.86 41.39
  Q 103.18 41.29 102.86 41.88
  Q 101.71 43.98 101.75 46.41
  A 0.88 0.86 16.8 0 0 102.15 47.14
  L 104.72 48.80
  A 0.69 0.68 18.2 0 0 105.78 48.27
  L 105.84 47.08
  Q 105.87 46.53 106.42 46.60
  Z
  M 112.52 44.97
  L 112.54 45.75
  A 0.70 0.70 0.0 0 0 113.54 46.37
  Q 116.26 45.06 119.23 45.69
  A 1.92 1.92 0.0 0 0 121.51 44.24
  L 121.59 43.87
  A 1.18 1.17 -76.6 0 0 120.74 42.47
  C 118.42 41.89 111.18 40.84 109.88 43.56
  Q 109.34 44.67 110.57 44.53
  L 111.85 44.38
  Q 112.51 44.30 112.52 44.97
  Z
  M 110.13 56.28
  L 110.38 57.28
  Q 110.56 58.02 111.23 57.66
  Q 113.71 56.32 116.58 56.78
  Q 118.19 57.05 118.87 55.56
  L 119.02 55.22
  Q 119.70 53.73 118.08 53.56
  C 114.38 53.16 109.57 51.71 106.88 55.21
  Q 105.94 56.44 107.42 55.98
  Q 108.41 55.68 109.46 55.73
  Q 110.00 55.75 110.13 56.28
  Z
  M 103.76 58.12
  L 102.16 57.99
  Q 101.37 57.92 101.77 58.60
  L 102.73 60.20
  Q 102.97 60.61 103.03 61.07
  Q 103.14 61.87 103.01 62.67
  A 0.72 0.72 0.0 0 0 103.71 63.50
  L 107.03 63.50
  Q 107.59 63.50 107.72 62.96
  L 108.72 58.98
  A 0.79 0.78 22.6 0 0 108.36 58.12
  Q 107.12 57.35 106.22 56.23
  A 1.03 1.03 0.0 0 0 104.38 56.87
  L 104.38 57.56
  Q 104.38 58.18 103.76 58.12
  Z
  M 86.21 233.97
  A 0.02 0.02 0.0 0 0 86.18 233.98
  C 86.01 234.82 86.43 235.46 87.24 235.80
  Q 89.62 236.82 91.20 238.86
  A 1.03 1.02 -17.3 0 0 91.93 239.24
  Q 92.92 239.30 93.78 239.81
  A 0.29 0.29 0.0 0 0 94.19 239.67
  L 94.29 239.41
  A 0.23 0.22 30.0 0 0 94.21 239.13
  L 86.21 233.97
  Z"
/>
<path fill="#191a14" d="
  M 173.85 158.30
  Q 173.20 159.36 173.13 160.63
  Q 173.11 160.93 172.81 160.94
  L 172.28 160.96
  Q 171.98 160.97 172.02 160.67
  C 172.38 157.81 172.80 155.35 171.13 152.74
  C 169.14 149.63 167.30 146.59 165.04 143.59
  Q 160.41 137.44 159.12 134.90
  Q 158.13 132.96 156.53 133.47
  A 1.42 1.42 0.0 0 1 154.80 131.51
  C 155.44 130.14 155.32 129.08 154.24 127.92
  Q 143.85 116.82 137.07 103.19
  Q 135.44 99.90 130.69 87.08
  Q 130.09 84.90 129.19 81.53
  Q 129.08 81.12 128.75 81.02
  Q 128.24 80.85 128.22 81.39
  Q 128.01 86.35 127.14 94.00
  Q 126.66 98.25 128.62 102.21
  C 129.82 104.63 128.46 106.80 128.87 109.29
  Q 129.61 113.84 129.75 118.49
  Q 130.53 133.77 129.59 149.09
  C 129.48 150.89 130.06 152.77 129.96 154.69
  Q 129.81 157.53 129.90 158.83
  C 130.18 162.57 129.44 166.01 129.89 169.68
  C 130.72 176.57 129.82 182.71 129.81 189.50
  Q 129.78 199.58 129.77 209.66
  C 129.75 220.61 128.04 232.68 129.63 242.73
  A 1.49 1.48 81.5 0 0 131.30 243.97
  C 134.60 243.50 138.54 243.61 141.52 242.71
  C 143.32 242.16 145.16 242.43 146.80 241.82
  C 153.77 239.24 159.15 235.93 165.23 231.41
  C 167.76 229.53 169.34 227.24 171.40 224.88
  C 177.26 218.15 180.62 209.33 182.43 201.29
  Q 182.54 200.81 182.98 201.02
  Q 183.25 201.14 183.27 201.51
  Q 183.43 204.65 181.82 207.79
  Q 181.56 208.29 181.63 208.85
  Q 181.73 209.73 181.21 210.43
  Q 180.90 210.86 180.80 211.38
  C 180.10 215.30 177.64 218.11 176.44 221.67
  Q 176.04 222.86 176.74 221.81
  C 178.69 218.91 180.38 216.27 181.34 212.73
  Q 182.46 208.60 183.71 204.50
  C 184.11 203.20 183.49 201.30 183.86 199.53
  C 184.91 194.61 184.21 188.28 183.72 183.31
  C 182.88 174.85 180.43 167.24 176.71 159.82
  A 0.73 0.72 66.6 0 0 175.82 159.46
  Q 174.68 159.89 174.42 158.38
  Q 175.21 156.61 177.57 157.49
  Q 178.02 157.66 178.24 158.09
  C 185.53 172.41 189.10 189.33 186.73 204.25
  Q 186.27 207.19 183.63 216.86
  C 182.97 219.30 184.18 221.76 181.16 223.74
  A 1.67 1.61 86.1 0 0 180.54 224.48
  Q 178.78 228.59 174.99 230.97
  Q 174.34 231.37 174.81 230.77
  L 182.79 220.54
  Q 183.04 220.21 182.79 219.89
  L 182.49 219.50
  Q 182.33 219.30 182.17 219.50
  Q 180.45 221.66 179.52 224.28
  Q 179.37 224.71 179.02 224.99
  C 176.12 227.37 173.77 230.97 171.85 233.01
  Q 167.10 238.04 164.48 239.23
  C 158.62 241.91 154.49 245.74 149.88 247.26
  Q 140.11 250.48 130.23 250.32
  Q 129.50 250.30 129.49 251.03
  C 129.26 260.91 128.43 270.90 129.16 280.64
  C 129.62 286.69 128.28 292.50 128.71 297.77
  Q 128.73 298.02 128.47 298.02
  L 128.20 298.02
  A 0.53 0.53 0.0 0 1 127.68 297.51
  C 127.41 291.05 128.08 284.75 127.32 278.26
  Q 126.88 274.50 126.82 270.72
  A 0.13 0.13 0.0 0 0 126.69 270.59
  L 126.43 270.60
  Q 126.18 270.61 126.18 270.86
  L 125.88 286.41
  Q 125.87 286.57 125.71 286.57
  L 125.42 286.56
  Q 125.14 286.56 125.12 286.27
  L 123.65 250.25
  Q 123.62 249.68 123.05 249.57
  C 119.19 248.86 114.98 249.03 111.47 247.26
  Q 111.01 247.03 110.55 247.23
  C 107.51 248.54 101.71 245.55 98.72 244.31
  A 0.55 0.55 0.0 0 1 98.38 243.77
  Q 98.40 243.30 98.92 243.09
  A 0.66 0.65 -33.5 0 1 99.61 243.23
  Q 101.68 245.21 104.59 244.97
  Q 105.12 244.93 105.56 245.22
  L 107.64 246.62
  Q 108.51 247.21 109.42 246.68
  L 109.86 246.42
  A 0.59 0.59 0.0 0 0 109.85 245.40
  C 107.18 243.96 104.39 244.17 101.99 242.93
  C 100.23 242.01 98.98 240.79 97.00 240.38
  Q 96.49 240.28 96.26 239.81
  C 95.06 237.34 92.48 237.91 91.26 236.73
  Q 89.73 235.26 87.97 234.12
  Q 86.16 232.95 85.03 231.40
  C 82.99 228.60 80.49 226.30 78.90 223.50
  Q 77.43 220.91 76.10 218.25
  C 71.80 209.57 71.65 200.95 72.92 191.52
  A 0.45 0.44 8.3 0 1 73.43 191.15
  Q 73.91 191.23 74.33 191.77
  Q 74.94 192.73 74.92 193.26
  C 74.41 203.02 74.75 209.52 78.87 217.86
  C 79.53 219.19 80.64 220.22 81.46 221.53
  C 83.33 224.53 85.90 226.88 87.80 229.94
  Q 88.75 231.48 93.38 233.27
  Q 93.85 233.45 94.07 233.90
  Q 94.50 234.77 95.01 234.99
  Q 97.15 235.88 99.30 237.28
  Q 99.69 237.54 99.51 237.10
  C 98.70 235.15 96.54 235.13 95.15 234.16
  Q 91.54 231.66 88.03 229.01
  Q 87.67 228.74 87.57 228.30
  Q 87.45 227.75 87.01 227.24
  Q 84.97 224.87 84.14 223.89
  Q 81.16 220.40 79.66 216.08
  Q 79.56 215.78 79.85 215.65
  L 80.09 215.55
  Q 80.15 215.52 80.18 215.58
  Q 85.22 225.39 94.28 231.69
  Q 97.10 233.66 99.97 235.58
  C 102.33 237.16 105.06 237.60 107.67 238.93
  C 110.31 240.27 113.10 240.44 115.70 242.15
  Q 116.19 242.47 116.69 242.17
  L 117.26 241.84
  A 1.00 0.98 33.2 0 1 117.91 241.71
  L 123.64 242.58
  Q 124.12 242.65 124.21 242.18
  Q 124.68 239.62 124.59 238.00
  Q 123.25 215.69 124.10 193.36
  C 124.21 190.51 123.86 187.08 124.09 183.91
  Q 124.29 181.31 123.98 178.60
  C 123.67 175.90 124.20 172.74 123.62 170.21
  Q 123.05 167.68 122.59 170.24
  Q 122.47 170.88 122.53 172.75
  Q 122.87 184.15 121.89 195.50
  C 121.38 201.47 121.77 207.52 121.41 213.62
  Q 121.40 213.82 121.20 213.82
  L 120.90 213.81
  Q 120.83 213.81 120.83 213.74
  Q 120.78 210.61 119.62 202.31
  C 118.45 193.93 119.41 182.96 119.73 172.25
  Q 120.09 160.68 120.91 124.50
  Q 121.04 118.89 120.96 116.55
  L 121.94 77.57
  Q 121.95 77.37 122.15 77.39
  L 122.52 77.42
  Q 122.83 77.46 122.85 77.77
  L 123.02 81.09
  Q 123.04 81.34 123.29 81.32
  L 123.59 81.30
  Q 123.60 81.30 123.60 81.28
  Q 123.67 72.36 123.73 63.42
  C 123.83 49.59 124.77 34.67 124.76 20.24
  C 124.76 18.81 124.24 16.34 124.69 14.31
  Q 124.86 13.57 125.26 14.21
  Q 126.95 16.91 126.87 20.66
  Q 126.76 25.84 127.62 45.88
  C 127.70 47.56 128.46 48.81 128.63 50.41
  C 129.33 57.35 129.68 64.73 130.86 71.15
  Q 133.32 84.51 137.40 93.84
  Q 139.05 97.62 145.74 110.13
  Q 146.03 110.66 145.45 110.50
  Q 145.28 110.46 145.16 110.35
  Q 143.85 109.27 144.69 110.75
  Q 149.75 119.69 156.09 127.93
  Q 157.04 129.16 156.35 132.29
  A 0.11 0.11 0.0 0 0 156.52 132.41
  L 157.56 131.76
  Q 158.94 130.89 159.93 132.18
  L 172.89 149.20
  Q 173.24 149.67 173.37 150.25
  L 174.28 154.28
  Q 174.40 154.83 174.19 155.35
  Q 173.60 156.82 173.85 158.30
  Z
  M 125.42 132.64
  Q 125.47 132.52 125.56 132.43
  Q 125.62 132.37 125.57 132.32
  Q 125.54 132.29 125.52 132.26
  Q 125.43 132.17 125.40 132.26
  Q 124.28 136.29 124.64 140.49
  Q 124.64 140.49 124.76 140.49
  L 124.76 140.49
  Q 124.89 140.48 124.89 140.36
  Q 124.89 139.24 124.89 138.11
  C 124.88 136.33 125.62 134.84 125.40 132.88
  Q 125.38 132.73 125.42 132.64
  Z
  M 122.9467 166.7385
  A 1.31 0.51 97.6 0 0 123.6255 165.5075
  A 1.31 0.51 97.6 0 0 123.2933 164.1415
  A 1.31 0.51 97.6 0 0 122.6145 165.3725
  A 1.31 0.51 97.6 0 0 122.9467 166.7385
  Z
  M 125.09 167.21
  Q 124.95 167.67 125.12 168.14
  A 0.29 0.29 0.0 0 0 125.65 168.17
  Q 126.03 167.43 125.55 167.06
  Q 125.22 166.80 125.09 167.21
  Z
  M 125.3199 173.7293
  A 1.69 0.45 91.7 0 0 125.8198 172.0533
  A 1.69 0.45 91.7 0 0 125.4201 170.3507
  A 1.69 0.45 91.7 0 0 124.9202 172.0267
  A 1.69 0.45 91.7 0 0 125.3199 173.7293
  Z
  M 129.12 175.87
  L 128.54 175.86
  A 0.16 0.16 0.0 0 0 128.37 176.01
  L 128.37 176.13
  A 6.72 0.42 -88.9 0 0 128.66 182.86
  L 128.72 182.86
  A 6.72 0.42 -88.9 0 0 129.27 176.15
  L 129.27 176.03
  A 0.16 0.16 0.0 0 0 129.12 175.87
  Z
  M 126.48 191.53
  Q 126.57 191.95 126.79 191.59
  C 127.38 190.63 126.71 188.97 126.65 187.97
  A 0.06 0.06 0.0 0 0 126.53 187.96
  Q 126.09 189.79 126.48 191.53
  Z
  M 126.0845 204.0294
  A 5.66 0.66 93.5 0 0 127.0888 198.4203
  A 5.66 0.66 93.5 0 0 126.7755 192.7306
  A 5.66 0.66 93.5 0 0 125.7712 198.3397
  A 5.66 0.66 93.5 0 0 126.0845 204.0294
  Z
  M 126.43 217.25
  C 126.92 219.94 125.69 223.56 126.51 226.23
  Q 126.85 227.33 126.89 226.18
  Q 127.11 218.84 127.07 211.50
  Q 127.06 210.51 126.58 209.63
  A 1.02 0.99 -49.1 0 1 126.53 208.73
  Q 127.20 207.11 127.08 205.30
  Q 126.98 203.91 126.24 205.09
  C 124.80 207.40 125.95 210.09 125.96 212.27
  Q 125.97 214.79 126.43 217.25
  Z
  M 174.16 224.65
  L 175.47 223.30
  Q 175.87 222.89 175.34 223.10
  Q 174.34 223.50 173.93 224.49
  Q 173.65 225.18 174.16 224.65
  Z
  M 168.6529 230.2605
  A 3.35 0.35 135.2 0 0 171.2766 228.1483
  A 3.35 0.35 135.2 0 0 173.4071 225.5395
  A 3.35 0.35 135.2 0 0 170.7834 227.6517
  A 3.35 0.35 135.2 0 0 168.6529 230.2605
  Z
  M 166.6184 232.3050
  A 1.47 0.38 -38.0 0 0 165.2260 232.9106
  A 1.47 0.38 -38.0 0 0 164.3016 234.1150
  A 1.47 0.38 -38.0 0 0 165.6940 233.5094
  A 1.47 0.38 -38.0 0 0 166.6184 232.3050
  Z
  M 106.4322 240.0097
  A 2.55 0.33 20.9 0 0 104.1677 238.7917
  A 2.55 0.33 20.9 0 0 101.6678 238.1903
  A 2.55 0.33 20.9 0 0 103.9323 239.4083
  A 2.55 0.33 20.9 0 0 106.4322 240.0097
  Z
  M 125.96 241.75
  Q 125.79 241.91 125.91 242.13
  Q 126.12 242.53 126.45 242.23
  Q 127.03 241.70 126.54 240.82
  Q 126.35 240.47 126.17 240.82
  Q 126.06 241.01 126.12 241.25
  Q 126.20 241.55 125.96 241.75
  Z
  M 117.99 243.58
  Q 119.98 244.04 122.04 243.93
  A 0.31 0.31 0.0 0 0 122.33 243.62
  L 122.32 243.33
  Q 122.31 243.11 122.09 243.11
  L 118.04 243.15
  Q 116.14 243.16 117.99 243.58
  Z"
/>
<path fill="#ffffff" d="
  M 37.61 16.28
  L 40.66 16.17
  A 0.61 0.61 0.0 0 1 41.29 16.78
  L 41.44 35.89
  A 0.61 0.61 0.0 0 1 40.83 36.50
  L 18.36 36.49
  A 0.61 0.61 0.0 0 1 17.75 35.90
  L 17.66 32.41
  A 0.61 0.61 0.0 0 1 18.27 31.78
  L 36.39 31.79
  A 0.61 0.61 0.0 0 0 37.00 31.18
  L 37.02 16.89
  A 0.61 0.61 0.0 0 1 37.61 16.28
  Z"
/>
<path fill="#1b1c1e" d="
  M 104.46 32.97
  L 104.35 26.22
  A 0.37 0.36 85.4 0 1 104.65 25.86
  L 104.96 25.82
  A 0.59 0.58 -9.5 0 1 105.63 26.29
  Q 106.22 29.25 107.76 31.86
  Q 108.04 32.34 108.59 32.37
  L 122.93 33.14
  Q 123.95 33.20 123.40 34.06
  L 122.46 35.53
  A 1.68 1.68 0.0 0 1 120.87 36.29
  Q 113.13 35.48 105.46 36.84
  A 0.86 0.86 0.0 0 1 104.74 36.63
  Q 103.59 35.58 102.59 34.37
  Q 102.23 33.95 102.21 33.58
  Q 102.19 33.31 102.28 33.07
  Q 102.49 32.44 102.93 32.94
  Q 103.25 33.31 103.73 33.49
  Q 104.47 33.77 104.46 32.97
  Z"
/>
<path fill="#1b1c1e" d="
  M 105.84 47.08
  L 105.78 48.27
  A 0.69 0.68 18.2 0 1 104.72 48.80
  L 102.15 47.14
  A 0.88 0.86 16.8 0 1 101.75 46.41
  Q 101.71 43.98 102.86 41.88
  Q 103.18 41.29 103.86 41.39
  L 107.03 41.89
  A 0.67 0.67 0.0 0 1 107.58 42.72
  Q 107.04 44.75 108.22 46.33
  Q 108.65 46.90 107.94 46.81
  L 106.42 46.60
  Q 105.87 46.53 105.84 47.08
  Z"
/>
<path fill="#1b1c1e" d="
  M 111.85 44.38
  L 110.57 44.53
  Q 109.34 44.67 109.88 43.56
  C 111.18 40.84 118.42 41.89 120.74 42.47
  A 1.18 1.17 -76.6 0 1 121.59 43.87
  L 121.51 44.24
  A 1.92 1.92 0.0 0 1 119.23 45.69
  Q 116.26 45.06 113.54 46.37
  A 0.70 0.70 0.0 0 1 112.54 45.75
  L 112.52 44.97
  Q 112.51 44.30 111.85 44.38
  Z"
/>
<path fill="#1b1c1e" d="
  M 109.46 55.73
  Q 108.41 55.68 107.42 55.98
  Q 105.94 56.44 106.88 55.21
  C 109.57 51.71 114.38 53.16 118.08 53.56
  Q 119.70 53.73 119.02 55.22
  L 118.87 55.56
  Q 118.19 57.05 116.58 56.78
  Q 113.71 56.32 111.23 57.66
  Q 110.56 58.02 110.38 57.28
  L 110.13 56.28
  Q 110.00 55.75 109.46 55.73
  Z"
/>
<path fill="#191a14" d="
  M 104.38 57.56
  L 104.38 56.87
  A 1.03 1.03 0.0 0 1 106.22 56.23
  Q 107.12 57.35 108.36 58.12
  A 0.79 0.78 22.6 0 1 108.72 58.98
  L 107.72 62.96
  Q 107.59 63.50 107.03 63.50
  L 103.71 63.50
  A 0.72 0.72 0.0 0 1 103.01 62.67
  Q 103.14 61.87 103.03 61.07
  Q 102.97 60.61 102.73 60.20
  L 101.77 58.60
  Q 101.37 57.92 102.16 57.99
  L 103.76 58.12
  Q 104.38 58.18 104.38 57.56
  Z"
/>
<rect fill="#ffffff" x="-11.88" y="-2.37" transform="translate(29.58,59.88) rotate(-0.1)" width="23.76" height="4.74" rx="0.66"/>
<path fill="#ffffff" d="
  M 26.54 94.93
  Q 24.44 95.53 26.50 96.25
  L 40.79 101.25
  A 0.95 0.95 0.0 0 1 41.40 101.95
  Q 41.64 103.03 41.49 104.14
  A 0.95 0.95 0.0 0 1 40.86 104.91
  L 18.24 112.50
  A 0.53 0.52 81.9 0 1 17.55 111.98
  L 17.69 108.73
  Q 17.74 107.73 18.69 107.42
  L 32.27 103.01
  Q 33.76 102.52 32.27 102.02
  Q 25.92 99.87 18.96 97.60
  C 16.93 96.93 17.02 93.77 18.96 93.12
  Q 25.66 90.88 31.83 88.80
  Q 33.89 88.10 31.81 87.45
  L 18.25 83.23
  A 0.94 0.94 0.0 0 1 17.59 82.32
  L 17.62 79.47
  Q 17.62 78.78 18.28 79.00
  L 37.95 85.59
  Q 45.45 88.10 38.11 91.05
  Q 33.16 93.03 26.54 94.93
  Z"
/>
<path fill="#474e32" d="
  M 130.69 87.08
  Q 129.72 91.48 130.08 99.19
  Q 130.27 103.26 129.75 118.49
  Q 129.61 113.84 128.87 109.29
  C 128.46 106.80 129.82 104.63 128.62 102.21
  Q 126.66 98.25 127.14 94.00
  Q 128.01 86.35 128.22 81.39
  Q 128.24 80.85 128.75 81.02
  Q 129.08 81.12 129.19 81.53
  Q 130.09 84.90 130.69 87.08
  Z"
/>
<path fill="#a7ba67" d="
  M 130.69 87.08
  Q 135.44 99.90 137.07 103.19
  Q 143.85 116.82 154.24 127.92
  C 155.32 129.08 155.44 130.14 154.80 131.51
  A 1.42 1.42 0.0 0 0 156.53 133.47
  Q 158.13 132.96 159.12 134.90
  Q 160.41 137.44 165.04 143.59
  C 167.30 146.59 169.14 149.63 171.13 152.74
  C 172.80 155.35 172.38 157.81 172.02 160.67
  Q 171.98 160.97 172.28 160.96
  L 172.81 160.94
  Q 173.11 160.93 173.13 160.63
  Q 173.20 159.36 173.85 158.30
  Q 174.36 158.51 174.42 158.38
  Q 174.68 159.89 175.82 159.46
  A 0.73 0.72 66.6 0 1 176.71 159.82
  C 180.43 167.24 182.88 174.85 183.72 183.31
  C 184.21 188.28 184.91 194.61 183.86 199.53
  C 183.49 201.30 184.11 203.20 183.71 204.50
  Q 182.46 208.60 181.34 212.73
  C 180.38 216.27 178.69 218.91 176.74 221.81
  Q 176.04 222.86 176.44 221.67
  C 177.64 218.11 180.10 215.30 180.80 211.38
  Q 180.90 210.86 181.21 210.43
  Q 181.73 209.73 181.63 208.85
  Q 181.56 208.29 181.82 207.79
  Q 183.43 204.65 183.27 201.51
  Q 183.25 201.14 182.98 201.02
  Q 182.54 200.81 182.43 201.29
  C 180.62 209.33 177.26 218.15 171.40 224.88
  C 169.34 227.24 167.76 229.53 165.23 231.41
  C 159.15 235.93 153.77 239.24 146.80 241.82
  C 145.16 242.43 143.32 242.16 141.52 242.71
  C 138.54 243.61 134.60 243.50 131.30 243.97
  A 1.49 1.48 81.5 0 1 129.63 242.73
  C 128.04 232.68 129.75 220.61 129.77 209.66
  Q 129.78 199.58 129.81 189.50
  C 129.82 182.71 130.72 176.57 129.89 169.68
  C 129.44 166.01 130.18 162.57 129.90 158.83
  Q 129.81 157.53 129.96 154.69
  C 130.06 152.77 129.48 150.89 129.59 149.09
  Q 130.53 133.77 129.75 118.49
  Q 130.27 103.26 130.08 99.19
  Q 129.72 91.48 130.69 87.08
  Z
  M 148.81 151.12
  A 0.36 0.35 -66.5 0 1 148.57 150.50
  L 152.38 147.11
  Q 153.85 145.81 151.94 146.26
  C 145.51 147.79 139.26 154.53 134.80 159.53
  Q 133.86 160.58 135.25 160.76
  L 136.36 160.90
  A 3.30 3.29 -63.6 0 0 139.11 159.97
  Q 143.66 155.44 149.22 152.24
  A 0.51 0.51 0.0 0 0 149.42 151.55
  Q 149.20 151.12 148.81 151.12
  Z
  M 158.38 177.13
  A 1.13 1.13 0.0 0 1 158.75 175.74
  L 166.07 170.56
  A 0.41 0.41 0.0 0 0 165.99 169.84
  Q 165.52 169.65 164.97 169.90
  C 153.10 175.14 142.93 183.94 133.04 192.02
  Q 132.22 192.69 133.27 192.81
  C 135.81 193.11 137.72 192.29 139.85 190.66
  Q 148.25 184.19 157.42 178.96
  Q 158.84 178.15 158.38 177.13
  Z
  M 135.18 220.63
  C 136.83 220.74 138.13 221.23 139.55 220.26
  Q 148.38 214.25 154.27 211.29
  Q 155.75 210.55 155.73 209.13
  Q 155.72 208.51 156.23 208.18
  L 162.02 204.37
  A 0.30 0.30 0.0 0 0 162.13 204.00
  L 162.02 203.74
  Q 161.92 203.52 161.69 203.58
  C 152.12 206.07 142.39 213.70 134.80 219.97
  A 0.35 0.34 42.3 0 0 134.83 220.52
  Q 134.98 220.62 135.18 220.63
  Z"
/>
<path fill="#191a14" d="
  M 119.26 117.05
  Q 114.59 119.04 109.55 119.64
  Q 102.94 120.44 101.57 120.86
  C 93.22 123.41 88.36 128.73 84.54 136.68
  A 0.61 0.61 0.0 0 1 83.95 137.02
  Q 83.78 137.01 83.61 136.92
  Q 83.21 136.70 82.94 137.08
  C 79.74 141.71 79.78 149.61 80.92 154.74
  A 0.92 0.92 0.0 0 0 81.56 155.42
  C 86.21 156.68 90.74 158.70 93.14 163.10
  C 98.40 172.74 93.64 184.36 83.72 188.91
  C 81.09 190.12 78.22 190.03 75.29 190.66
  Q 74.98 190.54 74.93 190.19
  A 0.84 0.84 0.0 0 1 75.41 189.31
  C 79.31 187.59 83.98 185.83 86.74 182.89
  Q 90.97 178.39 90.88 171.94
  C 90.84 169.45 89.49 167.03 88.53 164.71
  A 0.39 0.39 0.0 0 1 88.75 164.19
  L 89.03 164.08
  Q 89.49 163.91 89.72 164.34
  L 90.15 165.14
  Q 90.45 165.70 90.79 165.16
  Q 90.98 164.86 90.78 164.47
  Q 87.76 158.53 80.95 156.66
  A 0.74 0.74 0.0 0 1 80.41 155.99
  C 80.35 154.91 80.45 154.08 79.94 153.06
  C 77.51 148.22 78.09 140.01 80.38 134.98
  Q 87.52 119.29 105.93 116.85
  Q 113.06 115.91 119.26 117.05
  Z"
/>
<path fill="#e6c351" d="
  M 120.96 116.55
  Q 121.04 118.89 120.91 124.50
  Q 120.09 160.68 119.73 172.25
  C 119.41 182.96 118.45 193.93 119.62 202.31
  Q 120.78 210.61 120.83 213.74
  Q 120.83 213.81 120.90 213.81
  L 121.20 213.82
  Q 121.40 213.82 121.41 213.62
  C 121.77 207.52 121.38 201.47 121.89 195.50
  Q 122.87 184.15 122.53 172.75
  Q 122.47 170.88 122.59 170.24
  Q 123.05 167.68 123.62 170.21
  C 124.20 172.74 123.67 175.90 123.98 178.60
  Q 124.29 181.31 124.09 183.91
  C 123.86 187.08 124.21 190.51 124.10 193.36
  Q 123.25 215.69 124.59 238.00
  Q 124.68 239.62 124.21 242.18
  Q 124.12 242.65 123.64 242.58
  L 117.91 241.71
  A 1.00 0.98 33.2 0 0 117.26 241.84
  L 116.69 242.17
  Q 116.19 242.47 115.70 242.15
  C 113.10 240.44 110.31 240.27 107.67 238.93
  C 105.06 237.60 102.33 237.16 99.97 235.58
  Q 97.10 233.66 94.28 231.69
  Q 85.22 225.39 80.18 215.58
  Q 80.15 215.52 80.09 215.55
  L 79.85 215.65
  Q 79.56 215.78 79.66 216.08
  Q 81.16 220.40 84.14 223.89
  Q 84.97 224.87 87.01 227.24
  Q 87.45 227.75 87.57 228.30
  Q 87.67 228.74 88.03 229.01
  Q 91.54 231.66 95.15 234.16
  C 96.54 235.13 98.70 235.15 99.51 237.10
  Q 99.69 237.54 99.30 237.28
  Q 97.15 235.88 95.01 234.99
  Q 94.50 234.77 94.07 233.90
  Q 93.85 233.45 93.38 233.27
  Q 88.75 231.48 87.80 229.94
  C 85.90 226.88 83.33 224.53 81.46 221.53
  C 80.64 220.22 79.53 219.19 78.87 217.86
  C 74.75 209.52 74.41 203.02 74.92 193.26
  Q 74.94 192.73 74.33 191.77
  Q 75.11 191.64 75.29 190.66
  C 78.22 190.03 81.09 190.12 83.72 188.91
  C 93.64 184.36 98.40 172.74 93.14 163.10
  C 90.74 158.70 86.21 156.68 81.56 155.42
  A 0.92 0.92 0.0 0 1 80.92 154.74
  C 79.78 149.61 79.74 141.71 82.94 137.08
  Q 83.21 136.70 83.61 136.92
  Q 83.78 137.01 83.95 137.02
  A 0.61 0.61 0.0 0 0 84.54 136.68
  C 88.36 128.73 93.22 123.41 101.57 120.86
  Q 102.94 120.44 109.55 119.64
  Q 114.59 119.04 119.26 117.05
  Q 120.70 117.43 120.96 116.55
  Z
  M 100.47 177.56
  Q 100.31 179.10 100.92 180.23
  Q 101.71 187.67 97.46 193.05
  A 2.48 2.47 -54.0 0 1 94.14 193.58
  Q 93.02 192.83 91.71 193.13
  Q 91.21 193.24 90.87 192.86
  Q 90.56 192.52 90.11 192.37
  A 0.31 0.31 0.0 0 0 89.75 192.82
  C 91.73 196.27 95.48 197.99 99.09 195.47
  C 103.57 192.35 105.18 186.29 105.29 181.08
  C 105.36 177.95 104.36 173.05 104.62 168.76
  A 1.65 1.65 0.0 0 1 106.91 167.34
  Q 108.00 167.80 108.51 167.84
  Q 111.27 168.02 108.82 166.72
  C 106.02 165.22 102.51 166.18 102.14 169.76
  Q 101.97 171.44 102.00 173.16
  Q 102.00 173.89 101.44 173.43
  Q 101.04 173.12 100.62 172.32
  A 0.27 0.27 0.0 0 0 100.12 172.40
  Q 99.69 175.02 100.47 177.56
  Z
  M 77.0580 206.7605
  A 0.42 0.42 0.0 0 0 76.5406 206.4690
  L 76.4442 206.4959
  A 0.42 0.42 0.0 0 0 76.1527 207.0133
  L 77.4220 211.5595
  A 0.42 0.42 0.0 0 0 77.9394 211.8510
  L 78.0358 211.8241
  A 0.42 0.42 0.0 0 0 78.3273 211.3067
  L 77.0580 206.7605
  Z"
/>
<path fill="#ffffff" d="
  M 36.87 147.40
  L 36.96 134.84
  Q 36.96 133.72 35.84 133.72
  L 32.21 133.72
  Q 31.12 133.72 31.15 134.82
  Q 31.23 137.74 30.97 147.24
  C 30.90 149.92 29.96 151.11 27.19 151.39
  C 24.01 151.71 18.20 152.32 17.91 148.12
  Q 17.30 139.37 17.86 134.18
  Q 18.34 129.84 22.78 130.60
  A 0.99 0.99 0.0 0 1 23.60 131.54
  L 23.71 133.90
  A 0.71 0.71 0.0 0 1 23.04 134.64
  L 22.01 134.72
  Q 21.52 134.75 21.52 135.24
  L 21.45 146.51
  Q 21.45 147.47 22.40 147.42
  L 25.73 147.25
  A 1.00 0.99 89.1 0 0 26.67 146.27
  L 26.94 132.59
  A 2.90 2.90 0.0 0 1 29.49 129.77
  C 32.78 129.36 40.52 128.02 41.01 133.10
  Q 41.62 139.44 41.35 147.51
  Q 41.17 152.92 35.87 152.49
  Q 35.31 152.44 35.06 151.94
  Q 34.38 150.62 34.36 149.10
  A 0.77 0.76 -5.5 0 1 34.98 148.35
  L 36.27 148.11
  A 0.73 0.72 -5.3 0 0 36.87 147.40
  Z"
/>
<path fill="#a7ba67" d="
  M 125.40 132.88
  C 125.62 134.84 124.88 136.33 124.89 138.11
  Q 124.89 139.24 124.89 140.36
  Q 124.89 140.48 124.76 140.49
  L 124.76 140.49
  Q 124.64 140.49 124.64 140.49
  Q 124.28 136.29 125.40 132.26
  Q 125.43 132.17 125.52 132.26
  Q 125.54 132.29 125.57 132.32
  Q 125.62 132.37 125.56 132.43
  Q 125.47 132.52 125.42 132.64
  Q 125.38 132.73 125.40 132.88
  Z"
/>
<path fill="#191a14" d="
  M 148.81 151.12
  Q 149.20 151.12 149.42 151.55
  A 0.51 0.51 0.0 0 1 149.22 152.24
  Q 143.66 155.44 139.11 159.97
  A 3.30 3.29 -63.6 0 1 136.36 160.90
  L 135.25 160.76
  Q 133.86 160.58 134.80 159.53
  C 139.26 154.53 145.51 147.79 151.94 146.26
  Q 153.85 145.81 152.38 147.11
  L 148.57 150.50
  A 0.36 0.35 -66.5 0 0 148.81 151.12
  Z"
/>
<ellipse fill="#474e32" cx="0.00" cy="0.00" transform="translate(123.12,165.44) rotate(97.6)" rx="1.31" ry="0.51"/>
<path fill="#191a14" d="
  M 100.92 180.23
  Q 102.04 179.37 101.37 177.75
  Q 101.19 177.31 100.47 177.56
  Q 99.69 175.02 100.12 172.40
  A 0.27 0.27 0.0 0 1 100.62 172.32
  Q 101.04 173.12 101.44 173.43
  Q 102.00 173.89 102.00 173.16
  Q 101.97 171.44 102.14 169.76
  C 102.51 166.18 106.02 165.22 108.82 166.72
  Q 111.27 168.02 108.51 167.84
  Q 108.00 167.80 106.91 167.34
  A 1.65 1.65 0.0 0 0 104.62 168.76
  C 104.36 173.05 105.36 177.95 105.29 181.08
  C 105.18 186.29 103.57 192.35 99.09 195.47
  C 95.48 197.99 91.73 196.27 89.75 192.82
  A 0.31 0.31 0.0 0 1 90.11 192.37
  Q 90.56 192.52 90.87 192.86
  Q 91.21 193.24 91.71 193.13
  Q 93.02 192.83 94.14 193.58
  A 2.48 2.47 -54.0 0 0 97.46 193.05
  Q 101.71 187.67 100.92 180.23
  Z"
/>
<path fill="#a7ba67" d="
  M 125.55 167.06
  Q 126.03 167.43 125.65 168.17
  A 0.29 0.29 0.0 0 1 125.12 168.14
  Q 124.95 167.67 125.09 167.21
  Q 125.22 166.80 125.55 167.06
  Z"
/>
<path fill="#191a14" d="
  M 158.38 177.13
  Q 158.84 178.15 157.42 178.96
  Q 148.25 184.19 139.85 190.66
  C 137.72 192.29 135.81 193.11 133.27 192.81
  Q 132.22 192.69 133.04 192.02
  C 142.93 183.94 153.10 175.14 164.97 169.90
  Q 165.52 169.65 165.99 169.84
  A 0.41 0.41 0.0 0 1 166.07 170.56
  L 158.75 175.74
  A 1.13 1.13 0.0 0 0 158.38 177.13
  Z"
/>
<ellipse fill="#a7ba67" cx="0.00" cy="0.00" transform="translate(125.37,172.04) rotate(91.7)" rx="1.69" ry="0.45"/>
<rect fill="#ffffff" x="17.74" y="173.51" width="23.70" height="4.76" rx="0.85"/>
<path fill="#a7ba67" d="
  M 129.12 175.87
  A 0.16 0.16 0.0 0 1 129.27 176.03
  L 129.27 176.15
  A 6.72 0.42 -88.9 0 1 128.72 182.86
  L 128.66 182.86
  A 6.72 0.42 -88.9 0 1 128.37 176.13
  L 128.37 176.01
  A 0.16 0.16 0.0 0 1 128.54 175.86
  L 129.12 175.87
  Z"
/>
<path fill="#474e32" d="
  M 100.47 177.56
  Q 101.19 177.31 101.37 177.75
  Q 102.04 179.37 100.92 180.23
  Q 100.31 179.10 100.47 177.56
  Z"
/>
<path fill="#a7ba67" d="
  M 126.48 191.53
  Q 126.09 189.79 126.53 187.96
  A 0.06 0.06 0.0 0 1 126.65 187.97
  C 126.71 188.97 127.38 190.63 126.79 191.59
  Q 126.57 191.95 126.48 191.53
  Z"
/>
<ellipse fill="#a7ba67" cx="0.00" cy="0.00" transform="translate(126.43,198.38) rotate(93.5)" rx="5.66" ry="0.66"/>
<path fill="#ffffff" d="
  M 21.67 209.02
  L 21.31 216.96
  A 0.81 0.81 0.0 0 1 20.49 217.73
  L 18.63 217.72
  A 0.81 0.81 0.0 0 1 17.82 216.91
  L 17.68 194.87
  A 0.81 0.81 0.0 0 1 18.46 194.05
  L 20.66 193.97
  A 0.81 0.81 0.0 0 1 21.50 194.76
  L 21.66 202.73
  A 0.81 0.81 0.0 0 0 22.47 203.52
  L 40.69 203.50
  A 0.81 0.81 0.0 0 1 41.50 204.32
  L 41.45 207.45
  A 0.81 0.81 0.0 0 1 40.64 208.25
  L 22.48 208.25
  A 0.81 0.81 0.0 0 0 21.67 209.02
  Z"
/>
<path fill="#191a14" d="
  M 135.18 220.63
  Q 134.98 220.62 134.83 220.52
  A 0.35 0.34 42.3 0 1 134.80 219.97
  C 142.39 213.70 152.12 206.07 161.69 203.58
  Q 161.92 203.52 162.02 203.74
  L 162.13 204.00
  A 0.30 0.30 0.0 0 1 162.02 204.37
  L 156.23 208.18
  Q 155.72 208.51 155.73 209.13
  Q 155.75 210.55 154.27 211.29
  Q 148.38 214.25 139.55 220.26
  C 138.13 221.23 136.83 220.74 135.18 220.63
  Z"
/>
<path fill="#a7ba67" d="
  M 126.51 226.23
  C 125.69 223.56 126.92 219.94 126.43 217.25
  Q 125.97 214.79 125.96 212.27
  C 125.95 210.09 124.80 207.40 126.24 205.09
  Q 126.98 203.91 127.08 205.30
  Q 127.20 207.11 126.53 208.73
  A 1.02 0.99 -49.1 0 0 126.58 209.63
  Q 127.06 210.51 127.07 211.50
  Q 127.11 218.84 126.89 226.18
  Q 126.85 227.33 126.51 226.23
  Z"
/>
<rect fill="#a7ba67" x="-0.47" y="-2.78" transform="translate(77.24,209.16) rotate(-15.6)" width="0.94" height="5.56" rx="0.42"/>
<path fill="#a7ba67" d="
  M 175.47 223.30
  L 174.16 224.65
  Q 173.65 225.18 173.93 224.49
  Q 174.34 223.50 175.34 223.10
  Q 175.87 222.89 175.47 223.30
  Z"
/>
<ellipse fill="#a7ba67" cx="0.00" cy="0.00" transform="translate(171.03,227.90) rotate(135.2)" rx="3.35" ry="0.35"/>
<path fill="#ffffff" d="
  M 22.24 239.02
  L 40.51 239.01
  Q 41.50 239.01 41.49 240.01
  L 41.46 242.78
  Q 41.45 243.75 40.47 243.75
  L 22.23 243.69
  A 0.61 0.61 0.0 0 0 21.62 244.27
  L 21.20 252.02
  A 1.23 1.23 0.0 0 1 19.93 253.19
  L 19.67 253.18
  Q 18.15 253.12 18.04 251.61
  C 17.50 244.54 18.05 237.69 17.83 230.69
  Q 17.78 229.28 19.19 229.35
  L 20.19 229.40
  Q 21.42 229.47 21.45 230.69
  L 21.69 238.49
  Q 21.70 239.02 22.24 239.02
  Z"
/>
<ellipse fill="#a7ba67" cx="0.00" cy="0.00" transform="translate(165.46,233.21) rotate(-38.0)" rx="1.47" ry="0.38"/>
<path fill="#1b1c1e" d="
  M 86.21 233.97
  L 94.21 239.13
  A 0.23 0.22 30.0 0 1 94.29 239.41
  L 94.19 239.67
  A 0.29 0.29 0.0 0 1 93.78 239.81
  Q 92.92 239.30 91.93 239.24
  A 1.03 1.02 -17.3 0 1 91.20 238.86
  Q 89.62 236.82 87.24 235.80
  C 86.43 235.46 86.01 234.82 86.18 233.98
  A 0.02 0.02 0.0 0 1 86.21 233.97
  Z"
/>
<ellipse fill="#a7ba67" cx="0.00" cy="0.00" transform="translate(104.05,239.10) rotate(20.9)" rx="2.55" ry="0.33"/>
<path fill="#a7ba67" d="
  M 126.12 241.25
  Q 126.06 241.01 126.17 240.82
  Q 126.35 240.47 126.54 240.82
  Q 127.03 241.70 126.45 242.23
  Q 126.12 242.53 125.91 242.13
  Q 125.79 241.91 125.96 241.75
  Q 126.20 241.55 126.12 241.25
  Z"
/>
<path fill="#a7ba67" d="
  M 117.99 243.58
  Q 116.14 243.16 118.04 243.15
  L 122.09 243.11
  Q 122.31 243.11 122.32 243.33
  L 122.33 243.62
  A 0.31 0.31 0.0 0 1 122.04 243.93
  Q 119.98 244.04 117.99 243.58
  Z"
/>
<path fill="#ffffff" d="
  M 36.96 284.03
  L 37.10 269.11
  A 0.78 0.78 0.0 0 1 37.85 268.33
  L 40.48 268.21
  A 0.78 0.78 0.0 0 1 41.30 268.98
  L 41.46 288.71
  A 0.78 0.78 0.0 0 1 40.68 289.50
  L 18.47 289.49
  A 0.78 0.78 0.0 0 1 17.69 288.71
  L 17.70 268.82
  A 0.78 0.78 0.0 0 1 18.44 268.05
  L 20.51 267.95
  A 0.78 0.78 0.0 0 1 21.33 268.72
  L 21.54 284.17
  A 0.78 0.78 0.0 0 0 22.34 284.94
  L 26.00 284.82
  A 0.78 0.78 0.0 0 0 26.75 284.07
  L 27.02 276.00
  A 0.78 0.78 0.0 0 1 27.80 275.25
  L 29.59 275.24
  A 0.78 0.78 0.0 0 1 30.37 276.00
  L 30.56 284.13
  A 0.78 0.78 0.0 0 0 31.35 284.89
  L 36.19 284.80
  A 0.78 0.78 0.0 0 0 36.96 284.03
  Z"
/>
</svg>
