<?xml version="1.0" encoding="UTF-8" standalone="no"?>
<!DOCTYPE svg PUBLIC "-//W3C//DTD SVG 1.1//EN" "http://www.w3.org/Graphics/SVG/1.1/DTD/svg11.dtd">
<svg xmlns="http://www.w3.org/2000/svg" version="1.1" viewBox="0.00 0.00 112.00 189.00">
<g stroke-width="2.00" fill="none" stroke-linecap="butt">
<path stroke="#8e8e8d" vector-effect="non-scaling-stroke" d="
  M 109.42 3.34
  A 0.53 0.53 0.0 0 0 108.89 2.81
  L 30.03 2.81
  A 0.53 0.53 0.0 0 0 29.50 3.34
  L 29.50 185.92
  A 0.53 0.53 0.0 0 0 30.03 186.45
  L 108.89 186.45
  A 0.53 0.53 0.0 0 0 109.42 185.92
  L 109.42 3.34"
/>
<path stroke="#8e8e8d" vector-effect="non-scaling-stroke" d="
  M 18.08 17.82
  L 9.28 17.95
  Q 8.29 17.97 8.27 18.97
  L 8.26 19.45
  A 0.95 0.94 0.9 0 0 9.20 20.41
  L 20.51 20.56
  A 0.58 0.58 0.0 0 0 21.10 20.02
  Q 21.56 13.84 20.86 8.33
  Q 20.82 7.98 20.48 7.86
  Q 19.75 7.60 19.15 8.30
  A 1.14 1.14 0.0 0 0 18.87 9.02
  L 18.72 17.17
  Q 18.71 17.81 18.08 17.82"
/>
<path stroke="#8e8e8d" vector-effect="non-scaling-stroke" d="
  M 21.2286 34.3387
  A 0.59 0.59 0.0 0 0 20.6376 33.7497
  L 8.8776 33.7703
  A 0.59 0.59 0.0 0 0 8.2886 34.3613
  L 8.2914 35.9613
  A 0.59 0.59 0.0 0 0 8.8824 36.5503
  L 20.6424 36.5297
  A 0.59 0.59 0.0 0 0 21.2314 35.9387
  L 21.2286 34.3387"
/>
<path stroke="#8e8e8d" vector-effect="non-scaling-stroke" d="
  M 13.01 58.24
  Q 12.15 57.89 13.01 57.56
  L 20.48 54.64
  Q 21.03 54.43 21.17 53.85
  Q 21.32 53.25 21.13 52.68
  A 0.90 0.85 89.4 0 0 20.61 52.14
  L 8.71 47.55
  Q 8.33 47.40 8.31 47.81
  L 8.25 49.35
  Q 8.22 50.03 8.86 50.26
  L 15.99 52.80
  Q 16.88 53.12 16.02 53.50
  Q 12.72 54.95 9.16 56.24
  Q 8.64 56.43 8.40 56.91
  C 7.92 57.85 8.28 58.84 9.29 59.20
  Q 13.11 60.57 16.05 61.86
  Q 16.82 62.19 16.04 62.49
  Q 12.51 63.88 9.00 65.08
  Q 8.26 65.34 8.26 66.13
  Q 8.26 66.16 8.26 67.74
  Q 8.26 68.55 9.01 68.26
  L 18.94 64.38
  Q 23.75 62.50 18.95 60.59
  L 13.01 58.24"
/>
<path stroke="#8e8e8d" vector-effect="non-scaling-stroke" d="
  M 18.75 82.01
  L 18.73 89.25
  A 1.91 1.87 -28.7 0 1 18.41 90.30
  Q 18.25 90.54 18.00 90.69
  Q 17.49 90.99 17.44 91.57
  Q 17.37 92.32 17.85 92.87
  Q 18.11 93.17 18.51 93.16
  Q 21.02 93.06 21.12 90.44
  Q 21.31 85.41 21.13 81.17
  Q 21.02 78.70 18.55 78.71
  L 15.88 78.73
  Q 13.27 78.75 13.26 81.37
  L 13.26 89.56
  Q 13.26 90.13 12.69 90.10
  L 11.24 90.02
  Q 10.51 89.98 10.50 89.24
  L 10.48 82.28
  Q 10.48 81.77 10.94 81.54
  Q 11.60 81.22 11.69 80.41
  A 1.32 1.32 0.0 0 0 10.12 78.96
  Q 8.35 79.31 8.31 81.25
  Q 8.21 85.75 8.29 90.13
  Q 8.34 92.52 10.73 92.52
  L 13.27 92.51
  Q 15.67 92.51 15.68 90.11
  L 15.71 82.04
  Q 15.71 81.29 16.46 81.28
  L 18.01 81.27
  Q 18.75 81.26 18.75 82.01"
/>
<path stroke="#8e8e8d" vector-effect="non-scaling-stroke" d="
  M 21.2063 106.6350
  A 0.82 0.82 0.0 0 0 20.3806 105.8207
  L 9.1209 105.8993
  A 0.82 0.82 0.0 0 0 8.3066 106.7250
  L 8.3137 107.7450
  A 0.82 0.82 0.0 0 0 9.1394 108.5593
  L 20.3991 108.4807
  A 0.82 0.82 0.0 0 0 21.2134 107.6550
  L 21.2063 106.6350"
/>
<path stroke="#8e8e8d" vector-effect="non-scaling-stroke" d="
  M 10.53 127.96
  A 0.45 0.45 0.0 0 1 10.98 127.51
  L 20.77 127.62
  A 0.45 0.45 0.0 0 0 21.23 127.17
  L 21.25 125.20
  A 0.45 0.45 0.0 0 0 20.80 124.74
  L 10.98 124.75
  A 0.45 0.45 0.0 0 1 10.53 124.31
  L 10.45 119.04
  A 0.45 0.45 0.0 0 0 10.04 118.60
  L 8.81 118.46
  A 0.45 0.45 0.0 0 0 8.31 118.91
  L 8.25 133.29
  A 0.45 0.45 0.0 0 0 8.72 133.74
  L 10.06 133.67
  A 0.45 0.45 0.0 0 0 10.49 133.22
  L 10.53 127.96"
/>
<path stroke="#8e8e8d" vector-effect="non-scaling-stroke" d="
  M 10.53 150.24
  A 0.47 0.47 0.0 0 1 11.00 149.77
  L 20.73 149.77
  A 0.47 0.47 0.0 0 0 21.20 149.31
  L 21.25 147.23
  A 0.47 0.47 0.0 0 0 20.77 146.75
  L 11.01 146.84
  A 0.47 0.47 0.0 0 1 10.54 146.37
  L 10.50 141.33
  A 0.47 0.47 0.0 0 0 10.07 140.86
  L 8.77 140.75
  A 0.47 0.47 0.0 0 0 8.26 141.22
  L 8.25 155.29
  A 0.47 0.47 0.0 0 0 8.73 155.76
  L 10.06 155.75
  A 0.47 0.47 0.0 0 0 10.52 155.28
  L 10.53 150.24"
/>
<path stroke="#8e8e8d" vector-effect="non-scaling-stroke" d="
  M 13.24 174.71
  A 0.44 0.44 0.0 0 1 12.82 175.14
  L 10.96 175.24
  A 0.44 0.44 0.0 0 1 10.50 174.80
  L 10.47 165.29
  A 0.44 0.44 0.0 0 0 10.07 164.85
  L 8.74 164.73
  A 0.44 0.44 0.0 0 0 8.26 165.17
  L 8.26 177.60
  A 0.44 0.44 0.0 0 0 8.70 178.04
  L 20.75 178.05
  A 0.44 0.44 0.0 0 0 21.19 177.61
  L 21.14 165.17
  A 0.44 0.44 0.0 0 0 20.71 164.74
  L 19.18 164.72
  A 0.44 0.44 0.0 0 0 18.74 165.16
  L 18.75 174.80
  A 0.44 0.44 0.0 0 1 18.30 175.24
  L 15.91 175.16
  A 0.44 0.44 0.0 0 1 15.48 174.72
  L 15.47 169.41
  A 0.44 0.44 0.0 0 0 15.07 168.98
  L 13.87 168.88
  A 0.44 0.44 0.0 0 0 13.40 169.30
  L 13.24 174.71"
/>
<path stroke="#ffe2a1" vector-effect="non-scaling-stroke" d="
  M 65.09 71.26
  L 62.90 71.04"
/>
<path stroke="#8e8e8d" vector-effect="non-scaling-stroke" d="
  M 62.90 71.04
  Q 53.94 69.83 48.09 74.84
  Q 40.65 81.23 42.11 92.05"
/>
<path stroke="#ffe2a1" vector-effect="non-scaling-stroke" d="
  M 42.11 92.05
  L 42.71 94.93"
/>
<path stroke="#8e8e8d" vector-effect="non-scaling-stroke" d="
  M 42.71 94.93
  Q 46.07 96.58 47.73 99.16
  C 48.53 100.41 48.14 101.56 48.65 102.88
  C 49.42 104.85 48.41 108.97 47.40 110.80
  Q 46.23 112.91 44.32 113.86
  C 41.75 115.14 38.58 116.88 38.34 120.13
  C 38.02 124.55 38.15 129.07 39.97 133.14
  Q 43.07 140.07 47.23 144.11
  Q 51.00 147.76 57.67 149.93
  Q 58.54 150.21 58.97 151.01
  A 1.32 1.32 0.0 0 0 59.68 151.62
  Q 62.71 152.72 66.01 153.00
  Q 66.51 153.04 66.52 153.54
  Q 66.74 163.52 68.07 173.47
  Q 68.08 173.57 68.17 173.56
  L 68.46 173.55
  Q 68.65 173.55 68.66 173.35
  L 69.35 154.49
  Q 69.38 153.63 70.25 153.63
  Q 74.84 153.66 79.97 152.00
  C 82.76 151.10 84.70 148.92 87.19 147.48
  C 91.77 144.84 96.30 139.81 98.24 135.26
  Q 103.32 123.35 100.30 108.76
  Q 99.00 102.54 96.52 97.01
  A 1.23 1.13 69.4 0 0 95.12 96.30
  Q 94.98 96.34 94.72 96.74"
/>
<path stroke="#d6e0b4" vector-effect="non-scaling-stroke" d="
  M 94.72 96.74
  Q 94.31 96.86 93.89 96.40"
/>
<path stroke="#929185" vector-effect="non-scaling-stroke" d="
  M 93.89 96.40
  Q 94.36 93.05 92.06 89.50
  Q 89.29 85.23 86.53 80.96
  Q 85.97 80.09 84.97 80.04"
/>
<path stroke="#d6e0b4" vector-effect="non-scaling-stroke" d="
  M 84.97 80.04
  Q 84.34 80.00 84.21 79.47"
/>
<path stroke="#929185" vector-effect="non-scaling-stroke" d="
  M 84.21 79.47
  Q 84.46 79.06 84.49 78.67
  Q 84.51 78.35 84.33 78.08
  Q 81.69 74.03 79.21 69.90
  C 77.71 67.40 77.35 64.54 75.92 62.08
  Q 74.44 59.53 73.64 56.65
  C 72.60 52.89 70.94 49.03 70.52 45.28
  C 70.19 42.37 69.56 39.57 69.47 36.68
  C 69.35 32.67 68.31 28.95 68.27 24.83
  Q 68.19 17.95 68.11 11.31
  Q 68.09 9.94 67.57 8.67
  Q 67.17 7.69 67.18 8.74
  Q 67.23 27.35 66.25 45.38
  Q 66.02 49.46 65.66 53.29
  Q 65.32 56.85 65.50 61.20
  Q 65.71 66.22 65.09 71.26"
/>
<path stroke="#69713a" vector-effect="non-scaling-stroke" d="
  M 84.21 79.47
  Q 81.09 74.36 77.58 69.44
  Q 74.20 64.69 70.82 53.19"
/>
<path stroke="#5e4a17" vector-effect="non-scaling-stroke" d="
  M 70.82 53.19
  L 68.89 46.58
  Q 68.64 45.69 68.26 46.54
  Q 67.93 47.28 68.28 48.04
  C 69.22 50.12 68.81 53.27 67.89 55.04
  Q 67.66 55.47 67.76 55.95
  Q 68.10 57.68 68.17 59.50
  Q 68.23 60.81 69.31 61.72"
/>
<path stroke="#69713a" vector-effect="non-scaling-stroke" d="
  M 69.31 61.72
  Q 69.60 64.12 69.45 66.58
  Q 69.27 69.78 69.35 71.44
  Q 69.91 82.09 69.33 92.75
  Q 69.20 95.11 69.77 98.42"
/>
<path stroke="#212013" vector-effect="non-scaling-stroke" d="
  M 69.77 98.42
  Q 68.75 98.07 68.11 98.28
  Q 67.49 98.48 67.38 99.17
  Q 67.15 100.67 67.70 101.73
  Q 67.91 102.13 67.81 102.56
  L 67.38 104.62"
/>
<path stroke="#927427" vector-effect="non-scaling-stroke" d="
  M 67.38 104.62
  Q 66.90 103.05 66.66 103.14
  A 2.18 1.77 73.4 0 0 65.66 105.56
  Q 66.08 107.32 65.90 108.84
  C 65.34 113.41 65.35 118.24 64.93 122.96
  Q 64.90 123.35 64.54 123.18
  Q 64.37 123.11 64.35 122.92
  Q 63.60 116.84 64.25 110.96
  Q 64.56 108.20 64.52 105.62
  Q 64.47 102.74 64.45 99.94
  C 64.44 98.20 64.94 96.64 64.72 94.91
  Q 64.57 93.79 64.84 92.62
  C 65.18 91.08 64.83 89.28 64.86 87.65
  Q 65.02 79.44 65.09 71.26"
/>
<path stroke="#5a471f" vector-effect="non-scaling-stroke" d="
  M 45.41 138.66
  C 45.86 140.41 47.40 143.24 49.59 142.54"
/>
<path stroke="#5a471f" vector-effect="non-scaling-stroke" d="
  M 67.24 128.23
  Q 67.82 127.02 67.22 126.14
  Q 66.96 125.75 67.11 125.31
  L 67.50 124.18"
/>
<path stroke="#69713a" vector-effect="non-scaling-stroke" d="
  M 84.97 80.04
  Q 84.81 80.27 84.94 80.48
  Q 88.81 86.58 92.61 92.73
  Q 93.35 93.94 93.27 96.62
  Q 93.26 97.04 93.62 96.82
  Q 93.81 96.71 93.89 96.40"
/>
<path stroke="#656f42" vector-effect="non-scaling-stroke" d="
  M 94.72 96.74
  Q 96.59 99.36 97.76 104.00
  Q 99.57 111.21 99.64 116.47
  Q 99.67 119.37 99.03 123.00
  Q 98.38 126.65 97.56 129.48
  Q 96.42 133.38 93.97 137.31
  C 90.51 142.86 83.85 147.15 78.27 149.05
  Q 75.35 150.05 69.98 149.94
  Q 69.47 149.93 69.40 149.42
  Q 68.88 145.68 69.00 142.00
  Q 69.55 125.91 69.53 114.25
  Q 69.52 106.18 69.77 98.42"
/>
<path stroke="#8e712f" vector-effect="non-scaling-stroke" d="
  M 67.38 104.62
  Q 67.70 109.04 67.05 113.57
  C 66.80 115.33 67.43 116.63 67.33 118.34
  C 67.21 120.39 67.88 122.16 67.50 124.18"
/>
<path stroke="#cb9b32" vector-effect="non-scaling-stroke" d="
  M 67.50 124.18
  Q 66.18 124.85 66.11 126.00
  Q 66.07 126.76 66.64 126.87
  Q 67.05 126.95 67.11 127.37
  L 67.24 128.23"
/>
<path stroke="#8e712f" vector-effect="non-scaling-stroke" d="
  M 67.24 128.23
  Q 66.63 138.40 67.42 148.67
  Q 67.46 149.20 66.97 149.41
  Q 65.55 149.99 63.99 149.54
  C 59.27 148.18 53.13 146.21 49.59 142.54"
/>
<path stroke="#cb9b32" vector-effect="non-scaling-stroke" d="
  M 49.59 142.54
  Q 48.09 139.93 45.41 138.66"
/>
<path stroke="#8e712f" vector-effect="non-scaling-stroke" d="
  M 45.41 138.66
  Q 44.35 136.94 43.13 135.23
  C 39.45 130.09 38.65 123.82 39.76 117.54
  A 1.35 1.34 1.2 0 1 40.91 116.44
  C 47.29 115.59 50.86 109.65 50.32 103.45
  Q 49.75 97.05 42.71 94.93"
/>
<path stroke="#a29946" vector-effect="non-scaling-stroke" d="
  M 70.82 53.19
  Q 70.46 53.05 70.43 53.02
  A 0.51 0.50 16.5 0 0 69.61 53.46
  Q 70.00 57.72 69.31 61.72"
/>
<path stroke="#8e712f" vector-effect="non-scaling-stroke" d="
  M 62.90 71.04
  Q 61.50 72.12 60.50 72.11
  Q 52.17 71.98 47.15 77.99
  Q 45.49 79.99 44.04 83.02
  Q 43.01 85.19 42.67 87.51
  Q 42.35 89.72 42.11 92.05"
/>
<path stroke="#8e8e8d" vector-effect="non-scaling-stroke" d="
  M 56.94 17.98
  Q 56.59 16.47 56.41 15.05
  Q 56.39 14.86 56.20 14.88
  L 55.93 14.90
  A 0.08 0.08 0.0 0 0 55.85 15.00
  Q 56.39 17.60 55.58 19.68
  Q 55.26 20.50 56.13 20.43
  Q 60.54 20.10 64.71 20.46
  A 0.88 0.86 -79.0 0 0 65.60 19.85
  L 65.69 19.56
  A 0.41 0.41 0.0 0 0 65.31 19.03
  L 57.79 18.69
  A 0.92 0.91 84.5 0 1 56.94 17.98"
/>
<path stroke="#8e8e8d" vector-effect="non-scaling-stroke" d="
  M 55.7348 27.9844
  A 1.93 1.17 97.3 0 0 57.1405 26.2187
  A 1.93 1.17 97.3 0 0 56.2252 24.1556
  A 1.93 1.17 97.3 0 0 54.8195 25.9213
  A 1.93 1.17 97.3 0 0 55.7348 27.9844"
/>
<path stroke="#8e8e8d" vector-effect="non-scaling-stroke" d="
  M 64.8703 25.4613
  A 0.72 0.72 0.0 0 0 64.1642 24.7276
  L 60.2649 24.6527
  A 0.72 0.72 0.0 0 0 59.5313 25.3588
  L 59.5297 25.4387
  A 0.72 0.72 0.0 0 0 60.2358 26.1724
  L 64.1351 26.2473
  A 0.72 0.72 0.0 0 0 64.8687 25.5412
  L 64.8703 25.4613"
/>
<path stroke="#8e8e8d" vector-effect="non-scaling-stroke" d="
  M 63.8462 32.5303
  A 2.97 0.85 2.9 0 0 60.9230 31.5311
  A 2.97 0.85 2.9 0 0 57.9138 32.2297
  A 2.97 0.85 2.9 0 0 60.8370 33.2289
  A 2.97 0.85 2.9 0 0 63.8462 32.5303"
/>
<path stroke="#8e8e8d" vector-effect="non-scaling-stroke" d="
  M 56.3297 37.7249
  A 2.21 1.10 93.9 0 0 57.5775 35.5948
  A 2.21 1.10 93.9 0 0 56.6303 33.3151
  A 2.21 1.10 93.9 0 0 55.3825 35.4452
  A 2.21 1.10 93.9 0 0 56.3297 37.7249"
/>
<path stroke="#cbb891" vector-effect="non-scaling-stroke" d="
  M 57.4906 151.7002
  A 1.67 0.40 21.8 0 0 56.0885 150.7086
  A 1.67 0.40 21.8 0 0 54.3894 150.4598
  A 1.67 0.40 21.8 0 0 55.7915 151.4514
  A 1.67 0.40 21.8 0 0 57.4906 151.7002"
/>
<path stroke="#5e4a17" vector-effect="non-scaling-stroke" d="
  M 67.3663 69.9992
  A 1.71 0.43 91.8 0 0 67.8498 68.3035
  A 1.71 0.43 91.8 0 0 67.4737 66.5808
  A 1.71 0.43 91.8 0 0 66.9902 68.2765
  A 1.71 0.43 91.8 0 0 67.3663 69.9992"
/>
<path stroke="#5e4a17" vector-effect="non-scaling-stroke" d="
  M 66.8858 86.5094
  A 3.68 0.89 91.0 0 0 67.8399 82.8455
  A 3.68 0.89 91.0 0 0 67.0142 79.1506
  A 3.68 0.89 91.0 0 0 66.0601 82.8145
  A 3.68 0.89 91.0 0 0 66.8858 86.5094"
/>
<path stroke="#69713a" vector-effect="non-scaling-stroke" d="
  M 72.79 97.55
  L 73.54 98.30
  A 0.25 0.25 0.0 0 0 73.90 98.29
  L 76.45 95.72
  A 8.02 0.67 -45.2 0 0 81.63 89.56
  L 81.47 89.40
  A 8.02 0.67 -45.2 0 0 75.35 94.62
  L 72.79 97.19
  A 0.25 0.25 0.0 0 0 72.79 97.55"
/>
<path stroke="#656f42" vector-effect="non-scaling-stroke" d="
  M 88.29 104.49
  C 82.66 107.56 77.10 112.65 72.49 117.12
  A 0.29 0.28 -53.7 0 0 72.56 117.58
  L 72.85 117.72
  A 0.96 0.96 0.0 0 0 73.90 117.61
  Q 81.80 111.25 88.61 104.94
  Q 90.25 103.42 88.29 104.49"
/>
<path stroke="#69713a" vector-effect="non-scaling-stroke" d="
  M 85.57 125.59
  Q 78.91 129.24 73.20 134.69
  A 0.31 0.31 0.0 0 0 73.36 135.22
  L 74.09 135.35
  A 0.39 0.38 32.1 0 0 74.38 135.29
  Q 81.14 130.63 86.03 126.23
  Q 88.57 123.95 85.57 125.59"
/>
<path stroke="#8e712f" vector-effect="non-scaling-stroke" d="
  M 54.29 106.19
  C 54.00 107.77 54.63 109.03 54.45 110.62
  C 54.08 113.95 54.16 119.15 49.56 119.03
  Q 48.76 119.01 49.34 119.55
  C 51.85 121.90 54.24 118.34 54.95 116.21
  Q 56.54 111.38 55.57 106.33
  Q 55.24 104.57 55.75 102.69
  Q 55.92 102.07 56.56 102.12
  L 57.53 102.19
  Q 58.21 102.25 57.61 101.92
  C 56.43 101.30 55.10 101.94 54.85 103.24
  Q 54.55 104.74 54.29 106.19"
/>
</g>
<path fill="#1d1d1b" d="
  M 0.00 0.00
  L 112.00 0.00
  L 112.00 189.00
  L 0.00 189.00
  L 0.00 0.00
  Z
  M 109.42 3.34
  A 0.53 0.53 0.0 0 0 108.89 2.81
  L 30.03 2.81
  A 0.53 0.53 0.0 0 0 29.50 3.34
  L 29.50 185.92
  A 0.53 0.53 0.0 0 0 30.03 186.45
  L 108.89 186.45
  A 0.53 0.53 0.0 0 0 109.42 185.92
  L 109.42 3.34
  Z
  M 18.08 17.82
  L 9.28 17.95
  Q 8.29 17.97 8.27 18.97
  L 8.26 19.45
  A 0.95 0.94 0.9 0 0 9.20 20.41
  L 20.51 20.56
  A 0.58 0.58 0.0 0 0 21.10 20.02
  Q 21.56 13.84 20.86 8.33
  Q 20.82 7.98 20.48 7.86
  Q 19.75 7.60 19.15 8.30
  A 1.14 1.14 0.0 0 0 18.87 9.02
  L 18.72 17.17
  Q 18.71 17.81 18.08 17.82
  Z
  M 21.2286 34.3387
  A 0.59 0.59 0.0 0 0 20.6376 33.7497
  L 8.8776 33.7703
  A 0.59 0.59 0.0 0 0 8.2886 34.3613
  L 8.2914 35.9613
  A 0.59 0.59 0.0 0 0 8.8824 36.5503
  L 20.6424 36.5297
  A 0.59 0.59 0.0 0 0 21.2314 35.9387
  L 21.2286 34.3387
  Z
  M 13.01 58.24
  Q 12.15 57.89 13.01 57.56
  L 20.48 54.64
  Q 21.03 54.43 21.17 53.85
  Q 21.32 53.25 21.13 52.68
  A 0.90 0.85 89.4 0 0 20.61 52.14
  L 8.71 47.55
  Q 8.33 47.40 8.31 47.81
  L 8.25 49.35
  Q 8.22 50.03 8.86 50.26
  L 15.99 52.80
  Q 16.88 53.12 16.02 53.50
  Q 12.72 54.95 9.16 56.24
  Q 8.64 56.43 8.40 56.91
  C 7.92 57.85 8.28 58.84 9.29 59.20
  Q 13.11 60.57 16.05 61.86
  Q 16.82 62.19 16.04 62.49
  Q 12.51 63.88 9.00 65.08
  Q 8.26 65.34 8.26 66.13
  Q 8.26 66.16 8.26 67.74
  Q 8.26 68.55 9.01 68.26
  L 18.94 64.38
  Q 23.75 62.50 18.95 60.59
  L 13.01 58.24
  Z
  M 18.75 82.01
  L 18.73 89.25
  A 1.91 1.87 -28.7 0 1 18.41 90.30
  Q 18.25 90.54 18.00 90.69
  Q 17.49 90.99 17.44 91.57
  Q 17.37 92.32 17.85 92.87
  Q 18.11 93.17 18.51 93.16
  Q 21.02 93.06 21.12 90.44
  Q 21.31 85.41 21.13 81.17
  Q 21.02 78.70 18.55 78.71
  L 15.88 78.73
  Q 13.27 78.75 13.26 81.37
  L 13.26 89.56
  Q 13.26 90.13 12.69 90.10
  L 11.24 90.02
  Q 10.51 89.98 10.50 89.24
  L 10.48 82.28
  Q 10.48 81.77 10.94 81.54
  Q 11.60 81.22 11.69 80.41
  A 1.32 1.32 0.0 0 0 10.12 78.96
  Q 8.35 79.31 8.31 81.25
  Q 8.21 85.75 8.29 90.13
  Q 8.34 92.52 10.73 92.52
  L 13.27 92.51
  Q 15.67 92.51 15.68 90.11
  L 15.71 82.04
  Q 15.71 81.29 16.46 81.28
  L 18.01 81.27
  Q 18.75 81.26 18.75 82.01
  Z
  M 21.2063 106.6350
  A 0.82 0.82 0.0 0 0 20.3806 105.8207
  L 9.1209 105.8993
  A 0.82 0.82 0.0 0 0 8.3066 106.7250
  L 8.3137 107.7450
  A 0.82 0.82 0.0 0 0 9.1394 108.5593
  L 20.3991 108.4807
  A 0.82 0.82 0.0 0 0 21.2134 107.6550
  L 21.2063 106.6350
  Z
  M 10.53 127.96
  A 0.45 0.45 0.0 0 1 10.98 127.51
  L 20.77 127.62
  A 0.45 0.45 0.0 0 0 21.23 127.17
  L 21.25 125.20
  A 0.45 0.45 0.0 0 0 20.80 124.74
  L 10.98 124.75
  A 0.45 0.45 0.0 0 1 10.53 124.31
  L 10.45 119.04
  A 0.45 0.45 0.0 0 0 10.04 118.60
  L 8.81 118.46
  A 0.45 0.45 0.0 0 0 8.31 118.91
  L 8.25 133.29
  A 0.45 0.45 0.0 0 0 8.72 133.74
  L 10.06 133.67
  A 0.45 0.45 0.0 0 0 10.49 133.22
  L 10.53 127.96
  Z
  M 10.53 150.24
  A 0.47 0.47 0.0 0 1 11.00 149.77
  L 20.73 149.77
  A 0.47 0.47 0.0 0 0 21.20 149.31
  L 21.25 147.23
  A 0.47 0.47 0.0 0 0 20.77 146.75
  L 11.01 146.84
  A 0.47 0.47 0.0 0 1 10.54 146.37
  L 10.50 141.33
  A 0.47 0.47 0.0 0 0 10.07 140.86
  L 8.77 140.75
  A 0.47 0.47 0.0 0 0 8.26 141.22
  L 8.25 155.29
  A 0.47 0.47 0.0 0 0 8.73 155.76
  L 10.06 155.75
  A 0.47 0.47 0.0 0 0 10.52 155.28
  L 10.53 150.24
  Z
  M 13.24 174.71
  A 0.44 0.44 0.0 0 1 12.82 175.14
  L 10.96 175.24
  A 0.44 0.44 0.0 0 1 10.50 174.80
  L 10.47 165.29
  A 0.44 0.44 0.0 0 0 10.07 164.85
  L 8.74 164.73
  A 0.44 0.44 0.0 0 0 8.26 165.17
  L 8.26 177.60
  A 0.44 0.44 0.0 0 0 8.70 178.04
  L 20.75 178.05
  A 0.44 0.44 0.0 0 0 21.19 177.61
  L 21.14 165.17
  A 0.44 0.44 0.0 0 0 20.71 164.74
  L 19.18 164.72
  A 0.44 0.44 0.0 0 0 18.74 165.16
  L 18.75 174.80
  A 0.44 0.44 0.0 0 1 18.30 175.24
  L 15.91 175.16
  A 0.44 0.44 0.0 0 1 15.48 174.72
  L 15.47 169.41
  A 0.44 0.44 0.0 0 0 15.07 168.98
  L 13.87 168.88
  A 0.44 0.44 0.0 0 0 13.40 169.30
  L 13.24 174.71
  Z"
/>
<path fill="#ffffff" d="
  M 109.42 185.92
  A 0.53 0.53 0.0 0 1 108.89 186.45
  L 30.03 186.45
  A 0.53 0.53 0.0 0 1 29.50 185.92
  L 29.50 3.34
  A 0.53 0.53 0.0 0 1 30.03 2.81
  L 108.89 2.81
  A 0.53 0.53 0.0 0 1 109.42 3.34
  L 109.42 185.92
  Z
  M 65.09 71.26
  L 62.90 71.04
  Q 53.94 69.83 48.09 74.84
  Q 40.65 81.23 42.11 92.05
  L 42.71 94.93
  Q 46.07 96.58 47.73 99.16
  C 48.53 100.41 48.14 101.56 48.65 102.88
  C 49.42 104.85 48.41 108.97 47.40 110.80
  Q 46.23 112.91 44.32 113.86
  C 41.75 115.14 38.58 116.88 38.34 120.13
  C 38.02 124.55 38.15 129.07 39.97 133.14
  Q 43.07 140.07 47.23 144.11
  Q 51.00 147.76 57.67 149.93
  Q 58.54 150.21 58.97 151.01
  A 1.32 1.32 0.0 0 0 59.68 151.62
  Q 62.71 152.72 66.01 153.00
  Q 66.51 153.04 66.52 153.54
  Q 66.74 163.52 68.07 173.47
  Q 68.08 173.57 68.17 173.56
  L 68.46 173.55
  Q 68.65 173.55 68.66 173.35
  L 69.35 154.49
  Q 69.38 153.63 70.25 153.63
  Q 74.84 153.66 79.97 152.00
  C 82.76 151.10 84.70 148.92 87.19 147.48
  C 91.77 144.84 96.30 139.81 98.24 135.26
  Q 103.32 123.35 100.30 108.76
  Q 99.00 102.54 96.52 97.01
  A 1.23 1.13 69.4 0 0 95.12 96.30
  Q 94.98 96.34 94.72 96.74
  Q 94.31 96.86 93.89 96.40
  Q 94.36 93.05 92.06 89.50
  Q 89.29 85.23 86.53 80.96
  Q 85.97 80.09 84.97 80.04
  Q 84.34 80.00 84.21 79.47
  Q 84.46 79.06 84.49 78.67
  Q 84.51 78.35 84.33 78.08
  Q 81.69 74.03 79.21 69.90
  C 77.71 67.40 77.35 64.54 75.92 62.08
  Q 74.44 59.53 73.64 56.65
  C 72.60 52.89 70.94 49.03 70.52 45.28
  C 70.19 42.37 69.56 39.57 69.47 36.68
  C 69.35 32.67 68.31 28.95 68.27 24.83
  Q 68.19 17.95 68.11 11.31
  Q 68.09 9.94 67.57 8.67
  Q 67.17 7.69 67.18 8.74
  Q 67.23 27.35 66.25 45.38
  Q 66.02 49.46 65.66 53.29
  Q 65.32 56.85 65.50 61.20
  Q 65.71 66.22 65.09 71.26
  Z
  M 56.94 17.98
  Q 56.59 16.47 56.41 15.05
  Q 56.39 14.86 56.20 14.88
  L 55.93 14.90
  A 0.08 0.08 0.0 0 0 55.85 15.00
  Q 56.39 17.60 55.58 19.68
  Q 55.26 20.50 56.13 20.43
  Q 60.54 20.10 64.71 20.46
  A 0.88 0.86 -79.0 0 0 65.60 19.85
  L 65.69 19.56
  A 0.41 0.41 0.0 0 0 65.31 19.03
  L 57.79 18.69
  A 0.92 0.91 84.5 0 1 56.94 17.98
  Z
  M 55.7348 27.9844
  A 1.93 1.17 97.3 0 0 57.1405 26.2187
  A 1.93 1.17 97.3 0 0 56.2252 24.1556
  A 1.93 1.17 97.3 0 0 54.8195 25.9213
  A 1.93 1.17 97.3 0 0 55.7348 27.9844
  Z
  M 64.8703 25.4613
  A 0.72 0.72 0.0 0 0 64.1642 24.7276
  L 60.2649 24.6527
  A 0.72 0.72 0.0 0 0 59.5313 25.3588
  L 59.5297 25.4387
  A 0.72 0.72 0.0 0 0 60.2358 26.1724
  L 64.1351 26.2473
  A 0.72 0.72 0.0 0 0 64.8687 25.5412
  L 64.8703 25.4613
  Z
  M 63.8462 32.5303
  A 2.97 0.85 2.9 0 0 60.9230 31.5311
  A 2.97 0.85 2.9 0 0 57.9138 32.2297
  A 2.97 0.85 2.9 0 0 60.8370 33.2289
  A 2.97 0.85 2.9 0 0 63.8462 32.5303
  Z
  M 56.3297 37.7249
  A 2.21 1.10 93.9 0 0 57.5775 35.5948
  A 2.21 1.10 93.9 0 0 56.6303 33.3151
  A 2.21 1.10 93.9 0 0 55.3825 35.4452
  A 2.21 1.10 93.9 0 0 56.3297 37.7249
  Z
  M 57.4906 151.7002
  A 1.67 0.40 21.8 0 0 56.0885 150.7086
  A 1.67 0.40 21.8 0 0 54.3894 150.4598
  A 1.67 0.40 21.8 0 0 55.7915 151.4514
  A 1.67 0.40 21.8 0 0 57.4906 151.7002
  Z"
/>
<path fill="#ffffff" d="
  M 18.72 17.17
  L 18.87 9.02
  A 1.14 1.14 0.0 0 1 19.15 8.30
  Q 19.75 7.60 20.48 7.86
  Q 20.82 7.98 20.86 8.33
  Q 21.56 13.84 21.10 20.02
  A 0.58 0.58 0.0 0 1 20.51 20.56
  L 9.20 20.41
  A 0.95 0.94 0.9 0 1 8.26 19.45
  L 8.27 18.97
  Q 8.29 17.97 9.28 17.95
  L 18.08 17.82
  Q 18.71 17.81 18.72 17.17
  Z"
/>
<path fill="#25220b" d="
  M 84.21 79.47
  Q 81.09 74.36 77.58 69.44
  Q 74.20 64.69 70.82 53.19
  L 68.89 46.58
  Q 68.64 45.69 68.26 46.54
  Q 67.93 47.28 68.28 48.04
  C 69.22 50.12 68.81 53.27 67.89 55.04
  Q 67.66 55.47 67.76 55.95
  Q 68.10 57.68 68.17 59.50
  Q 68.23 60.81 69.31 61.72
  Q 69.60 64.12 69.45 66.58
  Q 69.27 69.78 69.35 71.44
  Q 69.91 82.09 69.33 92.75
  Q 69.20 95.11 69.77 98.42
  Q 68.75 98.07 68.11 98.28
  Q 67.49 98.48 67.38 99.17
  Q 67.15 100.67 67.70 101.73
  Q 67.91 102.13 67.81 102.56
  L 67.38 104.62
  Q 66.90 103.05 66.66 103.14
  A 2.18 1.77 73.4 0 0 65.66 105.56
  Q 66.08 107.32 65.90 108.84
  C 65.34 113.41 65.35 118.24 64.93 122.96
  Q 64.90 123.35 64.54 123.18
  Q 64.37 123.11 64.35 122.92
  Q 63.60 116.84 64.25 110.96
  Q 64.56 108.20 64.52 105.62
  Q 64.47 102.74 64.45 99.94
  C 64.44 98.20 64.94 96.64 64.72 94.91
  Q 64.57 93.79 64.84 92.62
  C 65.18 91.08 64.83 89.28 64.86 87.65
  Q 65.02 79.44 65.09 71.26
  Q 65.71 66.22 65.50 61.20
  Q 65.32 56.85 65.66 53.29
  Q 66.02 49.46 66.25 45.38
  Q 67.23 27.35 67.18 8.74
  Q 67.17 7.69 67.57 8.67
  Q 68.09 9.94 68.11 11.31
  Q 68.19 17.95 68.27 24.83
  C 68.31 28.95 69.35 32.67 69.47 36.68
  C 69.56 39.57 70.19 42.37 70.52 45.28
  C 70.94 49.03 72.60 52.89 73.64 56.65
  Q 74.44 59.53 75.92 62.08
  C 77.35 64.54 77.71 67.40 79.21 69.90
  Q 81.69 74.03 84.33 78.08
  Q 84.51 78.35 84.49 78.67
  Q 84.46 79.06 84.21 79.47
  Z
  M 67.3663 69.9992
  A 1.71 0.43 91.8 0 0 67.8498 68.3035
  A 1.71 0.43 91.8 0 0 67.4737 66.5808
  A 1.71 0.43 91.8 0 0 66.9902 68.2765
  A 1.71 0.43 91.8 0 0 67.3663 69.9992
  Z
  M 66.8858 86.5094
  A 3.68 0.89 91.0 0 0 67.8399 82.8455
  A 3.68 0.89 91.0 0 0 67.0142 79.1506
  A 3.68 0.89 91.0 0 0 66.0601 82.8145
  A 3.68 0.89 91.0 0 0 66.8858 86.5094
  Z"
/>
<path fill="#1d1d1b" d="
  M 57.79 18.69
  L 65.31 19.03
  A 0.41 0.41 0.0 0 1 65.69 19.56
  L 65.60 19.85
  A 0.88 0.86 -79.0 0 1 64.71 20.46
  Q 60.54 20.10 56.13 20.43
  Q 55.26 20.50 55.58 19.68
  Q 56.39 17.60 55.85 15.00
  A 0.08 0.08 0.0 0 1 55.93 14.90
  L 56.20 14.88
  Q 56.39 14.86 56.41 15.05
  Q 56.59 16.47 56.94 17.98
  A 0.92 0.91 84.5 0 0 57.79 18.69
  Z"
/>
<ellipse fill="#1d1d1b" cx="0.00" cy="0.00" transform="translate(55.98,26.07) rotate(97.3)" rx="1.93" ry="1.17"/>
<rect fill="#1d1d1b" x="-2.67" y="-0.76" transform="translate(62.20,25.45) rotate(1.1)" width="5.34" height="1.52" rx="0.72"/>
<ellipse fill="#1d1d1b" cx="0.00" cy="0.00" transform="translate(60.88,32.38) rotate(2.9)" rx="2.97" ry="0.85"/>
<ellipse fill="#1d1d1b" cx="0.00" cy="0.00" transform="translate(56.48,35.52) rotate(93.9)" rx="2.21" ry="1.10"/>
<rect fill="#ffffff" x="-6.47" y="-1.39" transform="translate(14.76,35.15) rotate(-0.1)" width="12.94" height="2.78" rx="0.59"/>
<path fill="#977122" d="
  M 70.82 53.19
  Q 70.46 53.05 70.43 53.02
  A 0.51 0.50 16.5 0 0 69.61 53.46
  Q 70.00 57.72 69.31 61.72
  Q 68.23 60.81 68.17 59.50
  Q 68.10 57.68 67.76 55.95
  Q 67.66 55.47 67.89 55.04
  C 68.81 53.27 69.22 50.12 68.28 48.04
  Q 67.93 47.28 68.26 46.54
  Q 68.64 45.69 68.89 46.58
  L 70.82 53.19
  Z"
/>
<path fill="#ffffff" d="
  M 13.01 58.24
  L 18.95 60.59
  Q 23.75 62.50 18.94 64.38
  L 9.01 68.26
  Q 8.26 68.55 8.26 67.74
  Q 8.26 66.16 8.26 66.13
  Q 8.26 65.34 9.00 65.08
  Q 12.51 63.88 16.04 62.49
  Q 16.82 62.19 16.05 61.86
  Q 13.11 60.57 9.29 59.20
  C 8.28 58.84 7.92 57.85 8.40 56.91
  Q 8.64 56.43 9.16 56.24
  Q 12.72 54.95 16.02 53.50
  Q 16.88 53.12 15.99 52.80
  L 8.86 50.26
  Q 8.22 50.03 8.25 49.35
  L 8.31 47.81
  Q 8.33 47.40 8.71 47.55
  L 20.61 52.14
  A 0.90 0.85 89.4 0 1 21.13 52.68
  Q 21.32 53.25 21.17 53.85
  Q 21.03 54.43 20.48 54.64
  L 13.01 57.56
  Q 12.15 57.89 13.01 58.24
  Z"
/>
<path fill="#acc069" d="
  M 70.82 53.19
  Q 74.20 64.69 77.58 69.44
  Q 81.09 74.36 84.21 79.47
  Q 84.34 80.00 84.97 80.04
  Q 84.81 80.27 84.94 80.48
  Q 88.81 86.58 92.61 92.73
  Q 93.35 93.94 93.27 96.62
  Q 93.26 97.04 93.62 96.82
  Q 93.81 96.71 93.89 96.40
  Q 94.31 96.86 94.72 96.74
  Q 96.59 99.36 97.76 104.00
  Q 99.57 111.21 99.64 116.47
  Q 99.67 119.37 99.03 123.00
  Q 98.38 126.65 97.56 129.48
  Q 96.42 133.38 93.97 137.31
  C 90.51 142.86 83.85 147.15 78.27 149.05
  Q 75.35 150.05 69.98 149.94
  Q 69.47 149.93 69.40 149.42
  Q 68.88 145.68 69.00 142.00
  Q 69.55 125.91 69.53 114.25
  Q 69.52 106.18 69.77 98.42
  Q 69.20 95.11 69.33 92.75
  Q 69.91 82.09 69.35 71.44
  Q 69.27 69.78 69.45 66.58
  Q 69.60 64.12 69.31 61.72
  Q 70.00 57.72 69.61 53.46
  A 0.51 0.50 16.5 0 1 70.43 53.02
  Q 70.46 53.05 70.82 53.19
  Z
  M 72.79 97.55
  L 73.54 98.30
  A 0.25 0.25 0.0 0 0 73.90 98.29
  L 76.45 95.72
  A 8.02 0.67 -45.2 0 0 81.63 89.56
  L 81.47 89.40
  A 8.02 0.67 -45.2 0 0 75.35 94.62
  L 72.79 97.19
  A 0.25 0.25 0.0 0 0 72.79 97.55
  Z
  M 88.29 104.49
  C 82.66 107.56 77.10 112.65 72.49 117.12
  A 0.29 0.28 -53.7 0 0 72.56 117.58
  L 72.85 117.72
  A 0.96 0.96 0.0 0 0 73.90 117.61
  Q 81.80 111.25 88.61 104.94
  Q 90.25 103.42 88.29 104.49
  Z
  M 85.57 125.59
  Q 78.91 129.24 73.20 134.69
  A 0.31 0.31 0.0 0 0 73.36 135.22
  L 74.09 135.35
  A 0.39 0.38 32.1 0 0 74.38 135.29
  Q 81.14 130.63 86.03 126.23
  Q 88.57 123.95 85.57 125.59
  Z"
/>
<ellipse fill="#977122" cx="0.00" cy="0.00" transform="translate(67.42,68.29) rotate(91.8)" rx="1.71" ry="0.43"/>
<path fill="#1d1d1b" d="
  M 62.90 71.04
  Q 61.50 72.12 60.50 72.11
  Q 52.17 71.98 47.15 77.99
  Q 45.49 79.99 44.04 83.02
  Q 43.01 85.19 42.67 87.51
  Q 42.35 89.72 42.11 92.05
  Q 40.65 81.23 48.09 74.84
  Q 53.94 69.83 62.90 71.04
  Z"
/>
<path fill="#fec542" d="
  M 62.90 71.04
  L 65.09 71.26
  Q 65.02 79.44 64.86 87.65
  C 64.83 89.28 65.18 91.08 64.84 92.62
  Q 64.57 93.79 64.72 94.91
  C 64.94 96.64 64.44 98.20 64.45 99.94
  Q 64.47 102.74 64.52 105.62
  Q 64.56 108.20 64.25 110.96
  Q 63.60 116.84 64.35 122.92
  Q 64.37 123.11 64.54 123.18
  Q 64.90 123.35 64.93 122.96
  C 65.35 118.24 65.34 113.41 65.90 108.84
  Q 66.08 107.32 65.66 105.56
  A 2.18 1.77 73.4 0 1 66.66 103.14
  Q 66.90 103.05 67.38 104.62
  Q 67.70 109.04 67.05 113.57
  C 66.80 115.33 67.43 116.63 67.33 118.34
  C 67.21 120.39 67.88 122.16 67.50 124.18
  Q 66.18 124.85 66.11 126.00
  Q 66.07 126.76 66.64 126.87
  Q 67.05 126.95 67.11 127.37
  L 67.24 128.23
  Q 66.63 138.40 67.42 148.67
  Q 67.46 149.20 66.97 149.41
  Q 65.55 149.99 63.99 149.54
  C 59.27 148.18 53.13 146.21 49.59 142.54
  Q 48.09 139.93 45.41 138.66
  Q 44.35 136.94 43.13 135.23
  C 39.45 130.09 38.65 123.82 39.76 117.54
  A 1.35 1.34 1.2 0 1 40.91 116.44
  C 47.29 115.59 50.86 109.65 50.32 103.45
  Q 49.75 97.05 42.71 94.93
  L 42.11 92.05
  Q 42.35 89.72 42.67 87.51
  Q 43.01 85.19 44.04 83.02
  Q 45.49 79.99 47.15 77.99
  Q 52.17 71.98 60.50 72.11
  Q 61.50 72.12 62.90 71.04
  Z
  M 54.29 106.19
  C 54.00 107.77 54.63 109.03 54.45 110.62
  C 54.08 113.95 54.16 119.15 49.56 119.03
  Q 48.76 119.01 49.34 119.55
  C 51.85 121.90 54.24 118.34 54.95 116.21
  Q 56.54 111.38 55.57 106.33
  Q 55.24 104.57 55.75 102.69
  Q 55.92 102.07 56.56 102.12
  L 57.53 102.19
  Q 58.21 102.25 57.61 101.92
  C 56.43 101.30 55.10 101.94 54.85 103.24
  Q 54.55 104.74 54.29 106.19
  Z"
/>
<path fill="#ffffff" d="
  M 18.75 82.01
  Q 18.75 81.26 18.01 81.27
  L 16.46 81.28
  Q 15.71 81.29 15.71 82.04
  L 15.68 90.11
  Q 15.67 92.51 13.27 92.51
  L 10.73 92.52
  Q 8.34 92.52 8.29 90.13
  Q 8.21 85.75 8.31 81.25
  Q 8.35 79.31 10.12 78.96
  A 1.32 1.32 0.0 0 1 11.69 80.41
  Q 11.60 81.22 10.94 81.54
  Q 10.48 81.77 10.48 82.28
  L 10.50 89.24
  Q 10.51 89.98 11.24 90.02
  L 12.69 90.10
  Q 13.26 90.13 13.26 89.56
  L 13.26 81.37
  Q 13.27 78.75 15.88 78.73
  L 18.55 78.71
  Q 21.02 78.70 21.13 81.17
  Q 21.31 85.41 21.12 90.44
  Q 21.02 93.06 18.51 93.16
  Q 18.11 93.17 17.85 92.87
  Q 17.37 92.32 17.44 91.57
  Q 17.49 90.99 18.00 90.69
  Q 18.25 90.54 18.41 90.30
  A 1.91 1.87 -28.7 0 0 18.73 89.25
  L 18.75 82.01
  Z"
/>
<ellipse fill="#977122" cx="0.00" cy="0.00" transform="translate(66.95,82.83) rotate(91.0)" rx="3.68" ry="0.89"/>
<path fill="#25220b" d="
  M 84.97 80.04
  Q 85.97 80.09 86.53 80.96
  Q 89.29 85.23 92.06 89.50
  Q 94.36 93.05 93.89 96.40
  Q 93.81 96.71 93.62 96.82
  Q 93.26 97.04 93.27 96.62
  Q 93.35 93.94 92.61 92.73
  Q 88.81 86.58 84.94 80.48
  Q 84.81 80.27 84.97 80.04
  Z"
/>
<path fill="#25220b" d="
  M 72.79 97.55
  A 0.25 0.25 0.0 0 1 72.79 97.19
  L 75.35 94.62
  A 8.02 0.67 -45.2 0 1 81.47 89.40
  L 81.63 89.56
  A 8.02 0.67 -45.2 0 1 76.45 95.72
  L 73.90 98.29
  A 0.25 0.25 0.0 0 1 73.54 98.30
  L 72.79 97.55
  Z"
/>
<path fill="#1d1d1b" d="
  M 42.71 94.93
  Q 49.75 97.05 50.32 103.45
  C 50.86 109.65 47.29 115.59 40.91 116.44
  A 1.35 1.34 1.2 0 0 39.76 117.54
  C 38.65 123.82 39.45 130.09 43.13 135.23
  Q 44.35 136.94 45.41 138.66
  C 45.86 140.41 47.40 143.24 49.59 142.54
  C 53.13 146.21 59.27 148.18 63.99 149.54
  Q 65.55 149.99 66.97 149.41
  Q 67.46 149.20 67.42 148.67
  Q 66.63 138.40 67.24 128.23
  Q 67.82 127.02 67.22 126.14
  Q 66.96 125.75 67.11 125.31
  L 67.50 124.18
  C 67.88 122.16 67.21 120.39 67.33 118.34
  C 67.43 116.63 66.80 115.33 67.05 113.57
  Q 67.70 109.04 67.38 104.62
  L 67.81 102.56
  Q 67.91 102.13 67.70 101.73
  Q 67.15 100.67 67.38 99.17
  Q 67.49 98.48 68.11 98.28
  Q 68.75 98.07 69.77 98.42
  Q 69.52 106.18 69.53 114.25
  Q 69.55 125.91 69.00 142.00
  Q 68.88 145.68 69.40 149.42
  Q 69.47 149.93 69.98 149.94
  Q 75.35 150.05 78.27 149.05
  C 83.85 147.15 90.51 142.86 93.97 137.31
  Q 96.42 133.38 97.56 129.48
  Q 98.38 126.65 99.03 123.00
  Q 99.67 119.37 99.64 116.47
  Q 99.57 111.21 97.76 104.00
  Q 96.59 99.36 94.72 96.74
  Q 94.98 96.34 95.12 96.30
  A 1.23 1.13 69.4 0 1 96.52 97.01
  Q 99.00 102.54 100.30 108.76
  Q 103.32 123.35 98.24 135.26
  C 96.30 139.81 91.77 144.84 87.19 147.48
  C 84.70 148.92 82.76 151.10 79.97 152.00
  Q 74.84 153.66 70.25 153.63
  Q 69.38 153.63 69.35 154.49
  L 68.66 173.35
  Q 68.65 173.55 68.46 173.55
  L 68.17 173.56
  Q 68.08 173.57 68.07 173.47
  Q 66.74 163.52 66.52 153.54
  Q 66.51 153.04 66.01 153.00
  Q 62.71 152.72 59.68 151.62
  A 1.32 1.32 0.0 0 1 58.97 151.01
  Q 58.54 150.21 57.67 149.93
  Q 51.00 147.76 47.23 144.11
  Q 43.07 140.07 39.97 133.14
  C 38.15 129.07 38.02 124.55 38.34 120.13
  C 38.58 116.88 41.75 115.14 44.32 113.86
  Q 46.23 112.91 47.40 110.80
  C 48.41 108.97 49.42 104.85 48.65 102.88
  C 48.14 101.56 48.53 100.41 47.73 99.16
  Q 46.07 96.58 42.71 94.93
  Z"
/>
<path fill="#1d1d1b" d="
  M 54.29 106.19
  Q 54.55 104.74 54.85 103.24
  C 55.10 101.94 56.43 101.30 57.61 101.92
  Q 58.21 102.25 57.53 102.19
  L 56.56 102.12
  Q 55.92 102.07 55.75 102.69
  Q 55.24 104.57 55.57 106.33
  Q 56.54 111.38 54.95 116.21
  C 54.24 118.34 51.85 121.90 49.34 119.55
  Q 48.76 119.01 49.56 119.03
  C 54.16 119.15 54.08 113.95 54.45 110.62
  C 54.63 109.03 54.00 107.77 54.29 106.19
  Z"
/>
<path fill="#1d1d1b" d="
  M 72.49 117.12
  C 77.10 112.65 82.66 107.56 88.29 104.49
  Q 90.25 103.42 88.61 104.94
  Q 81.80 111.25 73.90 117.61
  A 0.96 0.96 0.0 0 1 72.85 117.72
  L 72.56 117.58
  A 0.29 0.28 -53.7 0 1 72.49 117.12
  Z"
/>
<rect fill="#ffffff" x="-6.45" y="-1.33" transform="translate(14.76,107.19) rotate(-0.4)" width="12.90" height="2.66" rx="0.82"/>
<path fill="#ffffff" d="
  M 10.53 127.96
  L 10.49 133.22
  A 0.45 0.45 0.0 0 1 10.06 133.67
  L 8.72 133.74
  A 0.45 0.45 0.0 0 1 8.25 133.29
  L 8.31 118.91
  A 0.45 0.45 0.0 0 1 8.81 118.46
  L 10.04 118.60
  A 0.45 0.45 0.0 0 1 10.45 119.04
  L 10.53 124.31
  A 0.45 0.45 0.0 0 0 10.98 124.75
  L 20.80 124.74
  A 0.45 0.45 0.0 0 1 21.25 125.20
  L 21.23 127.17
  A 0.45 0.45 0.0 0 1 20.77 127.62
  L 10.98 127.51
  A 0.45 0.45 0.0 0 0 10.53 127.96
  Z"
/>
<path fill="#977122" d="
  M 67.50 124.18
  L 67.11 125.31
  Q 66.96 125.75 67.22 126.14
  Q 67.82 127.02 67.24 128.23
  L 67.11 127.37
  Q 67.05 126.95 66.64 126.87
  Q 66.07 126.76 66.11 126.00
  Q 66.18 124.85 67.50 124.18
  Z"
/>
<path fill="#25220b" d="
  M 85.57 125.59
  Q 88.57 123.95 86.03 126.23
  Q 81.14 130.63 74.38 135.29
  A 0.39 0.38 32.1 0 1 74.09 135.35
  L 73.36 135.22
  A 0.31 0.31 0.0 0 1 73.20 134.69
  Q 78.91 129.24 85.57 125.59
  Z"
/>
<path fill="#977122" d="
  M 45.41 138.66
  Q 48.09 139.93 49.59 142.54
  C 47.40 143.24 45.86 140.41 45.41 138.66
  Z"
/>
<path fill="#ffffff" d="
  M 10.53 150.24
  L 10.52 155.28
  A 0.47 0.47 0.0 0 1 10.06 155.75
  L 8.73 155.76
  A 0.47 0.47 0.0 0 1 8.25 155.29
  L 8.26 141.22
  A 0.47 0.47 0.0 0 1 8.77 140.75
  L 10.07 140.86
  A 0.47 0.47 0.0 0 1 10.50 141.33
  L 10.54 146.37
  A 0.47 0.47 0.0 0 0 11.01 146.84
  L 20.77 146.75
  A 0.47 0.47 0.0 0 1 21.25 147.23
  L 21.20 149.31
  A 0.47 0.47 0.0 0 1 20.73 149.77
  L 11.00 149.77
  A 0.47 0.47 0.0 0 0 10.53 150.24
  Z"
/>
<ellipse fill="#977122" cx="0.00" cy="0.00" transform="translate(55.94,151.08) rotate(21.8)" rx="1.67" ry="0.40"/>
<path fill="#ffffff" d="
  M 13.24 174.71
  L 13.40 169.30
  A 0.44 0.44 0.0 0 1 13.87 168.88
  L 15.07 168.98
  A 0.44 0.44 0.0 0 1 15.47 169.41
  L 15.48 174.72
  A 0.44 0.44 0.0 0 0 15.91 175.16
  L 18.30 175.24
  A 0.44 0.44 0.0 0 0 18.75 174.80
  L 18.74 165.16
  A 0.44 0.44 0.0 0 1 19.18 164.72
  L 20.71 164.74
  A 0.44 0.44 0.0 0 1 21.14 165.17
  L 21.19 177.61
  A 0.44 0.44 0.0 0 1 20.75 178.05
  L 8.70 178.04
  A 0.44 0.44 0.0 0 1 8.26 177.60
  L 8.26 165.17
  A 0.44 0.44 0.0 0 1 8.74 164.73
  L 10.07 164.85
  A 0.44 0.44 0.0 0 1 10.47 165.29
  L 10.50 174.80
  A 0.44 0.44 0.0 0 0 10.96 175.24
  L 12.82 175.14
  A 0.44 0.44 0.0 0 0 13.24 174.71
  Z"
/>
</svg>
